<svg width="193" height="399" viewBox="0 0 193 399" fill="none" xmlns="http://www.w3.org/2000/svg">
<path d="M6.49936 270.35L2.99936 214.85L0.998657 4.85036C28.9993 -4.14964 72.9991 3.35036 86.9991 11.8504C100.999 20.3504 130.999 45.3504 136.999 73.8504C141.799 96.6504 136.999 127.684 133.999 140.35C140.332 147.35 155.699 165.45 166.499 181.85C177.299 198.25 190 234.85 191.499 255.85C192.998 276.85 194.099 311.65 182.499 336.85C167.999 368.35 140.999 382.85 124.999 391.85C108.999 400.85 67.9993 398.85 48.9993 397.85C33.7993 397.05 18.666 387.517 12.9994 382.85V365.35L33.4994 362.35L28.9994 351.35L12.9994 347.35V332.35H28.9994L25.4994 312.35L10.4994 307.85V292.35H21.9994L18.9994 270.35H6.49936Z" fill="black"/>
<path d="M115.5 173.85C102.7 192.25 70.8333 208.517 56.5 214.35L39.5 355.35C77.5 372.95 120 318.85 131 287.85C143.8 214.25 126.166 181.017 115.5 173.85Z" fill="#F9E7E7"/>
<path d="M73.4998 51.3504L53 46.3504L50 62.3504L71.4998 67.8504L69.4998 88.3504L50 83.8504L47 100.35L67.9998 109.35L66 124.85L45.5 123.35V141.35H65L60.5 187.35C70 180.684 89.6998 166.35 92.4998 162.35C95.2998 158.35 94.9998 141.684 94.4998 133.85L88.9998 39.3504L75.9998 30.8504L73.4998 51.3504Z" fill="#F9E7E7"/>
<path d="M66.5 330.35L58.5 328.85C58.5 316.35 66.5 287.35 78 260.35C84.721 243.464 91.5 228.35 100 218.35L103 220.35L105.5 222.85L108.5 226.35L110.5 229.85C96.5 241.35 74.5 301.35 66.5 330.35Z" fill="#E3181D"/>
<circle cx="162.5" cy="272.85" r="17" fill="#F0CF20"/>
<circle cx="147" cy="329.35" r="20.5" fill="#F0CF20"/>
<circle cx="114.5" cy="361.85" r="16" fill="#F0CF20"/>
</svg>
