<svg width="606" height="127" viewBox="0 0 606 127" fill="none" xmlns="http://www.w3.org/2000/svg">
<path d="M2 85.0296C9.55791 81.7882 16.6601 78.564 23.3551 75.3575C75.2026 50.5249 102.625 26.7498 128.107 4.25967M177.337 0C215.225 83.1998 492.418 107.246 602.502 4.25967" stroke="black" stroke-width="10"/>
<path d="M87.1956 105.181L22.2312 76.5103C32.4816 74.4132 60.2208 61.4376 66.7397 50.6246L87.1956 105.181Z" fill="#DF2B50"/>
<path d="M153.059 59.6354L83.5989 40.1392C93.8494 38.0422 113.496 22.2814 120.015 11.4684L153.059 59.6354Z" fill="#16CBF0"/>
<path d="M504.746 112.576L466.502 69.8955C477.961 72.017 508.292 62.4483 520.482 52.7973L504.746 112.576Z" fill="#16CBF0"/>
<path d="M582.06 85.1534L535.542 51.0675C547.205 50.8444 574.839 35.3986 584.707 23.511L582.06 85.1534Z" fill="#FF744A"/>
<path d="M424.303 126.055L398.566 77.2707C408.43 78.5891 438.994 78.5838 452.512 70.5391L424.303 126.055Z" fill="#DF2B50"/>
<path d="M345.92 125.117L328.549 72.8829C344.982 77.5545 354.566 77.9097 380.847 77.9097L345.92 125.117Z" fill="#FFD321"/>
<path d="M256.474 108.188L252.24 54.7005C259.531 59.802 289.622 69.5138 305.595 66.8625L256.474 108.188Z" fill="#471759"/>
<path d="M168.707 83.0995L186.883 18.1531C190.477 27.9179 221.209 49.3964 235.08 52.9106L168.707 83.0995Z" fill="#FF744A"/>
</svg>
