<svg width="665" height="513" viewBox="0 0 665 513" fill="none" xmlns="http://www.w3.org/2000/svg">
<mask id="path-1-inside-1_19_405" fill="white">
<rect x="57.001" y="55.2815" width="552.109" height="404.481" rx="10"/>
</mask>
<rect x="57.001" y="55.2815" width="552.109" height="404.481" rx="10" stroke="#751323" stroke-width="68" mask="url(#path-1-inside-1_19_405)"/>
<g filter="url(#filter0_f_19_405)">
<circle cx="75" cy="72" r="23" fill="#FFD700"/>
</g>
<g filter="url(#filter1_f_19_405)">
<circle cx="286" cy="72" r="23" fill="#FFD700"/>
</g>
<g filter="url(#filter2_f_19_405)">
<circle cx="491" cy="72" r="23" fill="#FFD700"/>
</g>
<g filter="url(#filter3_f_19_405)">
<circle cx="593" cy="183" r="23" fill="#FFD700"/>
</g>
<g filter="url(#filter4_f_19_405)">
<circle cx="593" cy="388" r="23" fill="#FFD700"/>
</g>
<g filter="url(#filter5_f_19_405)">
<circle cx="439" cy="441" r="23" fill="#FFD700"/>
</g>
<g filter="url(#filter6_f_19_405)">
<circle cx="236" cy="441" r="23" fill="#FFD700"/>
</g>
<g filter="url(#filter7_f_19_405)">
<circle cx="72" cy="388" r="23" fill="#FFD700"/>
</g>
<g filter="url(#filter8_f_19_405)">
<circle cx="72" cy="183" r="23" fill="#FFD700"/>
</g>
<g filter="url(#filter9_f_19_405)">
<circle cx="130" cy="72" r="12.5" transform="rotate(-90 130 72)" stroke="#FFD700" stroke-width="5"/>
</g>
<g filter="url(#filter10_f_19_405)">
<circle cx="130.25" cy="72.25" r="6.25" transform="rotate(-90 130.25 72.25)" fill="#FFD700"/>
</g>
<circle cx="130" cy="72" r="13.5" transform="rotate(-90 130 72)" stroke="#F8F1CE" stroke-width="3"/>
<circle cx="130.25" cy="72.25" r="6.25" transform="rotate(-90 130.25 72.25)" fill="#F8F1CE"/>
<g filter="url(#filter11_f_19_405)">
<circle cx="75" cy="72" r="12.5" transform="rotate(-90 75 72)" stroke="#FFD700" stroke-width="5"/>
</g>
<g filter="url(#filter12_f_19_405)">
<circle cx="75.25" cy="72.25" r="6.25" transform="rotate(-90 75.25 72.25)" fill="#FFD700"/>
</g>
<circle cx="75" cy="72" r="13.5" transform="rotate(-90 75 72)" stroke="#F8F1CE" stroke-width="3"/>
<circle cx="75.25" cy="72.25" r="6.25" transform="rotate(-90 75.25 72.25)" fill="#F8F1CE"/>
<g filter="url(#filter13_f_19_405)">
<circle cx="185" cy="72" r="12.5" transform="rotate(-90 185 72)" stroke="#FFD700" stroke-width="5"/>
</g>
<g filter="url(#filter14_f_19_405)">
<circle cx="185.25" cy="72.25" r="6.25" transform="rotate(-90 185.25 72.25)" fill="#FFD700"/>
</g>
<circle cx="185" cy="72" r="13.5" transform="rotate(-90 185 72)" stroke="#F8F1CE" stroke-width="3"/>
<circle cx="185.25" cy="72.25" r="6.25" transform="rotate(-90 185.25 72.25)" fill="#F8F1CE"/>
<g filter="url(#filter15_f_19_405)">
<circle cx="286" cy="72" r="12.5" transform="rotate(-90 286 72)" stroke="#FFD700" stroke-width="5"/>
</g>
<g filter="url(#filter16_f_19_405)">
<circle cx="286.25" cy="72.25" r="6.25" transform="rotate(-90 286.25 72.25)" fill="#FFD700"/>
</g>
<circle cx="286" cy="72" r="13.5" transform="rotate(-90 286 72)" stroke="#F8F1CE" stroke-width="3"/>
<circle cx="286.25" cy="72.25" r="6.25" transform="rotate(-90 286.25 72.25)" fill="#F8F1CE"/>
<g filter="url(#filter17_f_19_405)">
<circle cx="236" cy="72" r="12.5" transform="rotate(-90 236 72)" stroke="#FFD700" stroke-width="5"/>
</g>
<g filter="url(#filter18_f_19_405)">
<circle cx="236.25" cy="72.25" r="6.25" transform="rotate(-90 236.25 72.25)" fill="#FFD700"/>
</g>
<circle cx="236" cy="72" r="13.5" transform="rotate(-90 236 72)" stroke="#F8F1CE" stroke-width="3"/>
<circle cx="236.25" cy="72.25" r="6.25" transform="rotate(-90 236.25 72.25)" fill="#F8F1CE"/>
<g filter="url(#filter19_f_19_405)">
<circle cx="337" cy="72" r="12.5" transform="rotate(-90 337 72)" stroke="#FFD700" stroke-width="5"/>
</g>
<g filter="url(#filter20_f_19_405)">
<circle cx="337.25" cy="72.25" r="6.25" transform="rotate(-90 337.25 72.25)" fill="#FFD700"/>
</g>
<circle cx="337" cy="72" r="13.5" transform="rotate(-90 337 72)" stroke="#F8F1CE" stroke-width="3"/>
<circle cx="337.25" cy="72.25" r="6.25" transform="rotate(-90 337.25 72.25)" fill="#F8F1CE"/>
<g filter="url(#filter21_f_19_405)">
<circle cx="491" cy="72" r="12.5" transform="rotate(-90 491 72)" stroke="#FFD700" stroke-width="5"/>
</g>
<g filter="url(#filter22_f_19_405)">
<circle cx="491.25" cy="72.25" r="6.25" transform="rotate(-90 491.25 72.25)" fill="#FFD700"/>
</g>
<circle cx="491" cy="72" r="13.5" transform="rotate(-90 491 72)" stroke="#F8F1CE" stroke-width="3"/>
<circle cx="491.25" cy="72.25" r="6.25" transform="rotate(-90 491.25 72.25)" fill="#F8F1CE"/>
<g filter="url(#filter23_f_19_405)">
<circle cx="542" cy="72" r="12.5" transform="rotate(-90 542 72)" stroke="#FFD700" stroke-width="5"/>
</g>
<g filter="url(#filter24_f_19_405)">
<circle cx="542.25" cy="72.25" r="6.25" transform="rotate(-90 542.25 72.25)" fill="#FFD700"/>
</g>
<circle cx="542" cy="72" r="13.5" transform="rotate(-90 542 72)" stroke="#F8F1CE" stroke-width="3"/>
<circle cx="542.25" cy="72.25" r="6.25" transform="rotate(-90 542.25 72.25)" fill="#F8F1CE"/>
<g filter="url(#filter25_f_19_405)">
<circle cx="439" cy="72" r="12.5" transform="rotate(-90 439 72)" stroke="#FFD700" stroke-width="5"/>
</g>
<g filter="url(#filter26_f_19_405)">
<circle cx="439.25" cy="72.25" r="6.25" transform="rotate(-90 439.25 72.25)" fill="#FFD700"/>
</g>
<circle cx="439" cy="72" r="13.5" transform="rotate(-90 439 72)" stroke="#F8F1CE" stroke-width="3"/>
<circle cx="439.25" cy="72.25" r="6.25" transform="rotate(-90 439.25 72.25)" fill="#F8F1CE"/>
<g filter="url(#filter27_f_19_405)">
<circle cx="389" cy="72" r="12.5" transform="rotate(-90 389 72)" stroke="#FFD700" stroke-width="5"/>
</g>
<g filter="url(#filter28_f_19_405)">
<circle cx="389.25" cy="72.25" r="6.25" transform="rotate(-90 389.25 72.25)" fill="#FFD700"/>
</g>
<circle cx="389" cy="72" r="13.5" transform="rotate(-90 389 72)" stroke="#F8F1CE" stroke-width="3"/>
<circle cx="389.25" cy="72.25" r="6.25" transform="rotate(-90 389.25 72.25)" fill="#F8F1CE"/>
<g filter="url(#filter29_f_19_405)">
<circle cx="593" cy="72" r="12.5" transform="rotate(-90 593 72)" stroke="#FFD700" stroke-width="5"/>
</g>
<g filter="url(#filter30_f_19_405)">
<circle cx="593.25" cy="72.25" r="6.25" transform="rotate(-90 593.25 72.25)" fill="#FFD700"/>
</g>
<circle cx="593" cy="72" r="13.5" transform="rotate(-90 593 72)" stroke="#F8F1CE" stroke-width="3"/>
<circle cx="593.25" cy="72.25" r="6.25" transform="rotate(-90 593.25 72.25)" fill="#F8F1CE"/>
<g filter="url(#filter31_f_19_405)">
<circle cx="130" cy="441" r="12.5" transform="rotate(-90 130 441)" stroke="#FFD700" stroke-width="5"/>
</g>
<g filter="url(#filter32_f_19_405)">
<circle cx="130.25" cy="441.25" r="6.25" transform="rotate(-90 130.25 441.25)" fill="#FFD700"/>
</g>
<circle cx="130" cy="441" r="13.5" transform="rotate(-90 130 441)" stroke="#F8F1CE" stroke-width="3"/>
<circle cx="130.25" cy="441.25" r="6.25" transform="rotate(-90 130.25 441.25)" fill="#F8F1CE"/>
<g filter="url(#filter33_f_19_405)">
<circle cx="72" cy="441" r="12.5" transform="rotate(-90 72 441)" stroke="#FFD700" stroke-width="5"/>
</g>
<g filter="url(#filter34_f_19_405)">
<circle cx="72.25" cy="441.25" r="6.25" transform="rotate(-90 72.25 441.25)" fill="#FFD700"/>
</g>
<circle cx="72" cy="441" r="13.5" transform="rotate(-90 72 441)" stroke="#F8F1CE" stroke-width="3"/>
<circle cx="72.25" cy="441.25" r="6.25" transform="rotate(-90 72.25 441.25)" fill="#F8F1CE"/>
<g filter="url(#filter35_f_19_405)">
<circle cx="185" cy="441" r="12.5" transform="rotate(-90 185 441)" stroke="#FFD700" stroke-width="5"/>
</g>
<g filter="url(#filter36_f_19_405)">
<circle cx="185.25" cy="441.25" r="6.25" transform="rotate(-90 185.25 441.25)" fill="#FFD700"/>
</g>
<circle cx="185" cy="441" r="13.5" transform="rotate(-90 185 441)" stroke="#F8F1CE" stroke-width="3"/>
<circle cx="185.25" cy="441.25" r="6.25" transform="rotate(-90 185.25 441.25)" fill="#F8F1CE"/>
<g filter="url(#filter37_f_19_405)">
<circle cx="286" cy="441" r="12.5" transform="rotate(-90 286 441)" stroke="#FFD700" stroke-width="5"/>
</g>
<g filter="url(#filter38_f_19_405)">
<circle cx="286.25" cy="441.25" r="6.25" transform="rotate(-90 286.25 441.25)" fill="#FFD700"/>
</g>
<circle cx="286" cy="441" r="13.5" transform="rotate(-90 286 441)" stroke="#F8F1CE" stroke-width="3"/>
<circle cx="286.25" cy="441.25" r="6.25" transform="rotate(-90 286.25 441.25)" fill="#F8F1CE"/>
<g filter="url(#filter39_f_19_405)">
<circle cx="236" cy="441" r="12.5" transform="rotate(-90 236 441)" stroke="#FFD700" stroke-width="5"/>
</g>
<g filter="url(#filter40_f_19_405)">
<circle cx="236.25" cy="441.25" r="6.25" transform="rotate(-90 236.25 441.25)" fill="#FFD700"/>
</g>
<circle cx="236" cy="441" r="13.5" transform="rotate(-90 236 441)" stroke="#F8F1CE" stroke-width="3"/>
<circle cx="236.25" cy="441.25" r="6.25" transform="rotate(-90 236.25 441.25)" fill="#F8F1CE"/>
<g filter="url(#filter41_f_19_405)">
<circle cx="337" cy="441" r="12.5" transform="rotate(-90 337 441)" stroke="#FFD700" stroke-width="5"/>
</g>
<g filter="url(#filter42_f_19_405)">
<circle cx="337.25" cy="441.25" r="6.25" transform="rotate(-90 337.25 441.25)" fill="#FFD700"/>
</g>
<circle cx="337" cy="441" r="13.5" transform="rotate(-90 337 441)" stroke="#F8F1CE" stroke-width="3"/>
<circle cx="337.25" cy="441.25" r="6.25" transform="rotate(-90 337.25 441.25)" fill="#F8F1CE"/>
<g filter="url(#filter43_f_19_405)">
<circle cx="491" cy="441" r="12.5" transform="rotate(-90 491 441)" stroke="#FFD700" stroke-width="5"/>
</g>
<g filter="url(#filter44_f_19_405)">
<circle cx="491.25" cy="441.25" r="6.25" transform="rotate(-90 491.25 441.25)" fill="#FFD700"/>
</g>
<circle cx="491" cy="441" r="13.5" transform="rotate(-90 491 441)" stroke="#F8F1CE" stroke-width="3"/>
<circle cx="491.25" cy="441.25" r="6.25" transform="rotate(-90 491.25 441.25)" fill="#F8F1CE"/>
<g filter="url(#filter45_f_19_405)">
<circle cx="542" cy="441" r="12.5" transform="rotate(-90 542 441)" stroke="#FFD700" stroke-width="5"/>
</g>
<g filter="url(#filter46_f_19_405)">
<circle cx="542.25" cy="441.25" r="6.25" transform="rotate(-90 542.25 441.25)" fill="#FFD700"/>
</g>
<circle cx="542" cy="441" r="13.5" transform="rotate(-90 542 441)" stroke="#F8F1CE" stroke-width="3"/>
<circle cx="542.25" cy="441.25" r="6.25" transform="rotate(-90 542.25 441.25)" fill="#F8F1CE"/>
<g filter="url(#filter47_f_19_405)">
<circle cx="439" cy="441" r="12.5" transform="rotate(-90 439 441)" stroke="#FFD700" stroke-width="5"/>
</g>
<g filter="url(#filter48_f_19_405)">
<circle cx="439.25" cy="441.25" r="6.25" transform="rotate(-90 439.25 441.25)" fill="#FFD700"/>
</g>
<circle cx="439" cy="441" r="13.5" transform="rotate(-90 439 441)" stroke="#F8F1CE" stroke-width="3"/>
<circle cx="439.25" cy="441.25" r="6.25" transform="rotate(-90 439.25 441.25)" fill="#F8F1CE"/>
<g filter="url(#filter49_f_19_405)">
<circle cx="389" cy="441" r="12.5" transform="rotate(-90 389 441)" stroke="#FFD700" stroke-width="5"/>
</g>
<g filter="url(#filter50_f_19_405)">
<circle cx="389.25" cy="441.25" r="6.25" transform="rotate(-90 389.25 441.25)" fill="#FFD700"/>
</g>
<circle cx="389" cy="441" r="13.5" transform="rotate(-90 389 441)" stroke="#F8F1CE" stroke-width="3"/>
<circle cx="389.25" cy="441.25" r="6.25" transform="rotate(-90 389.25 441.25)" fill="#F8F1CE"/>
<g filter="url(#filter51_f_19_405)">
<circle cx="593" cy="441" r="12.5" transform="rotate(-90 593 441)" stroke="#FFD700" stroke-width="5"/>
</g>
<g filter="url(#filter52_f_19_405)">
<circle cx="593.25" cy="441.25" r="6.25" transform="rotate(-90 593.25 441.25)" fill="#FFD700"/>
</g>
<circle cx="593" cy="441" r="13.5" transform="rotate(-90 593 441)" stroke="#F8F1CE" stroke-width="3"/>
<circle cx="593.25" cy="441.25" r="6.25" transform="rotate(-90 593.25 441.25)" fill="#F8F1CE"/>
<g filter="url(#filter53_f_19_405)">
<circle cx="72" cy="388" r="12.5" transform="rotate(-180 72 388)" stroke="#FFD700" stroke-width="5"/>
</g>
<g filter="url(#filter54_f_19_405)">
<circle cx="72.25" cy="387.75" r="6.25" transform="rotate(-180 72.25 387.75)" fill="#FFD700"/>
</g>
<circle cx="72" cy="388" r="13.5" transform="rotate(-180 72 388)" stroke="#F8F1CE" stroke-width="3"/>
<circle cx="72.25" cy="387.75" r="6.25" transform="rotate(-180 72.25 387.75)" fill="#F8F1CE"/>
<g filter="url(#filter55_f_19_405)">
<circle cx="72" cy="337" r="12.5" transform="rotate(-180 72 337)" stroke="#FFD700" stroke-width="5"/>
</g>
<g filter="url(#filter56_f_19_405)">
<circle cx="72.25" cy="336.75" r="6.25" transform="rotate(-180 72.25 336.75)" fill="#FFD700"/>
</g>
<circle cx="72" cy="337" r="13.5" transform="rotate(-180 72 337)" stroke="#F8F1CE" stroke-width="3"/>
<circle cx="72.25" cy="336.75" r="6.25" transform="rotate(-180 72.25 336.75)" fill="#F8F1CE"/>
<g filter="url(#filter57_f_19_405)">
<circle cx="72" cy="183" r="12.5" transform="rotate(-180 72 183)" stroke="#FFD700" stroke-width="5"/>
</g>
<g filter="url(#filter58_f_19_405)">
<circle cx="72.25" cy="182.75" r="6.25" transform="rotate(-180 72.25 182.75)" fill="#FFD700"/>
</g>
<circle cx="72" cy="183" r="13.5" transform="rotate(-180 72 183)" stroke="#F8F1CE" stroke-width="3"/>
<circle cx="72.25" cy="182.75" r="6.25" transform="rotate(-180 72.25 182.75)" fill="#F8F1CE"/>
<g filter="url(#filter59_f_19_405)">
<circle cx="72" cy="132" r="12.5" transform="rotate(-180 72 132)" stroke="#FFD700" stroke-width="5"/>
</g>
<g filter="url(#filter60_f_19_405)">
<circle cx="72.25" cy="131.75" r="6.25" transform="rotate(-180 72.25 131.75)" fill="#FFD700"/>
</g>
<circle cx="72" cy="132" r="13.5" transform="rotate(-180 72 132)" stroke="#F8F1CE" stroke-width="3"/>
<circle cx="72.25" cy="131.75" r="6.25" transform="rotate(-180 72.25 131.75)" fill="#F8F1CE"/>
<g filter="url(#filter61_f_19_405)">
<circle cx="72" cy="235" r="12.5" transform="rotate(-180 72 235)" stroke="#FFD700" stroke-width="5"/>
</g>
<g filter="url(#filter62_f_19_405)">
<circle cx="72.25" cy="234.75" r="6.25" transform="rotate(-180 72.25 234.75)" fill="#FFD700"/>
</g>
<circle cx="72" cy="235" r="13.5" transform="rotate(-180 72 235)" stroke="#F8F1CE" stroke-width="3"/>
<circle cx="72.25" cy="234.75" r="6.25" transform="rotate(-180 72.25 234.75)" fill="#F8F1CE"/>
<g filter="url(#filter63_f_19_405)">
<circle cx="72" cy="285" r="12.5" transform="rotate(-180 72 285)" stroke="#FFD700" stroke-width="5"/>
</g>
<g filter="url(#filter64_f_19_405)">
<circle cx="72.25" cy="284.75" r="6.25" transform="rotate(-180 72.25 284.75)" fill="#FFD700"/>
</g>
<circle cx="72" cy="285" r="13.5" transform="rotate(-180 72 285)" stroke="#F8F1CE" stroke-width="3"/>
<circle cx="72.25" cy="284.75" r="6.25" transform="rotate(-180 72.25 284.75)" fill="#F8F1CE"/>
<g filter="url(#filter65_f_19_405)">
<circle cx="593" cy="388" r="12.5" transform="rotate(-180 593 388)" stroke="#FFD700" stroke-width="5"/>
</g>
<g filter="url(#filter66_f_19_405)">
<circle cx="593.25" cy="387.75" r="6.25" transform="rotate(-180 593.25 387.75)" fill="#FFD700"/>
</g>
<circle cx="593" cy="388" r="13.5" transform="rotate(-180 593 388)" stroke="#F8F1CE" stroke-width="3"/>
<circle cx="593.25" cy="387.75" r="6.25" transform="rotate(-180 593.25 387.75)" fill="#F8F1CE"/>
<g filter="url(#filter67_f_19_405)">
<circle cx="593" cy="337" r="12.5" transform="rotate(-180 593 337)" stroke="#FFD700" stroke-width="5"/>
</g>
<g filter="url(#filter68_f_19_405)">
<circle cx="593.25" cy="336.75" r="6.25" transform="rotate(-180 593.25 336.75)" fill="#FFD700"/>
</g>
<circle cx="593" cy="337" r="13.5" transform="rotate(-180 593 337)" stroke="#F8F1CE" stroke-width="3"/>
<circle cx="593.25" cy="336.75" r="6.25" transform="rotate(-180 593.25 336.75)" fill="#F8F1CE"/>
<g filter="url(#filter69_f_19_405)">
<circle cx="593" cy="183" r="12.5" transform="rotate(-180 593 183)" stroke="#FFD700" stroke-width="5"/>
</g>
<g filter="url(#filter70_f_19_405)">
<circle cx="593.25" cy="182.75" r="6.25" transform="rotate(-180 593.25 182.75)" fill="#FFD700"/>
</g>
<circle cx="593" cy="183" r="13.5" transform="rotate(-180 593 183)" stroke="#F8F1CE" stroke-width="3"/>
<circle cx="593.25" cy="182.75" r="6.25" transform="rotate(-180 593.25 182.75)" fill="#F8F1CE"/>
<g filter="url(#filter71_f_19_405)">
<circle cx="593" cy="132" r="12.5" transform="rotate(-180 593 132)" stroke="#FFD700" stroke-width="5"/>
</g>
<g filter="url(#filter72_f_19_405)">
<circle cx="593.25" cy="131.75" r="6.25" transform="rotate(-180 593.25 131.75)" fill="#FFD700"/>
</g>
<circle cx="593" cy="132" r="13.5" transform="rotate(-180 593 132)" stroke="#F8F1CE" stroke-width="3"/>
<circle cx="593.25" cy="131.75" r="6.25" transform="rotate(-180 593.25 131.75)" fill="#F8F1CE"/>
<g filter="url(#filter73_f_19_405)">
<circle cx="593" cy="235" r="12.5" transform="rotate(-180 593 235)" stroke="#FFD700" stroke-width="5"/>
</g>
<g filter="url(#filter74_f_19_405)">
<circle cx="593.25" cy="234.75" r="6.25" transform="rotate(-180 593.25 234.75)" fill="#FFD700"/>
</g>
<circle cx="593" cy="235" r="13.5" transform="rotate(-180 593 235)" stroke="#F8F1CE" stroke-width="3"/>
<circle cx="593.25" cy="234.75" r="6.25" transform="rotate(-180 593.25 234.75)" fill="#F8F1CE"/>
<g filter="url(#filter75_f_19_405)">
<circle cx="593" cy="285" r="12.5" transform="rotate(-180 593 285)" stroke="#FFD700" stroke-width="5"/>
</g>
<g filter="url(#filter76_f_19_405)">
<circle cx="593.25" cy="284.75" r="6.25" transform="rotate(-180 593.25 284.75)" fill="#FFD700"/>
</g>
<circle cx="593" cy="285" r="13.5" transform="rotate(-180 593 285)" stroke="#F8F1CE" stroke-width="3"/>
<circle cx="593.25" cy="284.75" r="6.25" transform="rotate(-180 593.25 284.75)" fill="#F8F1CE"/>
<defs>
<filter id="filter0_f_19_405" x="3" y="0" width="144" height="144" filterUnits="userSpaceOnUse" color-interpolation-filters="sRGB">
<feFlood flood-opacity="0" result="BackgroundImageFix"/>
<feBlend mode="normal" in="SourceGraphic" in2="BackgroundImageFix" result="shape"/>
<feGaussianBlur stdDeviation="24.5" result="effect1_foregroundBlur_19_405"/>
</filter>
<filter id="filter1_f_19_405" x="214" y="0" width="144" height="144" filterUnits="userSpaceOnUse" color-interpolation-filters="sRGB">
<feFlood flood-opacity="0" result="BackgroundImageFix"/>
<feBlend mode="normal" in="SourceGraphic" in2="BackgroundImageFix" result="shape"/>
<feGaussianBlur stdDeviation="24.5" result="effect1_foregroundBlur_19_405"/>
</filter>
<filter id="filter2_f_19_405" x="419" y="0" width="144" height="144" filterUnits="userSpaceOnUse" color-interpolation-filters="sRGB">
<feFlood flood-opacity="0" result="BackgroundImageFix"/>
<feBlend mode="normal" in="SourceGraphic" in2="BackgroundImageFix" result="shape"/>
<feGaussianBlur stdDeviation="24.5" result="effect1_foregroundBlur_19_405"/>
</filter>
<filter id="filter3_f_19_405" x="521" y="111" width="144" height="144" filterUnits="userSpaceOnUse" color-interpolation-filters="sRGB">
<feFlood flood-opacity="0" result="BackgroundImageFix"/>
<feBlend mode="normal" in="SourceGraphic" in2="BackgroundImageFix" result="shape"/>
<feGaussianBlur stdDeviation="24.5" result="effect1_foregroundBlur_19_405"/>
</filter>
<filter id="filter4_f_19_405" x="521" y="316" width="144" height="144" filterUnits="userSpaceOnUse" color-interpolation-filters="sRGB">
<feFlood flood-opacity="0" result="BackgroundImageFix"/>
<feBlend mode="normal" in="SourceGraphic" in2="BackgroundImageFix" result="shape"/>
<feGaussianBlur stdDeviation="24.5" result="effect1_foregroundBlur_19_405"/>
</filter>
<filter id="filter5_f_19_405" x="367" y="369" width="144" height="144" filterUnits="userSpaceOnUse" color-interpolation-filters="sRGB">
<feFlood flood-opacity="0" result="BackgroundImageFix"/>
<feBlend mode="normal" in="SourceGraphic" in2="BackgroundImageFix" result="shape"/>
<feGaussianBlur stdDeviation="24.5" result="effect1_foregroundBlur_19_405"/>
</filter>
<filter id="filter6_f_19_405" x="164" y="369" width="144" height="144" filterUnits="userSpaceOnUse" color-interpolation-filters="sRGB">
<feFlood flood-opacity="0" result="BackgroundImageFix"/>
<feBlend mode="normal" in="SourceGraphic" in2="BackgroundImageFix" result="shape"/>
<feGaussianBlur stdDeviation="24.5" result="effect1_foregroundBlur_19_405"/>
</filter>
<filter id="filter7_f_19_405" x="0" y="316" width="144" height="144" filterUnits="userSpaceOnUse" color-interpolation-filters="sRGB">
<feFlood flood-opacity="0" result="BackgroundImageFix"/>
<feBlend mode="normal" in="SourceGraphic" in2="BackgroundImageFix" result="shape"/>
<feGaussianBlur stdDeviation="24.5" result="effect1_foregroundBlur_19_405"/>
</filter>
<filter id="filter8_f_19_405" x="0" y="111" width="144" height="144" filterUnits="userSpaceOnUse" color-interpolation-filters="sRGB">
<feFlood flood-opacity="0" result="BackgroundImageFix"/>
<feBlend mode="normal" in="SourceGraphic" in2="BackgroundImageFix" result="shape"/>
<feGaussianBlur stdDeviation="24.5" result="effect1_foregroundBlur_19_405"/>
</filter>
<filter id="filter9_f_19_405" x="85" y="27" width="90" height="90" filterUnits="userSpaceOnUse" color-interpolation-filters="sRGB">
<feFlood flood-opacity="0" result="BackgroundImageFix"/>
<feBlend mode="normal" in="SourceGraphic" in2="BackgroundImageFix" result="shape"/>
<feGaussianBlur stdDeviation="15" result="effect1_foregroundBlur_19_405"/>
</filter>
<filter id="filter10_f_19_405" x="94" y="36" width="72.5" height="72.5" filterUnits="userSpaceOnUse" color-interpolation-filters="sRGB">
<feFlood flood-opacity="0" result="BackgroundImageFix"/>
<feBlend mode="normal" in="SourceGraphic" in2="BackgroundImageFix" result="shape"/>
<feGaussianBlur stdDeviation="15" result="effect1_foregroundBlur_19_405"/>
</filter>
<filter id="filter11_f_19_405" x="30" y="27" width="90" height="90" filterUnits="userSpaceOnUse" color-interpolation-filters="sRGB">
<feFlood flood-opacity="0" result="BackgroundImageFix"/>
<feBlend mode="normal" in="SourceGraphic" in2="BackgroundImageFix" result="shape"/>
<feGaussianBlur stdDeviation="15" result="effect1_foregroundBlur_19_405"/>
</filter>
<filter id="filter12_f_19_405" x="39" y="36" width="72.5" height="72.5" filterUnits="userSpaceOnUse" color-interpolation-filters="sRGB">
<feFlood flood-opacity="0" result="BackgroundImageFix"/>
<feBlend mode="normal" in="SourceGraphic" in2="BackgroundImageFix" result="shape"/>
<feGaussianBlur stdDeviation="15" result="effect1_foregroundBlur_19_405"/>
</filter>
<filter id="filter13_f_19_405" x="140" y="27" width="90" height="90" filterUnits="userSpaceOnUse" color-interpolation-filters="sRGB">
<feFlood flood-opacity="0" result="BackgroundImageFix"/>
<feBlend mode="normal" in="SourceGraphic" in2="BackgroundImageFix" result="shape"/>
<feGaussianBlur stdDeviation="15" result="effect1_foregroundBlur_19_405"/>
</filter>
<filter id="filter14_f_19_405" x="149" y="36" width="72.5" height="72.5" filterUnits="userSpaceOnUse" color-interpolation-filters="sRGB">
<feFlood flood-opacity="0" result="BackgroundImageFix"/>
<feBlend mode="normal" in="SourceGraphic" in2="BackgroundImageFix" result="shape"/>
<feGaussianBlur stdDeviation="15" result="effect1_foregroundBlur_19_405"/>
</filter>
<filter id="filter15_f_19_405" x="241" y="27" width="90" height="90" filterUnits="userSpaceOnUse" color-interpolation-filters="sRGB">
<feFlood flood-opacity="0" result="BackgroundImageFix"/>
<feBlend mode="normal" in="SourceGraphic" in2="BackgroundImageFix" result="shape"/>
<feGaussianBlur stdDeviation="15" result="effect1_foregroundBlur_19_405"/>
</filter>
<filter id="filter16_f_19_405" x="250" y="36" width="72.5" height="72.5" filterUnits="userSpaceOnUse" color-interpolation-filters="sRGB">
<feFlood flood-opacity="0" result="BackgroundImageFix"/>
<feBlend mode="normal" in="SourceGraphic" in2="BackgroundImageFix" result="shape"/>
<feGaussianBlur stdDeviation="15" result="effect1_foregroundBlur_19_405"/>
</filter>
<filter id="filter17_f_19_405" x="191" y="27" width="90" height="90" filterUnits="userSpaceOnUse" color-interpolation-filters="sRGB">
<feFlood flood-opacity="0" result="BackgroundImageFix"/>
<feBlend mode="normal" in="SourceGraphic" in2="BackgroundImageFix" result="shape"/>
<feGaussianBlur stdDeviation="15" result="effect1_foregroundBlur_19_405"/>
</filter>
<filter id="filter18_f_19_405" x="200" y="36" width="72.5" height="72.5" filterUnits="userSpaceOnUse" color-interpolation-filters="sRGB">
<feFlood flood-opacity="0" result="BackgroundImageFix"/>
<feBlend mode="normal" in="SourceGraphic" in2="BackgroundImageFix" result="shape"/>
<feGaussianBlur stdDeviation="15" result="effect1_foregroundBlur_19_405"/>
</filter>
<filter id="filter19_f_19_405" x="292" y="27" width="90" height="90" filterUnits="userSpaceOnUse" color-interpolation-filters="sRGB">
<feFlood flood-opacity="0" result="BackgroundImageFix"/>
<feBlend mode="normal" in="SourceGraphic" in2="BackgroundImageFix" result="shape"/>
<feGaussianBlur stdDeviation="15" result="effect1_foregroundBlur_19_405"/>
</filter>
<filter id="filter20_f_19_405" x="301" y="36" width="72.5" height="72.5" filterUnits="userSpaceOnUse" color-interpolation-filters="sRGB">
<feFlood flood-opacity="0" result="BackgroundImageFix"/>
<feBlend mode="normal" in="SourceGraphic" in2="BackgroundImageFix" result="shape"/>
<feGaussianBlur stdDeviation="15" result="effect1_foregroundBlur_19_405"/>
</filter>
<filter id="filter21_f_19_405" x="446" y="27" width="90" height="90" filterUnits="userSpaceOnUse" color-interpolation-filters="sRGB">
<feFlood flood-opacity="0" result="BackgroundImageFix"/>
<feBlend mode="normal" in="SourceGraphic" in2="BackgroundImageFix" result="shape"/>
<feGaussianBlur stdDeviation="15" result="effect1_foregroundBlur_19_405"/>
</filter>
<filter id="filter22_f_19_405" x="455" y="36" width="72.5" height="72.5" filterUnits="userSpaceOnUse" color-interpolation-filters="sRGB">
<feFlood flood-opacity="0" result="BackgroundImageFix"/>
<feBlend mode="normal" in="SourceGraphic" in2="BackgroundImageFix" result="shape"/>
<feGaussianBlur stdDeviation="15" result="effect1_foregroundBlur_19_405"/>
</filter>
<filter id="filter23_f_19_405" x="497" y="27" width="90" height="90" filterUnits="userSpaceOnUse" color-interpolation-filters="sRGB">
<feFlood flood-opacity="0" result="BackgroundImageFix"/>
<feBlend mode="normal" in="SourceGraphic" in2="BackgroundImageFix" result="shape"/>
<feGaussianBlur stdDeviation="15" result="effect1_foregroundBlur_19_405"/>
</filter>
<filter id="filter24_f_19_405" x="506" y="36" width="72.5" height="72.5" filterUnits="userSpaceOnUse" color-interpolation-filters="sRGB">
<feFlood flood-opacity="0" result="BackgroundImageFix"/>
<feBlend mode="normal" in="SourceGraphic" in2="BackgroundImageFix" result="shape"/>
<feGaussianBlur stdDeviation="15" result="effect1_foregroundBlur_19_405"/>
</filter>
<filter id="filter25_f_19_405" x="394" y="27" width="90" height="90" filterUnits="userSpaceOnUse" color-interpolation-filters="sRGB">
<feFlood flood-opacity="0" result="BackgroundImageFix"/>
<feBlend mode="normal" in="SourceGraphic" in2="BackgroundImageFix" result="shape"/>
<feGaussianBlur stdDeviation="15" result="effect1_foregroundBlur_19_405"/>
</filter>
<filter id="filter26_f_19_405" x="403" y="36" width="72.5" height="72.5" filterUnits="userSpaceOnUse" color-interpolation-filters="sRGB">
<feFlood flood-opacity="0" result="BackgroundImageFix"/>
<feBlend mode="normal" in="SourceGraphic" in2="BackgroundImageFix" result="shape"/>
<feGaussianBlur stdDeviation="15" result="effect1_foregroundBlur_19_405"/>
</filter>
<filter id="filter27_f_19_405" x="344" y="27" width="90" height="90" filterUnits="userSpaceOnUse" color-interpolation-filters="sRGB">
<feFlood flood-opacity="0" result="BackgroundImageFix"/>
<feBlend mode="normal" in="SourceGraphic" in2="BackgroundImageFix" result="shape"/>
<feGaussianBlur stdDeviation="15" result="effect1_foregroundBlur_19_405"/>
</filter>
<filter id="filter28_f_19_405" x="353" y="36" width="72.5" height="72.5" filterUnits="userSpaceOnUse" color-interpolation-filters="sRGB">
<feFlood flood-opacity="0" result="BackgroundImageFix"/>
<feBlend mode="normal" in="SourceGraphic" in2="BackgroundImageFix" result="shape"/>
<feGaussianBlur stdDeviation="15" result="effect1_foregroundBlur_19_405"/>
</filter>
<filter id="filter29_f_19_405" x="548" y="27" width="90" height="90" filterUnits="userSpaceOnUse" color-interpolation-filters="sRGB">
<feFlood flood-opacity="0" result="BackgroundImageFix"/>
<feBlend mode="normal" in="SourceGraphic" in2="BackgroundImageFix" result="shape"/>
<feGaussianBlur stdDeviation="15" result="effect1_foregroundBlur_19_405"/>
</filter>
<filter id="filter30_f_19_405" x="557" y="36" width="72.5" height="72.5" filterUnits="userSpaceOnUse" color-interpolation-filters="sRGB">
<feFlood flood-opacity="0" result="BackgroundImageFix"/>
<feBlend mode="normal" in="SourceGraphic" in2="BackgroundImageFix" result="shape"/>
<feGaussianBlur stdDeviation="15" result="effect1_foregroundBlur_19_405"/>
</filter>
<filter id="filter31_f_19_405" x="85" y="396" width="90" height="90" filterUnits="userSpaceOnUse" color-interpolation-filters="sRGB">
<feFlood flood-opacity="0" result="BackgroundImageFix"/>
<feBlend mode="normal" in="SourceGraphic" in2="BackgroundImageFix" result="shape"/>
<feGaussianBlur stdDeviation="15" result="effect1_foregroundBlur_19_405"/>
</filter>
<filter id="filter32_f_19_405" x="94" y="405" width="72.5" height="72.5" filterUnits="userSpaceOnUse" color-interpolation-filters="sRGB">
<feFlood flood-opacity="0" result="BackgroundImageFix"/>
<feBlend mode="normal" in="SourceGraphic" in2="BackgroundImageFix" result="shape"/>
<feGaussianBlur stdDeviation="15" result="effect1_foregroundBlur_19_405"/>
</filter>
<filter id="filter33_f_19_405" x="27" y="396" width="90" height="90" filterUnits="userSpaceOnUse" color-interpolation-filters="sRGB">
<feFlood flood-opacity="0" result="BackgroundImageFix"/>
<feBlend mode="normal" in="SourceGraphic" in2="BackgroundImageFix" result="shape"/>
<feGaussianBlur stdDeviation="15" result="effect1_foregroundBlur_19_405"/>
</filter>
<filter id="filter34_f_19_405" x="36" y="405" width="72.5" height="72.5" filterUnits="userSpaceOnUse" color-interpolation-filters="sRGB">
<feFlood flood-opacity="0" result="BackgroundImageFix"/>
<feBlend mode="normal" in="SourceGraphic" in2="BackgroundImageFix" result="shape"/>
<feGaussianBlur stdDeviation="15" result="effect1_foregroundBlur_19_405"/>
</filter>
<filter id="filter35_f_19_405" x="140" y="396" width="90" height="90" filterUnits="userSpaceOnUse" color-interpolation-filters="sRGB">
<feFlood flood-opacity="0" result="BackgroundImageFix"/>
<feBlend mode="normal" in="SourceGraphic" in2="BackgroundImageFix" result="shape"/>
<feGaussianBlur stdDeviation="15" result="effect1_foregroundBlur_19_405"/>
</filter>
<filter id="filter36_f_19_405" x="149" y="405" width="72.5" height="72.5" filterUnits="userSpaceOnUse" color-interpolation-filters="sRGB">
<feFlood flood-opacity="0" result="BackgroundImageFix"/>
<feBlend mode="normal" in="SourceGraphic" in2="BackgroundImageFix" result="shape"/>
<feGaussianBlur stdDeviation="15" result="effect1_foregroundBlur_19_405"/>
</filter>
<filter id="filter37_f_19_405" x="241" y="396" width="90" height="90" filterUnits="userSpaceOnUse" color-interpolation-filters="sRGB">
<feFlood flood-opacity="0" result="BackgroundImageFix"/>
<feBlend mode="normal" in="SourceGraphic" in2="BackgroundImageFix" result="shape"/>
<feGaussianBlur stdDeviation="15" result="effect1_foregroundBlur_19_405"/>
</filter>
<filter id="filter38_f_19_405" x="250" y="405" width="72.5" height="72.5" filterUnits="userSpaceOnUse" color-interpolation-filters="sRGB">
<feFlood flood-opacity="0" result="BackgroundImageFix"/>
<feBlend mode="normal" in="SourceGraphic" in2="BackgroundImageFix" result="shape"/>
<feGaussianBlur stdDeviation="15" result="effect1_foregroundBlur_19_405"/>
</filter>
<filter id="filter39_f_19_405" x="191" y="396" width="90" height="90" filterUnits="userSpaceOnUse" color-interpolation-filters="sRGB">
<feFlood flood-opacity="0" result="BackgroundImageFix"/>
<feBlend mode="normal" in="SourceGraphic" in2="BackgroundImageFix" result="shape"/>
<feGaussianBlur stdDeviation="15" result="effect1_foregroundBlur_19_405"/>
</filter>
<filter id="filter40_f_19_405" x="200" y="405" width="72.5" height="72.5" filterUnits="userSpaceOnUse" color-interpolation-filters="sRGB">
<feFlood flood-opacity="0" result="BackgroundImageFix"/>
<feBlend mode="normal" in="SourceGraphic" in2="BackgroundImageFix" result="shape"/>
<feGaussianBlur stdDeviation="15" result="effect1_foregroundBlur_19_405"/>
</filter>
<filter id="filter41_f_19_405" x="292" y="396" width="90" height="90" filterUnits="userSpaceOnUse" color-interpolation-filters="sRGB">
<feFlood flood-opacity="0" result="BackgroundImageFix"/>
<feBlend mode="normal" in="SourceGraphic" in2="BackgroundImageFix" result="shape"/>
<feGaussianBlur stdDeviation="15" result="effect1_foregroundBlur_19_405"/>
</filter>
<filter id="filter42_f_19_405" x="301" y="405" width="72.5" height="72.5" filterUnits="userSpaceOnUse" color-interpolation-filters="sRGB">
<feFlood flood-opacity="0" result="BackgroundImageFix"/>
<feBlend mode="normal" in="SourceGraphic" in2="BackgroundImageFix" result="shape"/>
<feGaussianBlur stdDeviation="15" result="effect1_foregroundBlur_19_405"/>
</filter>
<filter id="filter43_f_19_405" x="446" y="396" width="90" height="90" filterUnits="userSpaceOnUse" color-interpolation-filters="sRGB">
<feFlood flood-opacity="0" result="BackgroundImageFix"/>
<feBlend mode="normal" in="SourceGraphic" in2="BackgroundImageFix" result="shape"/>
<feGaussianBlur stdDeviation="15" result="effect1_foregroundBlur_19_405"/>
</filter>
<filter id="filter44_f_19_405" x="455" y="405" width="72.5" height="72.5" filterUnits="userSpaceOnUse" color-interpolation-filters="sRGB">
<feFlood flood-opacity="0" result="BackgroundImageFix"/>
<feBlend mode="normal" in="SourceGraphic" in2="BackgroundImageFix" result="shape"/>
<feGaussianBlur stdDeviation="15" result="effect1_foregroundBlur_19_405"/>
</filter>
<filter id="filter45_f_19_405" x="497" y="396" width="90" height="90" filterUnits="userSpaceOnUse" color-interpolation-filters="sRGB">
<feFlood flood-opacity="0" result="BackgroundImageFix"/>
<feBlend mode="normal" in="SourceGraphic" in2="BackgroundImageFix" result="shape"/>
<feGaussianBlur stdDeviation="15" result="effect1_foregroundBlur_19_405"/>
</filter>
<filter id="filter46_f_19_405" x="506" y="405" width="72.5" height="72.5" filterUnits="userSpaceOnUse" color-interpolation-filters="sRGB">
<feFlood flood-opacity="0" result="BackgroundImageFix"/>
<feBlend mode="normal" in="SourceGraphic" in2="BackgroundImageFix" result="shape"/>
<feGaussianBlur stdDeviation="15" result="effect1_foregroundBlur_19_405"/>
</filter>
<filter id="filter47_f_19_405" x="394" y="396" width="90" height="90" filterUnits="userSpaceOnUse" color-interpolation-filters="sRGB">
<feFlood flood-opacity="0" result="BackgroundImageFix"/>
<feBlend mode="normal" in="SourceGraphic" in2="BackgroundImageFix" result="shape"/>
<feGaussianBlur stdDeviation="15" result="effect1_foregroundBlur_19_405"/>
</filter>
<filter id="filter48_f_19_405" x="403" y="405" width="72.5" height="72.5" filterUnits="userSpaceOnUse" color-interpolation-filters="sRGB">
<feFlood flood-opacity="0" result="BackgroundImageFix"/>
<feBlend mode="normal" in="SourceGraphic" in2="BackgroundImageFix" result="shape"/>
<feGaussianBlur stdDeviation="15" result="effect1_foregroundBlur_19_405"/>
</filter>
<filter id="filter49_f_19_405" x="344" y="396" width="90" height="90" filterUnits="userSpaceOnUse" color-interpolation-filters="sRGB">
<feFlood flood-opacity="0" result="BackgroundImageFix"/>
<feBlend mode="normal" in="SourceGraphic" in2="BackgroundImageFix" result="shape"/>
<feGaussianBlur stdDeviation="15" result="effect1_foregroundBlur_19_405"/>
</filter>
<filter id="filter50_f_19_405" x="353" y="405" width="72.5" height="72.5" filterUnits="userSpaceOnUse" color-interpolation-filters="sRGB">
<feFlood flood-opacity="0" result="BackgroundImageFix"/>
<feBlend mode="normal" in="SourceGraphic" in2="BackgroundImageFix" result="shape"/>
<feGaussianBlur stdDeviation="15" result="effect1_foregroundBlur_19_405"/>
</filter>
<filter id="filter51_f_19_405" x="548" y="396" width="90" height="90" filterUnits="userSpaceOnUse" color-interpolation-filters="sRGB">
<feFlood flood-opacity="0" result="BackgroundImageFix"/>
<feBlend mode="normal" in="SourceGraphic" in2="BackgroundImageFix" result="shape"/>
<feGaussianBlur stdDeviation="15" result="effect1_foregroundBlur_19_405"/>
</filter>
<filter id="filter52_f_19_405" x="557" y="405" width="72.5" height="72.5" filterUnits="userSpaceOnUse" color-interpolation-filters="sRGB">
<feFlood flood-opacity="0" result="BackgroundImageFix"/>
<feBlend mode="normal" in="SourceGraphic" in2="BackgroundImageFix" result="shape"/>
<feGaussianBlur stdDeviation="15" result="effect1_foregroundBlur_19_405"/>
</filter>
<filter id="filter53_f_19_405" x="27" y="343" width="90" height="90" filterUnits="userSpaceOnUse" color-interpolation-filters="sRGB">
<feFlood flood-opacity="0" result="BackgroundImageFix"/>
<feBlend mode="normal" in="SourceGraphic" in2="BackgroundImageFix" result="shape"/>
<feGaussianBlur stdDeviation="15" result="effect1_foregroundBlur_19_405"/>
</filter>
<filter id="filter54_f_19_405" x="36" y="351.5" width="72.5" height="72.5" filterUnits="userSpaceOnUse" color-interpolation-filters="sRGB">
<feFlood flood-opacity="0" result="BackgroundImageFix"/>
<feBlend mode="normal" in="SourceGraphic" in2="BackgroundImageFix" result="shape"/>
<feGaussianBlur stdDeviation="15" result="effect1_foregroundBlur_19_405"/>
</filter>
<filter id="filter55_f_19_405" x="27" y="292" width="90" height="90" filterUnits="userSpaceOnUse" color-interpolation-filters="sRGB">
<feFlood flood-opacity="0" result="BackgroundImageFix"/>
<feBlend mode="normal" in="SourceGraphic" in2="BackgroundImageFix" result="shape"/>
<feGaussianBlur stdDeviation="15" result="effect1_foregroundBlur_19_405"/>
</filter>
<filter id="filter56_f_19_405" x="36" y="300.5" width="72.5" height="72.5" filterUnits="userSpaceOnUse" color-interpolation-filters="sRGB">
<feFlood flood-opacity="0" result="BackgroundImageFix"/>
<feBlend mode="normal" in="SourceGraphic" in2="BackgroundImageFix" result="shape"/>
<feGaussianBlur stdDeviation="15" result="effect1_foregroundBlur_19_405"/>
</filter>
<filter id="filter57_f_19_405" x="27" y="138" width="90" height="90" filterUnits="userSpaceOnUse" color-interpolation-filters="sRGB">
<feFlood flood-opacity="0" result="BackgroundImageFix"/>
<feBlend mode="normal" in="SourceGraphic" in2="BackgroundImageFix" result="shape"/>
<feGaussianBlur stdDeviation="15" result="effect1_foregroundBlur_19_405"/>
</filter>
<filter id="filter58_f_19_405" x="36" y="146.5" width="72.5" height="72.5" filterUnits="userSpaceOnUse" color-interpolation-filters="sRGB">
<feFlood flood-opacity="0" result="BackgroundImageFix"/>
<feBlend mode="normal" in="SourceGraphic" in2="BackgroundImageFix" result="shape"/>
<feGaussianBlur stdDeviation="15" result="effect1_foregroundBlur_19_405"/>
</filter>
<filter id="filter59_f_19_405" x="27" y="87" width="90" height="90" filterUnits="userSpaceOnUse" color-interpolation-filters="sRGB">
<feFlood flood-opacity="0" result="BackgroundImageFix"/>
<feBlend mode="normal" in="SourceGraphic" in2="BackgroundImageFix" result="shape"/>
<feGaussianBlur stdDeviation="15" result="effect1_foregroundBlur_19_405"/>
</filter>
<filter id="filter60_f_19_405" x="36" y="95.4999" width="72.5" height="72.5" filterUnits="userSpaceOnUse" color-interpolation-filters="sRGB">
<feFlood flood-opacity="0" result="BackgroundImageFix"/>
<feBlend mode="normal" in="SourceGraphic" in2="BackgroundImageFix" result="shape"/>
<feGaussianBlur stdDeviation="15" result="effect1_foregroundBlur_19_405"/>
</filter>
<filter id="filter61_f_19_405" x="27" y="190" width="90" height="90" filterUnits="userSpaceOnUse" color-interpolation-filters="sRGB">
<feFlood flood-opacity="0" result="BackgroundImageFix"/>
<feBlend mode="normal" in="SourceGraphic" in2="BackgroundImageFix" result="shape"/>
<feGaussianBlur stdDeviation="15" result="effect1_foregroundBlur_19_405"/>
</filter>
<filter id="filter62_f_19_405" x="36" y="198.5" width="72.5" height="72.5" filterUnits="userSpaceOnUse" color-interpolation-filters="sRGB">
<feFlood flood-opacity="0" result="BackgroundImageFix"/>
<feBlend mode="normal" in="SourceGraphic" in2="BackgroundImageFix" result="shape"/>
<feGaussianBlur stdDeviation="15" result="effect1_foregroundBlur_19_405"/>
</filter>
<filter id="filter63_f_19_405" x="27" y="240" width="90" height="90" filterUnits="userSpaceOnUse" color-interpolation-filters="sRGB">
<feFlood flood-opacity="0" result="BackgroundImageFix"/>
<feBlend mode="normal" in="SourceGraphic" in2="BackgroundImageFix" result="shape"/>
<feGaussianBlur stdDeviation="15" result="effect1_foregroundBlur_19_405"/>
</filter>
<filter id="filter64_f_19_405" x="36" y="248.5" width="72.5" height="72.5" filterUnits="userSpaceOnUse" color-interpolation-filters="sRGB">
<feFlood flood-opacity="0" result="BackgroundImageFix"/>
<feBlend mode="normal" in="SourceGraphic" in2="BackgroundImageFix" result="shape"/>
<feGaussianBlur stdDeviation="15" result="effect1_foregroundBlur_19_405"/>
</filter>
<filter id="filter65_f_19_405" x="548" y="343" width="90" height="90" filterUnits="userSpaceOnUse" color-interpolation-filters="sRGB">
<feFlood flood-opacity="0" result="BackgroundImageFix"/>
<feBlend mode="normal" in="SourceGraphic" in2="BackgroundImageFix" result="shape"/>
<feGaussianBlur stdDeviation="15" result="effect1_foregroundBlur_19_405"/>
</filter>
<filter id="filter66_f_19_405" x="557" y="351.5" width="72.5" height="72.5" filterUnits="userSpaceOnUse" color-interpolation-filters="sRGB">
<feFlood flood-opacity="0" result="BackgroundImageFix"/>
<feBlend mode="normal" in="SourceGraphic" in2="BackgroundImageFix" result="shape"/>
<feGaussianBlur stdDeviation="15" result="effect1_foregroundBlur_19_405"/>
</filter>
<filter id="filter67_f_19_405" x="548" y="292" width="90" height="90" filterUnits="userSpaceOnUse" color-interpolation-filters="sRGB">
<feFlood flood-opacity="0" result="BackgroundImageFix"/>
<feBlend mode="normal" in="SourceGraphic" in2="BackgroundImageFix" result="shape"/>
<feGaussianBlur stdDeviation="15" result="effect1_foregroundBlur_19_405"/>
</filter>
<filter id="filter68_f_19_405" x="557" y="300.5" width="72.5" height="72.5" filterUnits="userSpaceOnUse" color-interpolation-filters="sRGB">
<feFlood flood-opacity="0" result="BackgroundImageFix"/>
<feBlend mode="normal" in="SourceGraphic" in2="BackgroundImageFix" result="shape"/>
<feGaussianBlur stdDeviation="15" result="effect1_foregroundBlur_19_405"/>
</filter>
<filter id="filter69_f_19_405" x="548" y="138" width="90" height="90" filterUnits="userSpaceOnUse" color-interpolation-filters="sRGB">
<feFlood flood-opacity="0" result="BackgroundImageFix"/>
<feBlend mode="normal" in="SourceGraphic" in2="BackgroundImageFix" result="shape"/>
<feGaussianBlur stdDeviation="15" result="effect1_foregroundBlur_19_405"/>
</filter>
<filter id="filter70_f_19_405" x="557" y="146.5" width="72.5" height="72.5" filterUnits="userSpaceOnUse" color-interpolation-filters="sRGB">
<feFlood flood-opacity="0" result="BackgroundImageFix"/>
<feBlend mode="normal" in="SourceGraphic" in2="BackgroundImageFix" result="shape"/>
<feGaussianBlur stdDeviation="15" result="effect1_foregroundBlur_19_405"/>
</filter>
<filter id="filter71_f_19_405" x="548" y="87" width="90" height="90" filterUnits="userSpaceOnUse" color-interpolation-filters="sRGB">
<feFlood flood-opacity="0" result="BackgroundImageFix"/>
<feBlend mode="normal" in="SourceGraphic" in2="BackgroundImageFix" result="shape"/>
<feGaussianBlur stdDeviation="15" result="effect1_foregroundBlur_19_405"/>
</filter>
<filter id="filter72_f_19_405" x="557" y="95.4999" width="72.5" height="72.5" filterUnits="userSpaceOnUse" color-interpolation-filters="sRGB">
<feFlood flood-opacity="0" result="BackgroundImageFix"/>
<feBlend mode="normal" in="SourceGraphic" in2="BackgroundImageFix" result="shape"/>
<feGaussianBlur stdDeviation="15" result="effect1_foregroundBlur_19_405"/>
</filter>
<filter id="filter73_f_19_405" x="548" y="190" width="90" height="90" filterUnits="userSpaceOnUse" color-interpolation-filters="sRGB">
<feFlood flood-opacity="0" result="BackgroundImageFix"/>
<feBlend mode="normal" in="SourceGraphic" in2="BackgroundImageFix" result="shape"/>
<feGaussianBlur stdDeviation="15" result="effect1_foregroundBlur_19_405"/>
</filter>
<filter id="filter74_f_19_405" x="557" y="198.5" width="72.5" height="72.5" filterUnits="userSpaceOnUse" color-interpolation-filters="sRGB">
<feFlood flood-opacity="0" result="BackgroundImageFix"/>
<feBlend mode="normal" in="SourceGraphic" in2="BackgroundImageFix" result="shape"/>
<feGaussianBlur stdDeviation="15" result="effect1_foregroundBlur_19_405"/>
</filter>
<filter id="filter75_f_19_405" x="548" y="240" width="90" height="90" filterUnits="userSpaceOnUse" color-interpolation-filters="sRGB">
<feFlood flood-opacity="0" result="BackgroundImageFix"/>
<feBlend mode="normal" in="SourceGraphic" in2="BackgroundImageFix" result="shape"/>
<feGaussianBlur stdDeviation="15" result="effect1_foregroundBlur_19_405"/>
</filter>
<filter id="filter76_f_19_405" x="557" y="248.5" width="72.5" height="72.5" filterUnits="userSpaceOnUse" color-interpolation-filters="sRGB">
<feFlood flood-opacity="0" result="BackgroundImageFix"/>
<feBlend mode="normal" in="SourceGraphic" in2="BackgroundImageFix" result="shape"/>
<feGaussianBlur stdDeviation="15" result="effect1_foregroundBlur_19_405"/>
</filter>
</defs>
</svg>
