<svg width="255" height="511" viewBox="0 0 255 511" fill="none" xmlns="http://www.w3.org/2000/svg">
<path d="M194.682 275.049C197.882 258.649 193.348 255.549 190.682 256.049C186.015 260.549 171.482 268.449 150.682 264.049C152.016 267.049 153.882 273.249 150.682 280.049C155.349 285.216 163.557 305.049 160.182 329.049C156.582 354.649 137.016 383.383 127.682 394.549C123.182 401.883 109.582 417.549 91.1823 421.549C72.7823 425.549 67.1826 411.549 66.6827 404.049C66.6827 397.049 68.2827 379.949 74.6823 367.549C81.0819 355.149 97.3491 348.383 104.683 346.549C99.1827 349.049 85.1325 369.303 95.1827 378.549C107.683 390.049 113.292 376.97 124.683 359.549C138.413 338.549 134.183 318.549 124.683 307.049C119.183 297.549 88.6827 298.649 66.6827 327.049C44.6827 355.449 39.6824 374.549 37.1826 383.049C30.6823 399.549 36.9457 453.066 80.1823 450.049C121.682 447.154 125.392 430.848 145.682 402.549C164.682 376.049 162.682 378.549 170.182 359.549C177.681 340.549 189.848 297.383 194.682 275.049Z" fill="#F9E7E7"/>
<path d="M172.499 2.35036C202.899 9.55035 220.5 13 232 21.5C249.456 34.4024 275.399 71.7306 222.999 253.85C219.666 268.684 210.3 308.05 199.5 346.85C188.7 385.65 172.333 420.684 165.5 433.35C146 474.35 114 493.85 92.5005 502.85C71.4458 511.664 49.5692 511.828 43 508.35C24.8333 503.684 1.00003 479.337 1 415.35C0.999988 390.35 15.3551 361.184 21.1885 346.85C29.6885 326.35 60 283.15 94 274.35C128 265.55 144.167 275.684 148 281.85C152.667 287.017 161.1 303.75 157.5 329.35C153.9 354.95 134.333 383.684 125 394.85C120.5 402.184 106.9 417.85 88.5 421.85C70.1 425.85 64.5003 411.85 64.0005 404.35C64.0005 397.35 65.6004 380.25 72 367.85C78.3996 355.45 94.6668 348.684 102 346.85C96.5005 349.35 82.4502 369.604 92.5005 378.85C105 390.35 110.61 377.272 122 359.85C135.731 338.85 131.5 318.85 122 307.35C116.5 297.85 86.0005 298.95 64.0005 327.35C42.0005 355.75 37.0001 374.85 34.5003 383.35C28 399.85 32.2633 450.367 75.4998 447.35C118.5 444.35 122.71 431.149 143 402.85C162 376.35 160 378.85 167.499 359.85C173.42 344.852 187.166 297.684 191.999 275.35C195.199 258.95 190.666 255.85 187.999 256.35C167.999 269.95 141.999 264.85 129.499 261.35C116.999 257.85 91.0993 250.55 73.4993 227.35C51.4993 198.35 43.4993 163.85 40.9993 154.85C38.4993 145.85 35.9993 117.85 36.9993 101.85C37.9993 85.8504 40.25 72.4412 51 54.8504C62 36.8504 76.5 23.3504 103.499 9.85036C123.147 0.0260792 157.166 -0.149645 172.499 2.35036Z" fill="black" stroke="black"/>
<path d="M177.499 33.0062C205.099 32.6062 216.332 51.5063 218.499 61.0063C219.42 75.3396 221.11 106.806 220.499 118.006C220.499 148.506 207.999 190.006 194.999 217.006C183.798 241.006 155.332 245.006 142.499 244.006C130.833 242.34 113.399 235.406 102.999 217.006C92.5993 198.606 89 164.067 89 150.006C88.9999 112.006 92.0002 92.5062 113.5 68.5062C122.666 57.1729 149.899 33.4062 177.499 33.0062Z" fill="#F9E7E7"/>
<path d="M137 243C135 242 128.734 195.997 128.734 179.546C123.5 173.503 119.508 161.249 118.166 155.877C116.153 149.33 113.737 131.402 120.179 112.063C126.62 92.7251 141.651 83.1903 148.361 80.8401C155.406 69.7609 186.608 33.5015 191.64 34.0051C195.666 34.408 200.027 37.1946 201.705 38.5376C198.182 42.5664 181.575 83.8617 183.085 85.3725C184.293 86.5812 187.95 89.2335 189.627 90.4086C201.705 101.689 202.711 122.303 201.705 131.2C201.369 137.915 198.887 155.272 191.64 170.985C184.393 186.697 167.149 193.311 159.432 194.654C155 200.5 149 243.5 147.5 244C146 244.5 139 244 137 243Z" fill="#3237B5"/>
<ellipse cx="80" cy="61.5" rx="17" ry="17.5" fill="#F0CF20"/>
<circle cx="114.5" cy="33.5" r="13.5" fill="#F0CF20"/>
<circle cx="67" cy="98" r="13" fill="#F0CF20"/>
<ellipse cx="158.664" cy="135.876" rx="36.6126" ry="50.9007" transform="rotate(8.10271 158.664 135.876)" fill="black"/>
<ellipse cx="159" cy="135" rx="21.4419" ry="25.6367" transform="rotate(11.1641 159 135)" fill="#F0CF20"/>
</svg>
