<svg width="307" height="464" viewBox="0 0 307 464" fill="none" xmlns="http://www.w3.org/2000/svg">
<g filter="url(#filter0_f_44_190)">
<path d="M171.267 243.318L163.231 210.125C162.797 219.452 161.331 244.26 158.936 268.878C156.542 293.496 150.38 316.43 147.598 324.819C140.176 351.696 122.902 366.902 110.859 374.638C99.065 382.214 85.8514 384.646 81.5074 383.243C70.0224 382.358 53.0115 370.175 46.1877 331.476C43.5216 316.355 49.0933 297.184 51.0927 287.893C54.0474 274.589 67.773 245.228 87.3979 236.28C107.023 227.332 117.881 231.737 120.857 235.058C124.231 237.685 131.116 246.906 131.668 262.773C132.221 278.64 123.451 298.104 118.997 305.853C117.058 310.768 110.503 321.694 99.8013 326.076C89.0995 330.457 84.2198 322.587 83.1177 318.104C82.3712 313.871 81.5152 303.358 84.0633 295.176C86.6115 286.994 95.7283 281.166 99.9683 279.275C96.9084 281.374 90.5707 295.122 97.6352 299.642C106.422 305.265 108.419 296.756 113.451 285.005C119.516 270.84 114.824 259.195 107.852 253.253C103.512 248.094 85.1832 252.012 74.9061 271.534C64.6291 291.057 63.6417 303.142 63.0363 308.549C60.8645 319.222 68.8302 349.32 94.6582 342.884C120.345 336.484 121.483 328.051 130.737 308.772C139.402 290.719 138.459 292.444 140.969 280.153C142.95 270.45 146.234 240.457 146.775 226.434C146.961 216.174 143.889 214.783 142.33 215.369C131.684 225.728 115.415 225.416 107.482 224.632C99.5484 223.848 83.1054 222.195 69.9867 210.041C53.5884 194.848 45.0707 174.835 42.5989 169.658C40.1271 164.482 35.6291 147.814 34.5276 138.03C33.4261 128.247 33.3574 119.897 37.983 108.111C42.7163 96.0517 50.0463 86.3405 64.9359 75.2963C75.7714 67.2592 96.3274 63.5251 105.868 63.4019C125.022 64.5145 135.767 77.3578 139.626 83.3292C155.601 74.8998 183.012 74.7436 192.386 78.3914C201.76 82.0393 222.57 93.9601 229.238 110.557C234.573 123.835 234.979 143.116 234.515 151.097C239.092 154.655 250.317 163.963 258.597 172.73C266.878 181.497 278.463 202.279 281.609 214.82C284.755 227.361 289.132 248.29 284.804 264.769C279.394 285.366 264.61 297.015 255.893 304.165C247.176 311.314 222.166 314.477 210.568 315.899C201.29 317.036 191.12 312.884 187.195 310.666L185.329 300.082L197.408 296.081L193.513 289.908L183.409 289.195L181.81 280.123L191.487 278.417L187.237 266.694L177.685 265.572L176.032 256.197L182.987 254.971L178.827 241.985L171.267 243.318Z" fill="#751323" fill-opacity="0.5"/>
<path d="M146.339 226.853C146.525 216.593 143.453 215.202 141.894 215.789C139.551 219.008 131.604 225.336 118.555 224.893C119.681 226.565 121.471 230.116 120.261 234.57C123.635 237.197 130.714 248.317 131.232 263.192C131.785 279.059 123.015 298.524 118.561 306.273C116.622 311.188 110.067 322.113 99.3654 326.495C88.6635 330.876 83.7838 323.006 82.6817 318.524C81.9352 314.29 81.0792 303.777 83.6273 295.595C86.1755 287.413 95.2923 281.586 99.5323 279.695C96.4724 281.793 90.1347 295.541 97.1992 300.062C105.986 305.684 107.983 297.176 113.015 285.424C119.08 271.259 114.388 259.614 107.416 253.672C103.076 248.513 84.7472 252.431 74.4701 271.954C64.1931 291.476 63.2057 303.561 62.6003 308.969C60.4285 319.641 69.9238 351.34 95.7518 344.905C120.542 338.728 121.047 328.471 130.301 309.192C138.966 291.138 138.023 292.863 140.533 280.572C143.042 268.281 145.798 240.876 146.339 226.853Z" fill="#F9E7E7" fill-opacity="0.5"/>
<path d="M226.9 173.33C221.12 185.824 203.582 199.06 195.535 204.117L200.29 291.207C225.15 297.799 245.084 260.547 248.431 240.625C248.324 194.747 234.115 176.527 226.9 173.33Z" fill="#F9E7E7" fill-opacity="0.5"/>
<path d="M188.434 103.721L175.502 102.883L175.394 112.88L188.984 113.913L189.961 126.525L177.687 125.883L177.632 136.182L191.293 139.386L191.736 148.974L179.178 150.253L181.097 161.139L192.891 159.06L195.075 187.361C200.11 182.316 210.496 171.546 211.763 168.828C213.03 166.11 211.071 156.062 209.933 151.378L196.529 94.8102L187.76 91.0557L188.434 103.721Z" fill="#F9E7E7" fill-opacity="0.5"/>
<path d="M114.51 85.891C131.16 82.7057 139.969 92.9385 142.293 98.4531C144.379 107.024 148.757 125.875 149.581 132.714C152.834 151.16 149.7 177.593 144.717 195.309C140.502 211.019 123.712 216.473 115.844 217.237C108.61 217.473 97.3267 215.139 89.0745 205.12C80.8223 195.101 74.9621 174.595 73.4626 166.091C69.4101 143.108 69.1451 130.995 79.5886 114.187C83.924 106.355 97.8597 89.0762 114.51 85.891Z" fill="#F9E7E7" fill-opacity="0.5"/>
<path d="M213.954 273.208L208.956 273.154C207.623 265.594 209.368 247.201 213.444 229.645C215.708 218.716 218.196 208.852 222.271 201.897L224.299 202.787L226.077 204.032L228.265 205.829L229.848 207.733C222.607 216.181 215.7 254.815 213.954 273.208Z" fill="#E3181D" fill-opacity="0.5"/>
<path d="M112.41 217.215C111.094 216.824 102.398 189.669 100.644 179.719C96.8342 176.623 93.1127 169.637 91.7282 166.531C89.8126 162.786 86.4397 152.201 88.2733 139.818C90.1069 127.435 98.1805 120.065 101.988 117.928C105.068 110.476 120.072 85.2191 123.169 84.987C125.647 84.8013 128.582 86.0215 129.74 86.6549C128.039 89.4672 122.399 116.214 123.473 116.967C124.332 117.569 126.827 118.783 127.967 119.315C136.474 124.849 139.281 137.209 139.622 142.698C140.135 146.795 140.484 157.557 137.777 167.833C135.07 178.109 125.345 183.948 120.822 185.583C118.765 189.591 119.721 216.238 118.867 216.7C118.014 217.162 113.727 217.607 112.41 217.215Z" fill="#3237B5" fill-opacity="0.5"/>
<ellipse cx="58.5807" cy="113.522" rx="10.4403" ry="10.7474" transform="rotate(-10 58.5807 113.522)" fill="#F0CF20" fill-opacity="0.5"/>
<circle cx="76.4605" cy="92.908" r="8.29082" transform="rotate(-10 76.4605 92.908)" fill="#F0CF20" fill-opacity="0.5"/>
<circle cx="54.6108" cy="136.983" r="7.98376" transform="rotate(-10 54.6108 136.983)" fill="#F0CF20" fill-opacity="0.5"/>
<ellipse cx="114.089" cy="150.116" rx="22.4851" ry="31.2599" transform="rotate(-1.89729 114.089 150.116)" fill="#751323" fill-opacity="0.5"/>
<ellipse cx="114.199" cy="149.55" rx="13.1682" ry="15.7444" transform="rotate(1.16413 114.199 149.55)" fill="#F0CF20" fill-opacity="0.5"/>
<circle cx="165.388" cy="181.682" r="9.82616" transform="rotate(-10 165.388 181.682)" fill="#F0CF20" fill-opacity="0.5"/>
<circle cx="265.883" cy="228.194" r="10.4403" transform="rotate(-10 265.883 228.194)" fill="#F0CF20" fill-opacity="0.5"/>
<circle cx="262.534" cy="264.018" r="12.5898" transform="rotate(-10 262.534 264.018)" fill="#F0CF20" fill-opacity="0.5"/>
<circle cx="246.344" cy="287.14" r="9.82616" transform="rotate(-10 246.344 287.14)" fill="#F0CF20" fill-opacity="0.5"/>
</g>
<path d="M171.267 243.318L163.231 210.125C162.797 219.452 161.331 244.26 158.936 268.878C156.542 293.496 150.38 316.43 147.598 324.819C140.176 351.696 122.902 366.902 110.859 374.638C99.065 382.214 85.8514 384.646 81.5074 383.243C70.0224 382.358 53.0115 370.175 46.1877 331.476C43.5216 316.355 49.0933 297.184 51.0927 287.893C54.0474 274.589 67.773 245.228 87.3979 236.28C107.023 227.332 117.881 231.737 120.857 235.058C124.231 237.685 131.116 246.906 131.668 262.773C132.221 278.64 123.451 298.104 118.997 305.853C117.058 310.768 110.503 321.694 99.8013 326.076C89.0995 330.457 84.2198 322.587 83.1177 318.104C82.3712 313.871 81.5152 303.358 84.0633 295.176C86.6115 286.994 95.7283 281.166 99.9683 279.275C96.9084 281.374 90.5707 295.122 97.6352 299.642C106.422 305.265 108.419 296.756 113.451 285.005C119.516 270.84 114.824 259.195 107.852 253.253C103.512 248.094 85.1832 252.012 74.9061 271.534C64.6291 291.057 63.6417 303.142 63.0363 308.549C60.8645 319.222 68.8302 349.32 94.6582 342.884C120.345 336.484 121.483 328.051 130.737 308.772C139.402 290.719 138.459 292.444 140.969 280.153C142.95 270.45 146.234 240.457 146.775 226.434C146.961 216.174 143.889 214.783 142.33 215.369C131.684 225.728 115.415 225.416 107.482 224.632C99.5484 223.848 83.1054 222.195 69.9867 210.041C53.5884 194.848 45.0707 174.835 42.5989 169.658C40.1271 164.482 35.6291 147.814 34.5276 138.03C33.4261 128.247 33.3574 119.897 37.983 108.111C42.7163 96.0517 50.0463 86.3405 64.9359 75.2963C75.7714 67.2592 96.3274 63.5251 105.868 63.4019C125.022 64.5145 135.767 77.3578 139.626 83.3292C155.601 74.8998 183.012 74.7436 192.386 78.3914C201.76 82.0393 222.57 93.9601 229.238 110.557C234.573 123.835 234.979 143.116 234.515 151.097C239.092 154.655 250.317 163.963 258.597 172.73C266.878 181.497 278.463 202.279 281.609 214.82C284.755 227.361 289.132 248.29 284.804 264.769C279.394 285.366 264.61 297.015 255.893 304.165C247.176 311.314 222.166 314.477 210.568 315.899C201.29 317.036 191.12 312.884 187.195 310.666L185.329 300.082L197.408 296.081L193.513 289.908L183.409 289.195L181.81 280.123L191.487 278.417L187.237 266.694L177.685 265.572L176.032 256.197L182.987 254.971L178.827 241.985L171.267 243.318Z" fill="black" fill-opacity="0.5"/>
<path d="M146.339 226.853C146.525 216.593 143.453 215.202 141.894 215.789C139.551 219.008 131.604 225.336 118.555 224.893C119.681 226.565 121.471 230.116 120.261 234.57C123.635 237.197 130.714 248.317 131.232 263.192C131.785 279.059 123.015 298.524 118.561 306.273C116.622 311.188 110.067 322.113 99.3654 326.495C88.6635 330.876 83.7838 323.006 82.6817 318.524C81.9352 314.29 81.0792 303.777 83.6273 295.595C86.1755 287.413 95.2923 281.586 99.5323 279.695C96.4724 281.793 90.1347 295.541 97.1992 300.062C105.986 305.684 107.983 297.176 113.015 285.424C119.08 271.259 114.388 259.614 107.416 253.672C103.076 248.513 84.7472 252.431 74.4701 271.954C64.1931 291.476 63.2057 303.561 62.6003 308.969C60.4285 319.641 69.9238 351.34 95.7518 344.905C120.542 338.728 121.047 328.471 130.301 309.192C138.966 291.138 138.023 292.863 140.533 280.572C143.042 268.281 145.798 240.876 146.339 226.853Z" fill="#F9E7E7" fill-opacity="0.5"/>
<path d="M226.9 173.33C221.12 185.824 203.582 199.06 195.535 204.117L200.29 291.207C225.15 297.799 245.084 260.547 248.431 240.625C248.324 194.747 234.115 176.527 226.9 173.33Z" fill="#F9E7E7" fill-opacity="0.5"/>
<path d="M188.434 103.721L175.502 102.883L175.394 112.88L188.984 113.913L189.961 126.525L177.687 125.883L177.632 136.182L191.293 139.386L191.736 148.974L179.178 150.253L181.097 161.139L192.891 159.06L195.075 187.361C200.11 182.316 210.496 171.546 211.763 168.828C213.03 166.11 211.071 156.062 209.933 151.378L196.529 94.8102L187.76 91.0557L188.434 103.721Z" fill="#F9E7E7" fill-opacity="0.5"/>
<path d="M114.51 85.891C131.16 82.7057 139.969 92.9385 142.293 98.4531C144.379 107.024 148.757 125.875 149.581 132.714C152.834 151.16 149.7 177.593 144.717 195.309C140.502 211.019 123.712 216.473 115.844 217.237C108.61 217.473 97.3267 215.139 89.0745 205.12C80.8223 195.101 74.9621 174.595 73.4626 166.091C69.4101 143.108 69.1451 130.995 79.5886 114.187C83.924 106.355 97.8597 89.0762 114.51 85.891Z" fill="#F9E7E7" fill-opacity="0.5"/>
<path d="M213.954 273.208L208.956 273.154C207.623 265.594 209.368 247.201 213.444 229.645C215.708 218.716 218.196 208.852 222.271 201.897L224.299 202.787L226.077 204.032L228.265 205.829L229.848 207.733C222.607 216.181 215.7 254.815 213.954 273.208Z" fill="#E3181D" fill-opacity="0.5"/>
<path d="M112.41 217.215C111.094 216.824 102.398 189.669 100.644 179.719C96.8342 176.623 93.1127 169.637 91.7282 166.531C89.8126 162.786 86.4397 152.201 88.2733 139.818C90.1069 127.435 98.1805 120.065 101.988 117.928C105.068 110.476 120.072 85.2191 123.169 84.987C125.647 84.8013 128.582 86.0215 129.74 86.6549C128.039 89.4672 122.399 116.214 123.473 116.967C124.332 117.569 126.827 118.783 127.967 119.315C136.474 124.849 139.281 137.209 139.622 142.698C140.135 146.795 140.484 157.557 137.777 167.833C135.07 178.109 125.345 183.948 120.822 185.583C118.765 189.591 119.721 216.238 118.867 216.7C118.014 217.162 113.727 217.607 112.41 217.215Z" fill="#3237B5" fill-opacity="0.5"/>
<ellipse cx="58.5807" cy="113.522" rx="10.4403" ry="10.7474" transform="rotate(-10 58.5807 113.522)" fill="#F0CF20" fill-opacity="0.5"/>
<circle cx="76.4605" cy="92.908" r="8.29082" transform="rotate(-10 76.4605 92.908)" fill="#F0CF20" fill-opacity="0.5"/>
<circle cx="54.6108" cy="136.983" r="7.98376" transform="rotate(-10 54.6108 136.983)" fill="#F0CF20" fill-opacity="0.5"/>
<ellipse cx="114.089" cy="150.116" rx="22.4851" ry="31.2599" transform="rotate(-1.89729 114.089 150.116)" fill="black" fill-opacity="0.5"/>
<ellipse cx="114.199" cy="149.55" rx="13.1682" ry="15.7444" transform="rotate(1.16413 114.199 149.55)" fill="#F0CF20" fill-opacity="0.5"/>
<circle cx="165.388" cy="181.682" r="9.82616" transform="rotate(-10 165.388 181.682)" fill="#F0CF20" fill-opacity="0.5"/>
<circle cx="265.883" cy="228.194" r="10.4403" transform="rotate(-10 265.883 228.194)" fill="#F0CF20" fill-opacity="0.5"/>
<circle cx="262.534" cy="264.018" r="12.5898" transform="rotate(-10 262.534 264.018)" fill="#F0CF20" fill-opacity="0.5"/>
<circle cx="246.344" cy="287.14" r="9.82616" transform="rotate(-10 246.344 287.14)" fill="#F0CF20" fill-opacity="0.5"/>
<defs>
<filter id="filter0_f_44_190" x="-46.0941" y="-16.5981" width="412.711" height="480.219" filterUnits="userSpaceOnUse" color-interpolation-filters="sRGB">
<feFlood flood-opacity="0" result="BackgroundImageFix"/>
<feBlend mode="normal" in="SourceGraphic" in2="BackgroundImageFix" result="shape"/>
<feGaussianBlur stdDeviation="40" result="effect1_foregroundBlur_44_190"/>
</filter>
</defs>
</svg>
