<svg width="413" height="510" viewBox="0 0 413 510" fill="none" xmlns="http://www.w3.org/2000/svg">
<path d="M226.311 308.35L222.811 252.85C219.478 267.684 210.112 307.05 199.312 345.85C188.512 384.65 172.145 419.684 165.312 432.35C145.812 473.35 113.812 492.85 92.312 501.85C71.2574 510.664 49.3807 510.828 42.8115 507.35C24.6449 502.684 0.811554 478.337 0.811523 414.35C0.811512 389.35 15.1666 360.184 21 345.85C29.5 325.35 59.8115 282.15 93.8115 273.35C127.812 264.55 143.978 274.684 147.812 280.85C152.478 286.017 160.912 302.75 157.312 328.35C153.712 353.95 134.145 382.684 124.812 393.85C120.312 401.184 106.712 416.85 88.3115 420.85C69.9115 424.85 64.3118 410.85 63.812 403.35C63.812 396.35 65.4119 379.25 71.8115 366.85C78.2111 354.45 94.4783 347.684 101.812 345.85C96.312 348.35 82.2617 368.604 92.312 377.85C104.812 389.35 110.421 376.272 121.812 358.85C135.543 337.85 131.312 317.85 121.812 306.35C116.312 296.85 85.812 297.95 63.812 326.35C41.812 354.75 36.8116 373.85 34.3118 382.35C27.8115 398.85 32.0748 449.367 75.3114 446.35C118.312 443.35 122.521 430.149 142.811 401.85C161.811 375.35 159.811 377.85 167.311 358.85C173.231 343.852 186.978 296.684 191.811 274.35C195.011 257.95 190.478 254.85 187.811 255.35C167.811 268.95 141.811 263.85 129.311 260.35C116.811 256.85 90.9108 249.55 73.3108 226.35C51.3108 197.35 43.3108 162.85 40.8108 153.85C38.3108 144.85 35.8108 116.85 36.8108 100.85C37.8108 84.8504 40.0616 71.4412 50.8115 53.8504C61.8115 35.8504 76.3115 22.3504 103.311 8.85036C122.959 -0.973921 156.978 -1.14964 172.311 1.35036C202.711 8.55035 216.31 32.1837 220.81 42.8504C248.811 33.8504 292.811 41.3504 306.811 49.8504C320.811 58.3504 350.811 83.3504 356.811 111.85C361.611 134.65 356.811 165.684 353.811 178.35C360.144 185.35 375.511 203.45 386.311 219.85C397.111 236.25 409.812 272.85 411.311 293.85C412.81 314.85 413.911 349.65 402.311 374.85C387.811 406.35 360.811 420.85 344.811 429.85C328.811 438.85 287.811 436.85 268.811 435.85C253.611 435.05 238.478 425.517 232.811 420.85V403.35L253.311 400.35L248.811 389.35L232.811 385.35V370.35H248.811L245.311 350.35L230.311 345.85V330.35H241.811L238.811 308.35H226.311Z" fill="black"/>
<path d="M190.993 274.9C194.193 258.5 189.66 255.4 186.993 255.9C182.327 260.4 167.793 268.3 146.994 263.9C148.327 266.9 150.194 273.1 146.994 279.9C151.66 285.066 159.869 304.9 156.494 328.9C152.894 354.5 133.327 383.233 123.994 394.4C119.494 401.733 105.894 417.4 87.4938 421.4C69.0938 425.4 63.4941 411.4 62.9943 403.9C62.9943 396.9 64.5942 379.8 70.9938 367.4C77.3934 355 93.6606 348.233 100.994 346.4C95.4943 348.899 81.444 369.153 91.4943 378.4C103.994 389.9 109.603 376.821 120.994 359.4C134.725 338.4 130.494 318.4 120.994 306.9C115.494 297.4 84.9943 298.5 62.9943 326.9C40.9943 355.3 35.9939 374.4 33.4941 382.9C26.9938 399.4 33.2572 452.916 76.4938 449.9C117.994 447.004 121.704 430.698 141.993 402.4C160.993 375.9 158.993 378.4 166.493 359.4C173.993 340.4 186.16 297.233 190.993 274.9Z" fill="#F9E7E7"/>
<path d="M335.311 211.85C322.511 230.25 290.645 246.517 276.312 252.35L259.312 393.35C297.312 410.95 339.811 356.85 350.811 325.85C363.611 252.25 345.978 219.017 335.311 211.85Z" fill="#F9E7E7"/>
<path d="M293.311 89.3503L272.812 84.3503L269.812 100.35L291.311 105.85L289.311 126.35L269.812 121.85L266.812 138.35L287.811 147.35L285.812 162.85L265.312 161.35V179.35H284.812L280.312 225.35C289.812 218.684 309.511 204.35 312.311 200.35C315.111 196.35 314.811 179.684 314.311 171.85L308.811 77.3503L295.811 68.8503L293.311 89.3503Z" fill="#F9E7E7"/>
<path d="M179.81 39.8566C207.41 39.4566 218.643 58.3566 220.81 67.8566C221.732 82.1899 223.422 113.657 222.811 124.857C222.811 155.357 210.311 196.857 197.311 223.857C186.11 247.857 157.644 251.857 144.811 250.857C133.144 249.19 115.711 242.257 105.311 223.857C94.9108 205.457 91.3115 170.917 91.3115 156.857C91.3115 118.857 94.3118 99.3566 115.811 75.3566C124.978 64.0232 152.21 40.2566 179.81 39.8566Z" fill="#F9E7E7"/>
<path d="M286.312 368.35L278.312 366.85C278.312 354.35 286.312 325.35 297.812 298.35C304.533 281.464 311.312 266.35 319.812 256.35L322.812 258.35L325.312 260.85L328.312 264.35L330.312 267.85C316.312 279.35 294.312 339.35 286.312 368.35Z" fill="#E3181D"/>
<path d="M139.312 249.85C137.312 248.85 131.045 202.848 131.045 186.397C125.812 180.353 121.819 168.099 120.477 162.727C118.464 156.18 116.049 138.252 122.49 118.914C128.932 99.5755 143.962 90.0407 150.672 87.6905C157.718 76.6113 188.919 40.3519 193.952 40.8555C197.978 41.2584 202.339 44.045 204.016 45.388C200.494 49.4168 183.887 90.7121 185.396 92.2229C186.604 93.4316 190.261 96.0839 191.939 97.259C204.016 108.54 205.023 129.154 204.016 138.051C203.681 144.765 201.198 162.123 193.952 177.835C186.705 193.548 169.46 200.162 161.744 201.505C157.312 207.35 151.312 250.35 149.812 250.85C148.312 251.35 141.312 250.85 139.312 249.85Z" fill="#3237B5"/>
<ellipse cx="82.3115" cy="68.3503" rx="17" ry="17.5" fill="#F0CF20"/>
<circle cx="116.812" cy="40.3503" r="13.5" fill="#F0CF20"/>
<circle cx="69.3115" cy="104.85" r="13" fill="#F0CF20"/>
<ellipse cx="160.975" cy="142.727" rx="36.6126" ry="50.9007" transform="rotate(8.10271 160.975 142.727)" fill="black"/>
<ellipse cx="161.311" cy="141.85" rx="21.4419" ry="25.6367" transform="rotate(11.1641 161.311 141.85)" fill="#F0CF20"/>
<circle cx="234.312" cy="207.85" r="16" fill="#F0CF20"/>
<circle cx="382.312" cy="310.85" r="17" fill="#F0CF20"/>
<circle cx="366.812" cy="367.35" r="20.5" fill="#F0CF20"/>
<circle cx="334.312" cy="399.85" r="16" fill="#F0CF20"/>
</svg>
