<svg width="650" height="139" viewBox="0 0 650 139" fill="none" xmlns="http://www.w3.org/2000/svg">
<path d="M27.0995 55.6381L144.524 79.8086H153.442L157.901 85.717C153.937 79.4506 146.753 65.3063 149.726 58.8608C153.442 50.804 159.387 48.6555 163.103 41.6729C166.819 34.6903 168.306 34.1531 163.103 31.4675C157.901 28.7819 179.454 38.4501 179.454 47.0441C179.454 55.6381 174.994 64.7692 179.454 72.2889C183.021 78.3047 197.786 81.5991 204.722 82.4943C212.402 81.241 231.18 80.9903 244.854 90.014H254.516C256.002 84.1057 261.056 72.2889 269.38 72.2889C277.703 72.2889 278.793 84.1057 278.298 90.014C281.766 81.5991 290.189 66.2732 296.135 72.2889C297.818 73.9919 298.434 76.6316 298.336 79.8086L312.485 72.2889L316.201 82.4943L300.594 109.888C289.297 119.341 286.473 117.407 286.473 115.259L264.177 127.613C249.066 129.403 216.019 132.447 204.722 130.298C190.601 127.613 145.267 115.259 137.835 115.259H15.9516C4.06054 103.442 -10.3574 74.9745 27.0995 55.6381Z" fill="#BFA987"/>
<path d="M508.687 117.944L593.411 145.875C629.084 156.617 671.892 124.605 629.084 95.3852L516.862 67.9919L499.769 29.3191L464.839 3C458.894 4.61137 451.462 13.8499 469.298 37.913C491.594 67.9919 441.057 43.8214 429.166 43.8214C419.653 43.8214 387.052 21.9784 371.94 11.0569C369.419 9.10443 363.55 9.44548 367.481 17.5023C359.306 13.2053 343.848 13.4202 356.333 29.3191C358.646 32.2638 361.079 35.1435 363.55 37.913C358.402 34.9046 354.847 33.4012 350.388 34.6903C346.672 35.7645 346.555 38.6125 353.36 47.0441C357.303 51.9283 360.107 55.3389 362.192 57.7866C360.934 56.331 357.762 54.5252 356.333 53.8043C343.699 53.2672 351.874 62.0836 351.874 64.2321C351.874 65.9509 372.188 79.6296 382.345 86.2541C388.272 90.2698 437.341 110.962 469.298 110.962C493.824 110.962 500.002 117.202 508.687 117.944Z" fill="#BFA987"/>
<path d="M254.516 90.014H244.854C231.18 80.9903 212.402 81.241 204.722 82.4943C197.786 81.5991 183.021 78.3047 179.454 72.2889C174.994 64.7692 179.454 55.6381 179.454 47.0441C179.454 38.4501 157.901 28.7819 163.103 31.4675C168.306 34.1531 166.819 34.6903 163.103 41.6729C159.387 48.6555 153.442 50.804 149.726 58.8608C146.753 65.3063 153.937 79.4506 157.901 85.717L153.442 79.8086H144.524L27.0995 55.6381C-10.3574 74.9745 4.06054 103.442 15.9516 115.259H163.103C152.203 115.259 131.889 115.259 137.835 115.259C145.267 115.259 190.601 127.613 204.722 130.298C216.019 132.447 249.066 129.403 264.177 127.613L286.473 115.259M254.516 90.014L248.57 103.979L209.181 100.756M254.516 90.014C256.002 84.1056 261.056 72.2889 269.38 72.2889C277.703 72.2889 278.793 84.1056 278.298 90.014M278.298 90.014L264.177 120.63H248.57M278.298 90.014C281.766 81.5991 290.189 66.2732 296.135 72.2889C297.818 73.9919 298.434 76.6316 298.336 79.8086M286.473 115.259C286.473 117.407 289.297 119.341 300.594 109.888L316.201 82.4943L312.485 72.2889L298.336 79.8086M286.473 115.259C289.348 107.78 298.003 90.66 298.336 79.8086M441.057 67.9919L391.263 49.1926L388.29 43.8214L371.94 29.3191C369.668 23.5708 368.085 20.4741 367.481 17.5023M367.481 17.5023C363.55 9.44548 369.419 9.10443 371.94 11.0569C387.052 21.9784 419.653 43.8214 429.166 43.8214C441.057 43.8214 491.594 67.9919 469.298 37.913C451.462 13.8499 458.894 4.61137 464.839 3L499.769 29.3191L516.863 67.9919L629.084 95.3852C671.892 124.605 629.084 156.617 593.411 145.875L508.687 117.944C500.002 117.202 493.824 110.962 469.298 110.962C437.341 110.962 388.272 90.2698 382.345 86.2541C372.188 79.6296 351.874 65.9509 351.874 64.2321C351.874 62.0836 343.699 53.2672 356.333 53.8043C357.762 54.5252 360.934 56.331 362.192 57.7866M367.481 17.5023C359.306 13.2053 343.848 13.4202 356.333 29.3191C358.646 32.2638 361.079 35.1435 363.55 37.913M429.166 79.8086L391.263 64.2321C386.015 60.1475 374.419 50.0961 363.55 37.913M363.55 37.913C358.402 34.9046 354.847 33.4012 350.388 34.6903C346.672 35.7645 346.555 38.6125 353.36 47.0441C357.303 51.9283 360.107 55.3389 362.192 57.7866M404.641 82.4943L372.683 67.4548C368.24 63.8417 368.363 65.0295 362.192 57.7866" stroke="#9A7451" stroke-width="5"/>
</svg>
