<svg width="211" height="220" viewBox="0 0 211 220" fill="none" xmlns="http://www.w3.org/2000/svg">
<path d="M49.6374 127.667V105.861L36.924 100.2L31.3619 101.878V124.941L34.3416 126.134V175.471L51.0279 220.549L63.344 224.952C76.3223 229.006 106.927 235.1 125.521 227.049C144.114 218.998 139.36 208.738 134.658 204.615L143.796 181.342L136 183L134.658 191.5L125.521 198L121 204.615L108 202.518L75.4615 211.534V202.518L51.0279 170.439L49.6374 127.667Z" fill="#173D75"/>
<path d="M49.6374 105.861L42.8834 107.119M49.6374 105.861V127.667M49.6374 105.861L36.924 100.2L31.3619 101.878M42.8834 107.119V129.554M42.8834 107.119L31.3619 101.878M42.8834 129.554L46.2604 128.61M42.8834 129.554L34.3416 126.134M49.6374 127.667L46.2604 128.61M49.6374 127.667L51.0279 170.439L75.4615 202.518V211.534M31.3619 101.878V124.941L34.3416 126.134M46.2604 128.61L45.0685 179.245L63.344 224.952M63.344 224.952L75.4615 220.549M63.344 224.952C76.3223 229.006 106.927 235.1 125.521 227.049C144.114 218.998 139.36 208.738 134.658 204.615M63.344 224.952C55.3982 223.64 40.8572 218.825 46.2604 210.066M63.344 224.952L51.0279 220.549L34.3416 175.471V126.134M75.4615 220.549L134.658 204.615M75.4615 220.549V211.534M134.658 204.615L143.796 181.342L136 183L134.658 191.5L125.521 198L121 204.615L108 202.518L75.4615 211.534" stroke="#173D75" stroke-width="3"/>
<path d="M64.3372 188.261L82.2504 197.039L121.419 205.026L132.473 183.019C129.883 183.418 122.483 183.473 113.602 180.503L82.2504 170.02L50.8292 152.408L50.8292 170.02L64.3372 188.261Z" fill="#173D75"/>
<path d="M82.2504 170.02L82.2504 197.039M82.2504 170.02L50.8292 152.408L50.8292 170.02L64.3372 188.261L82.2504 197.039M82.2504 170.02L113.602 180.503C122.483 183.473 129.883 183.418 132.473 183.019L121.419 205.026L82.2504 197.039" stroke="#173D75" stroke-width="3"/>
<path d="M36.8964 58.872C59.3621 31.5996 81.6026 33.0454 89.9146 37.1773L159 61.5C146.5 58.4445 116.8 61.1668 98 96.5C74.5 140.666 97 174 120.5 183L83 170L51 152.5L50 106.5L37 100L31 101.5L31 125L34.4538 126.5L34.4538 140.666C6.35978 109.437 25.977 75.1211 36.8964 58.872Z" fill="#115173" stroke="#115173" stroke-width="3"/>
<path d="M180.286 138.406C195.746 90.4394 173.505 67.2397 160.452 61.6357C145.174 57.9823 110.523 61.536 94.1423 104.979C77.7614 148.422 101.425 173.883 115.305 181.184C130.524 186.911 164.826 186.373 180.286 138.406Z" fill="#173D75" stroke="#115173" stroke-width="3"/>
</svg>
