<svg width="573" height="654" viewBox="0 0 573 654" fill="none" xmlns="http://www.w3.org/2000/svg">
<g filter="url(#filter0_f_59_4143)">
<path d="M304.51 373.099L291.425 319.05C290.719 334.237 288.331 374.632 284.432 414.717C280.534 454.803 270.499 492.147 265.969 505.807C253.885 549.571 225.758 574.331 206.148 586.928C186.943 599.264 165.427 603.224 158.354 600.94C139.653 599.499 111.954 579.66 100.843 516.646C96.5017 492.026 105.574 460.809 108.83 445.681C113.641 424.016 135.99 376.209 167.946 361.639C199.901 347.068 217.582 354.241 222.428 359.648C227.921 363.926 239.132 378.94 240.032 404.777C240.932 430.613 226.652 462.307 219.399 474.925C216.241 482.928 205.568 500.719 188.142 507.853C170.716 514.987 162.771 502.172 160.976 494.873C159.761 487.979 158.367 470.861 162.516 457.539C166.665 444.216 181.51 434.727 188.414 431.648C183.432 435.065 173.112 457.451 184.615 464.812C198.922 473.966 202.175 460.112 210.368 440.978C220.243 417.912 212.604 398.951 201.251 389.275C194.185 380.875 164.339 387.254 147.605 419.043C130.871 450.832 129.263 470.51 128.278 479.315C124.741 496.693 137.712 545.702 179.768 535.223C221.594 524.802 223.447 511.07 238.515 479.678C252.624 450.281 251.089 453.091 255.175 433.077C258.401 417.278 263.748 368.44 264.63 345.606C264.933 328.9 259.931 326.634 257.391 327.589C240.057 344.456 213.566 343.948 200.648 342.672C187.73 341.396 160.956 338.704 139.595 318.913C112.893 294.174 99.024 261.587 94.9992 253.158C90.9743 244.729 83.6501 217.588 81.8566 201.658C80.063 185.727 79.9511 172.131 87.4831 152.94C95.1904 133.304 107.126 117.491 131.371 99.5076C149.014 86.4207 182.486 80.3404 198.02 80.1398C229.209 81.9515 246.705 102.864 252.989 112.588C279.001 98.862 323.635 98.6076 338.898 104.547C354.162 110.487 388.047 129.898 398.905 156.923C407.591 178.543 408.253 209.939 407.498 222.934C414.951 228.728 433.227 243.884 446.711 258.16C460.195 272.435 479.058 306.274 484.181 326.694C489.304 347.115 496.431 381.195 489.383 408.026C480.573 441.566 456.502 460.534 442.307 472.176C428.113 483.817 387.389 488.967 368.504 491.282C353.396 493.133 336.837 486.373 330.446 482.761L327.408 465.527L347.075 459.013L340.733 448.961L324.282 447.8L321.677 433.028L337.434 430.25L330.514 411.161L314.961 409.334L312.269 394.07L323.595 392.073L316.82 370.928L304.51 373.099Z" fill="#751323"/>
<path d="M263.92 346.289C264.223 329.583 259.221 327.317 256.681 328.272C252.867 333.514 239.927 343.818 218.679 343.097C220.513 345.819 223.428 351.601 221.457 358.854C226.95 363.131 238.478 381.238 239.322 405.459C240.222 431.296 225.942 462.99 218.689 475.608C215.531 483.611 204.858 501.402 187.432 508.536C170.006 515.67 162.061 502.855 160.266 495.556C159.051 488.662 157.657 471.544 161.806 458.221C165.955 444.899 180.8 435.41 187.704 432.331C182.722 435.748 172.402 458.134 183.905 465.494C198.212 474.649 201.465 460.795 209.658 441.661C219.533 418.595 211.894 399.634 200.541 389.958C193.475 381.558 163.629 387.937 146.895 419.726C130.161 451.515 128.553 471.193 127.568 479.998C124.031 497.376 139.493 548.992 181.548 538.513C221.915 528.455 222.737 511.753 237.805 480.361C251.914 450.964 250.379 453.773 254.465 433.76C258.552 413.746 263.038 369.122 263.92 346.289Z" fill="#F9E7E7"/>
<path d="M395.097 259.137C385.687 279.48 357.129 301.033 344.026 309.267L351.769 451.077C392.248 461.811 424.708 401.153 430.158 368.714C429.983 294.009 406.846 264.343 395.097 259.137Z" fill="#F9E7E7"/>
<path d="M332.463 145.791L311.407 144.427L311.231 160.705L333.359 162.388L334.949 182.924L314.964 181.878L314.875 198.649L337.118 203.865L337.841 219.477L317.392 221.56L320.517 239.286L339.721 235.9L343.277 281.983C351.475 273.768 368.387 256.231 370.45 251.806C372.512 247.38 369.323 231.019 367.47 223.391L345.644 131.282L331.366 125.169L332.463 145.791Z" fill="#F9E7E7"/>
<path d="M212.092 116.759C239.203 111.572 253.548 128.234 257.331 137.214C260.728 151.169 267.856 181.865 269.2 193C274.496 223.037 269.392 266.077 261.278 294.924C254.415 320.505 227.076 329.387 214.264 330.631C202.485 331.015 184.113 327.215 170.676 310.9C157.239 294.586 147.696 261.196 145.255 247.349C138.656 209.926 138.225 190.202 155.23 162.833C162.289 150.08 184.981 121.945 212.092 116.759Z" fill="#F9E7E7"/>
<path d="M374.018 421.768L365.879 421.68C363.708 409.37 366.551 379.422 373.188 350.835C376.874 333.038 380.926 316.977 387.56 305.653L390.862 307.101L393.758 309.129L397.32 312.055L399.898 315.155C388.107 328.911 376.86 391.82 374.018 421.768Z" fill="#E3181D"/>
<path d="M208.674 330.595C206.53 329.957 192.371 285.741 189.515 269.54C183.311 264.498 177.251 253.123 174.997 248.066C171.877 241.968 166.385 224.732 169.371 204.568C172.357 184.405 185.503 172.405 191.703 168.926C196.717 156.791 221.148 115.665 226.192 115.287C230.227 114.985 235.006 116.971 236.891 118.003C234.121 122.582 224.937 166.134 226.687 167.36C228.086 168.34 232.148 170.317 234.004 171.183C247.857 180.195 252.428 200.321 252.982 209.258C253.817 215.929 254.386 233.454 249.978 250.186C245.57 266.918 229.736 276.426 222.37 279.088C219.02 285.615 220.578 329.003 219.188 329.756C217.797 330.509 210.817 331.232 208.674 330.595Z" fill="#3237B5"/>
<ellipse cx="121.023" cy="161.75" rx="17" ry="17.5" transform="rotate(-10 121.023 161.75)" fill="#F0CF20"/>
<circle cx="150.136" cy="128.185" r="13.5" transform="rotate(-10 150.136 128.185)" fill="#F0CF20"/>
<circle cx="114.558" cy="199.953" r="13" transform="rotate(-10 114.558 199.953)" fill="#F0CF20"/>
<ellipse cx="211.406" cy="221.337" rx="36.6126" ry="50.9007" transform="rotate(-1.89729 211.406 221.337)" fill="#751323"/>
<ellipse cx="211.585" cy="220.415" rx="21.4419" ry="25.6367" transform="rotate(1.16413 211.585 220.415)" fill="#F0CF20"/>
<circle cx="294.937" cy="272.736" r="16" transform="rotate(-10 294.937 272.736)" fill="#F0CF20"/>
<circle cx="458.574" cy="348.472" r="17" transform="rotate(-10 458.574 348.472)" fill="#F0CF20"/>
<circle cx="453.121" cy="406.805" r="20.5" transform="rotate(-10 453.121 406.805)" fill="#F0CF20"/>
<circle cx="426.758" cy="444.455" r="16" transform="rotate(-10 426.758 444.455)" fill="#F0CF20"/>
</g>
<path d="M304.51 373.099L291.425 319.05C290.719 334.237 288.331 374.632 284.432 414.717C280.534 454.803 270.499 492.147 265.969 505.807C253.885 549.571 225.758 574.331 206.148 586.928C186.943 599.264 165.427 603.224 158.354 600.94C139.653 599.499 111.954 579.66 100.843 516.646C96.5017 492.026 105.574 460.809 108.83 445.681C113.641 424.016 135.99 376.209 167.946 361.639C199.901 347.068 217.582 354.241 222.428 359.648C227.921 363.926 239.132 378.94 240.032 404.777C240.932 430.613 226.652 462.307 219.399 474.925C216.241 482.928 205.568 500.719 188.142 507.853C170.716 514.987 162.771 502.172 160.976 494.873C159.761 487.979 158.367 470.861 162.516 457.539C166.665 444.216 181.51 434.727 188.414 431.648C183.432 435.065 173.112 457.451 184.615 464.812C198.922 473.966 202.175 460.112 210.368 440.978C220.243 417.912 212.604 398.951 201.251 389.275C194.185 380.875 164.339 387.254 147.605 419.043C130.871 450.832 129.263 470.51 128.278 479.315C124.741 496.693 137.712 545.702 179.768 535.223C221.594 524.802 223.447 511.07 238.515 479.678C252.624 450.281 251.089 453.091 255.175 433.077C258.401 417.278 263.748 368.44 264.63 345.606C264.933 328.9 259.931 326.634 257.391 327.589C240.057 344.456 213.566 343.948 200.648 342.672C187.73 341.396 160.956 338.704 139.595 318.913C112.893 294.174 99.024 261.587 94.9992 253.158C90.9743 244.729 83.6501 217.588 81.8566 201.658C80.063 185.727 79.9511 172.131 87.4831 152.94C95.1904 133.304 107.126 117.491 131.371 99.5076C149.014 86.4207 182.486 80.3404 198.02 80.1398C229.209 81.9515 246.705 102.864 252.989 112.588C279.001 98.862 323.635 98.6076 338.898 104.547C354.162 110.487 388.047 129.898 398.905 156.923C407.591 178.543 408.253 209.939 407.498 222.934C414.951 228.728 433.227 243.884 446.711 258.16C460.195 272.435 479.058 306.274 484.181 326.694C489.304 347.115 496.431 381.195 489.383 408.026C480.573 441.566 456.502 460.534 442.307 472.176C428.113 483.817 387.389 488.967 368.504 491.282C353.396 493.133 336.837 486.373 330.446 482.761L327.408 465.527L347.075 459.013L340.733 448.961L324.282 447.8L321.677 433.028L337.434 430.25L330.514 411.161L314.961 409.334L312.269 394.07L323.595 392.073L316.82 370.928L304.51 373.099Z" fill="black"/>
<path d="M263.92 346.289C264.223 329.583 259.221 327.317 256.681 328.272C252.867 333.514 239.927 343.818 218.679 343.097C220.513 345.819 223.428 351.601 221.457 358.854C226.95 363.131 238.478 381.238 239.322 405.459C240.222 431.296 225.942 462.99 218.689 475.608C215.531 483.611 204.858 501.402 187.432 508.536C170.006 515.67 162.061 502.855 160.266 495.556C159.051 488.662 157.657 471.544 161.806 458.221C165.955 444.899 180.8 435.41 187.704 432.331C182.722 435.748 172.402 458.134 183.905 465.494C198.212 474.649 201.465 460.795 209.658 441.661C219.533 418.595 211.894 399.634 200.541 389.958C193.475 381.558 163.629 387.937 146.895 419.726C130.161 451.515 128.553 471.193 127.568 479.998C124.031 497.376 139.493 548.992 181.548 538.513C221.915 528.455 222.737 511.753 237.805 480.361C251.914 450.964 250.379 453.773 254.465 433.76C258.552 413.746 263.038 369.122 263.92 346.289Z" fill="#F9E7E7"/>
<path d="M395.097 259.137C385.687 279.48 357.129 301.033 344.026 309.267L351.769 451.077C392.248 461.811 424.708 401.153 430.158 368.714C429.983 294.009 406.846 264.343 395.097 259.137Z" fill="#F9E7E7"/>
<path d="M332.463 145.791L311.407 144.427L311.231 160.705L333.359 162.388L334.949 182.924L314.964 181.878L314.875 198.649L337.118 203.865L337.841 219.477L317.392 221.56L320.517 239.286L339.721 235.9L343.277 281.983C351.475 273.768 368.387 256.231 370.45 251.806C372.512 247.38 369.323 231.019 367.47 223.391L345.644 131.282L331.366 125.169L332.463 145.791Z" fill="#F9E7E7"/>
<path d="M212.092 116.759C239.203 111.572 253.548 128.234 257.331 137.214C260.728 151.169 267.856 181.865 269.2 193C274.496 223.037 269.392 266.077 261.278 294.924C254.415 320.505 227.076 329.387 214.264 330.631C202.485 331.015 184.113 327.215 170.676 310.9C157.239 294.586 147.696 261.196 145.255 247.349C138.656 209.926 138.225 190.202 155.23 162.833C162.289 150.08 184.981 121.945 212.092 116.759Z" fill="#F9E7E7"/>
<path d="M374.018 421.768L365.879 421.68C363.708 409.37 366.551 379.422 373.188 350.835C376.874 333.038 380.926 316.977 387.56 305.653L390.862 307.101L393.758 309.129L397.32 312.055L399.898 315.155C388.107 328.911 376.86 391.82 374.018 421.768Z" fill="#E3181D"/>
<path d="M208.674 330.595C206.53 329.957 192.371 285.741 189.515 269.54C183.311 264.498 177.251 253.123 174.997 248.066C171.877 241.968 166.385 224.732 169.371 204.568C172.357 184.405 185.503 172.405 191.703 168.926C196.717 156.791 221.148 115.665 226.192 115.287C230.227 114.985 235.006 116.971 236.891 118.003C234.121 122.582 224.937 166.134 226.687 167.36C228.086 168.34 232.148 170.317 234.004 171.183C247.857 180.195 252.428 200.321 252.982 209.258C253.817 215.929 254.386 233.454 249.978 250.186C245.57 266.918 229.736 276.426 222.37 279.088C219.02 285.615 220.578 329.003 219.188 329.756C217.797 330.509 210.817 331.232 208.674 330.595Z" fill="#3237B5"/>
<ellipse cx="121.023" cy="161.75" rx="17" ry="17.5" transform="rotate(-10 121.023 161.75)" fill="#F0CF20"/>
<circle cx="150.136" cy="128.185" r="13.5" transform="rotate(-10 150.136 128.185)" fill="#F0CF20"/>
<circle cx="114.558" cy="199.953" r="13" transform="rotate(-10 114.558 199.953)" fill="#F0CF20"/>
<ellipse cx="211.406" cy="221.337" rx="36.6126" ry="50.9007" transform="rotate(-1.89729 211.406 221.337)" fill="black"/>
<ellipse cx="211.585" cy="220.415" rx="21.4419" ry="25.6367" transform="rotate(1.16413 211.585 220.415)" fill="#F0CF20"/>
<circle cx="294.937" cy="272.736" r="16" transform="rotate(-10 294.937 272.736)" fill="#F0CF20"/>
<circle cx="458.574" cy="348.472" r="17" transform="rotate(-10 458.574 348.472)" fill="#F0CF20"/>
<circle cx="453.121" cy="406.805" r="20.5" transform="rotate(-10 453.121 406.805)" fill="#F0CF20"/>
<circle cx="426.758" cy="444.455" r="16" transform="rotate(-10 426.758 444.455)" fill="#F0CF20"/>
<defs>
<filter id="filter0_f_59_4143" x="0.84436" y="0.139801" width="571.492" height="681.414" filterUnits="userSpaceOnUse" color-interpolation-filters="sRGB">
<feFlood flood-opacity="0" result="BackgroundImageFix"/>
<feBlend mode="normal" in="SourceGraphic" in2="BackgroundImageFix" result="shape"/>
<feGaussianBlur stdDeviation="40" result="effect1_foregroundBlur_59_4143"/>
</filter>
</defs>
</svg>
