<?xml version="1.0" encoding="utf-8"?>
<!-- Generator: Adobe Illustrator 25.2.1, SVG Export Plug-In . SVG Version: 6.00 Build 0)  -->
<svg version="1.1" xmlns="http://www.w3.org/2000/svg" xmlns:xlink="http://www.w3.org/1999/xlink" x="0px" y="0px"
	 viewBox="0 0 360 432" style="enable-background:new 0 0 360 432;" xml:space="preserve">
<style type="text/css">
	.st0{display:none;}
	.st1{display:inline;fill:#D3D12F;}
	.st2{font-family:'Jokerman-Regular';}
	.st3{font-size:507.5668px;}
	.st4{display:inline;fill:#751323;}
	.st5{fill:none;stroke:#1D1D1B;stroke-miterlimit:10;}
	.st6{display:inline;fill:none;stroke:#1D1D1B;stroke-miterlimit:10;}
	.st7{display:none;fill:none;stroke:#1D1D1B;stroke-miterlimit:10;}
</style>
<g id="G_1_" class="st0">
	<text transform="matrix(1 0 0 1 -21.8496 435.4111)" class="st1 st2 st3">G</text>
	<text transform="matrix(1 0 0 1 -5.77 432)" class="st4 st2 st3">G</text>
</g>
<g id="Camada_3" class="st0">
	<path class="st5" d="M186.67,187.14l-2.73,39.98l90.46,22.1l-106.07,10.93l6.94,36.28l113.63-10.16c0,0-10.35,113.73-79.95,116.61
		s-90.72-48-90.72-48s-45.12-66.24,4.8-179.04S260.8,74.08,260.8,74.08s24.22,1.16,38.27,16.9l16.85-4.34
		c0,0-35.76-82.69-135.92-76.43S40,108.16,40,108.16s-26.44,51.36-20.9,124.32s51.22,125.63,51.22,125.63s27.28,43.33,87.28,63.49
		s109.32-6,109.32-6s52.56-22.32,77.04-103.68c0,0,16.35-62.96,12.85-86.74L186.67,187.14z"/>
	<text transform="matrix(1 0 0 1 -21.8713 435.4109)" class="st6 st2 st3">G</text>
	<text transform="matrix(1 0 0 1 -5.7917 431.9998)" class="st6 st2 st3">G</text>
</g>
<g id="Camada_4">
	<text transform="matrix(1 0 0 1 -21.1415 435.4106)" class="st7 st2 st3">G</text>
	<text transform="matrix(1 0 0 1 -5.0619 431.9995)" class="st5 st2 st3">G</text>
	<path class="st5" d="M168.86,261.76l-16.54,1.92l6.96,36l113.76-9.6c0,0-3.96,40.92-14.04,60.72
		c-10.08,19.8-17.4,36.36-46.32,51.84"/>
	<path class="st5" d="M252.88,250.72c-84.6-20.16-84.6-20.16-84.6-20.16l2.16-39.96l15.48,3.24"/>
	<path class="st5" d="M297.88,89.8l-14.76,5.04c0,0-15.12-22.32-60.12-16.56"/>
	<path class="st5" d="M139.84,96.28c0,0,6.12,0.62,5.4-18.95c0,0-0.15-11-14.12-11.51"/>
	<path class="st5" d="M81.88,96.28c0,0,34.92,15.84,8.28,41.4"/>
	<path class="st5" d="M58.48,160.72c0,0,9.36,0.72,11.52,10.44c0,0,5.04,13.68-5.76,20.52"/>
	<path class="st5" d="M138.21,18.88c0,0-52.37-2.16-104.21,77.4S13.12,283.12,13.12,283.12s20.16,59.04,45.36,84.24
		c0,0,30,42.99,93.84,61.09c0,0,54.48,8.53,63.12,0"/>
</g>
</svg>
