<?xml version="1.0" encoding="utf-8"?>
<!-- Generator: Adobe Illustrator 25.2.1, SVG Export Plug-In . SVG Version: 6.00 Build 0)  -->
<svg version="1.1" xmlns="http://www.w3.org/2000/svg" xmlns:xlink="http://www.w3.org/1999/xlink" x="0px" y="0px"
	 viewBox="0 0 360 432" style="enable-background:new 0 0 360 432;" xml:space="preserve">
<style type="text/css">
	.st0{display:none;}
	.st1{display:inline;fill:#D3D12F;}
	.st2{font-family:'Jokerman-Regular';}
	.st3{font-size:507.5668px;}
	.st4{display:inline;fill:#751323;}
	.st5{fill:none;stroke:#1D1D1B;stroke-miterlimit:10;}
	.st6{display:inline;fill:none;stroke:#1D1D1B;stroke-miterlimit:10;}
</style>
<g id="G_1_" class="st0">
	<text transform="matrix(1 0 0 1 -21.8496 435.4111)" class="st1 st2 st3">G</text>
	<text transform="matrix(1 0 0 1 -5.77 432)" class="st4 st2 st3">G</text>
</g>
<g id="Camada_3" class="st0">
	<path class="st5" d="M186.67,187.14l-2.73,39.98l90.46,22.1l-106.07,10.93l6.94,36.28l113.63-10.16c0,0-10.35,113.73-79.95,116.61
		s-90.72-48-90.72-48s-45.12-66.24,4.8-179.04S260.8,74.08,260.8,74.08s24.22,1.16,38.27,16.9l16.85-4.34
		c0,0-35.76-82.69-135.92-76.43S40,108.16,40,108.16s-26.44,51.36-20.9,124.32s51.22,125.63,51.22,125.63s27.28,43.33,87.28,63.49
		s109.32-6,109.32-6s52.56-22.32,77.04-103.68c0,0,16.35-62.96,12.85-86.74L186.67,187.14z"/>
	<text transform="matrix(1 0 0 1 -21.8713 435.4109)" class="st6 st2 st3">G</text>
	<text transform="matrix(1 0 0 1 -5.7917 431.9998)" class="st6 st2 st3">G</text>
</g>
<g id="Camada_4" class="st0">
	<text transform="matrix(1 0 0 1 -21.1415 435.4106)" class="st6 st2 st3">G</text>
	<text transform="matrix(1 0 0 1 -5.0619 431.9995)" class="st6 st2 st3">G</text>
</g>
<g id="Camada_5">
	<g>
		<path class="st5" d="M168.86,261.76l-16.54,1.92l6.96,36l113.76-9.6c0,0-3.96,40.92-14.04,60.72
			c-10.08,19.8-17.4,36.36-46.32,51.84"/>
		<path class="st5" d="M252.88,250.72c-84.6-20.16-84.6-20.16-84.6-20.16l2.16-39.96l15.48,3.24"/>
		<path class="st5" d="M223,78.28c45-5.76,60.12,16.56,60.12,16.56l14.76-5.04"/>
		<path class="st5" d="M139.84,96.28c0,0,6.12,0.62,5.4-18.95c0,0-0.15-11-14.12-11.51"/>
		<path class="st5" d="M90.16,137.68c26.64-25.56-8.28-41.4-8.28-41.4"/>
		<path class="st5" d="M58.48,160.72c0,0,9.36,0.72,11.52,10.44c0,0,5.04,13.68-5.76,20.52"/>
		<path class="st5" d="M138.21,18.88c0,0-52.37-2.16-104.21,77.4S13.12,283.12,13.12,283.12s20.16,59.04,45.36,84.24
			c0,0,30,42.99,93.84,61.09c0,0,54.48,8.53,63.12,0"/>
		<path class="st5" d="M315.92,86.64l-16.85,4.34c0,0-24.59-29.11-85.79-9.93s-97.92,113.87-97.92,113.87s-28.32,72.55-9.48,133.11
			s64.2,70.65,64.2,70.65s19.08,7.92,47.16,3.96c28.08-3.96,46.8-35.64,46.8-35.64s23.81-39.06,24.87-80.73l-113.63,10.16
			l-6.94-36.28l106.07-10.93l-90.46-22.1l2.73-39.98l170.14,38.04l-1.69,29.86c0,0-2.5,30.6-14.57,64.8
			c-12.07,34.2-26.47,54.36-33.67,62.64c-7.2,8.28-13.68,18-35.64,29.88c-21.96,11.88-33.12,13.83-54,16.09s-54-4.93-54-4.93
			s-27.72-4.32-51.12-23.76s-59.76-55.08-75.96-100.08c-16.2-45-17.06-70.56-17.06-70.56s-2.38-29.88,4.82-70.56
			s28.8-72.47,28.8-72.47s19.44-34.57,60.72-56.17c41.28-21.6,74.33-19.7,74.33-19.7s41.59-2.38,72.67,17.3
			C291.52,47.2,307.68,70.88,315.92,86.64z"/>
		<path class="st5" d="M143.55,61.36c0,0-17.08-2.49-17.6,17.6s24.45,17.32,24.45,17.32s9.03-2.37,11-17.32
			S143.55,61.36,143.55,61.36z"/>
		<path class="st5" d="M92.99,93.33c-2.38,0.02-7.95,0.4-13.16,4.24c-9.75,7.17-9.19,19.77-9.13,20.83
			c0.17,1.53,1.34,10.75,9.44,16.42c8.19,5.73,17.27,3.39,20.04,2.86C128.8,132.16,115.26,90.03,92.99,93.33z"/>
		<path class="st5" d="M69.7,157.27c0,0-16.07-2.56-17.84,17.84c0,0-0.94,14.81,17.84,17.84c0,0,12.57,2.55,17.6-17.84
			C87.29,175.12,89.31,156.95,69.7,157.27z"/>
	</g>
</g>
</svg>
