<svg width="1080" height="1080" viewBox="0 0 1080 1080" fill="none" xmlns="http://www.w3.org/2000/svg">
<g clip-path="url(#clip0_1214_2865)">
<path d="M1080 0H0V1080H1080V0Z" fill="#F5F5F4"/>
<path d="M1080 730.08C1016.56 676.8 953.113 623.34 868.828 598.68C784.696 574.02 679.724 578.16 640.493 516.24C601.262 454.32 627.927 326.52 608.464 229.32C589.156 132.3 523.72 66.24 458.438 0H1080V730.08Z" fill="#F0CF20"/>
<path d="M1080 547.56C1032.34 507.6 984.835 467.46 921.698 448.92C858.561 430.56 779.793 433.62 750.37 387.18C720.946 340.74 740.868 244.8 726.463 172.08C711.905 99.18 662.867 49.68 613.828 0H1080V547.56Z" fill="#B8522E"/>
<path d="M1080 365.04C1048.28 338.4 1016.56 311.58 974.414 299.34C932.272 287.1 879.862 289.08 860.246 258.12C840.631 227.16 853.963 163.26 844.309 114.66C834.654 66.24 801.86 33.12 769.219 0H1080V365.04Z" fill="#6C162B"/>
<path d="M1080 182.52C1064.06 169.2 1048.28 155.88 1027.28 149.58C1006.14 143.46 979.931 144.54 970.123 129.06C960.315 113.58 966.905 81.54 962.154 57.42C957.251 33.12 941.007 16.56 924.609 0H1080V182.52Z" fill="#430220"/>
<path d="M0 349.92C64.4487 410.4 128.897 470.88 193.199 509.58C257.353 548.46 321.361 565.38 385.956 607.86C450.699 650.16 516.178 717.66 551.345 800.64C586.66 883.44 591.81 981.72 596.812 1080H0V349.92Z" fill="#F0CF20"/>
<path d="M0 532.44C48.4101 577.8 96.673 623.16 144.789 652.14C193.052 681.3 241.02 694.08 289.578 725.76C337.988 757.62 387.134 808.2 413.619 870.48C439.958 932.58 443.784 1006.38 447.609 1080H0V532.44Z" fill="#B8522E"/>
<path d="M0 714.96C32.2243 745.2 64.4487 775.44 96.5259 794.88C128.603 814.14 160.68 822.78 193.052 843.84C225.423 865.08 258.089 898.92 275.746 940.32C293.403 981.72 295.905 1030.86 298.406 1080H0V714.96Z" fill="#6C162B"/>
<path d="M0 897.48C16.1857 912.6 32.2243 927.72 48.2629 937.44C64.3015 947.16 80.3401 951.3 96.5259 961.92C112.712 972.54 129.045 989.46 137.873 1010.16C146.702 1030.86 147.879 1055.52 149.203 1080H0V897.48Z" fill="#430220"/>
<g filter="url(#filter0_f_1214_2865)">
<path d="M585.279 617.122L564.71 532.155C563.599 556.029 559.845 619.531 553.717 682.547C547.589 745.563 531.814 804.268 524.693 825.743C505.696 894.54 461.479 933.464 430.651 953.267C400.461 972.659 366.638 978.885 355.519 975.294C326.12 973.029 282.576 941.842 265.109 842.782C258.285 804.078 272.547 755.005 277.665 731.223C285.228 697.165 320.362 622.011 370.597 599.106C420.831 576.201 448.626 587.476 456.244 595.976C464.879 602.701 482.503 626.305 483.918 666.92C485.333 707.535 462.884 757.36 451.483 777.195C446.518 789.777 429.74 817.744 402.346 828.959C374.952 840.174 362.462 820.029 359.64 808.554C357.73 797.717 355.538 770.807 362.061 749.863C368.584 728.919 391.921 714.003 402.774 709.163C394.941 714.534 378.718 749.726 396.802 761.297C419.293 775.688 424.406 753.909 437.285 723.829C452.81 687.57 440.8 657.762 422.954 642.551C411.846 629.345 364.928 639.374 338.621 689.347C312.314 739.32 309.787 770.255 308.237 784.096C302.678 811.415 323.068 888.458 389.181 871.985C454.933 855.603 457.847 834.016 481.533 784.667C503.714 738.454 501.3 742.871 507.724 711.409C512.795 686.573 521.201 609.797 522.587 573.902C523.064 547.639 515.2 544.078 511.208 545.58C483.957 572.094 442.313 571.296 422.006 569.29C401.699 567.283 359.609 563.052 326.029 531.94C284.053 493.049 262.25 441.822 255.923 428.571C249.596 415.32 238.082 372.654 235.262 347.611C232.443 322.568 232.267 301.194 244.107 271.026C256.223 240.157 274.986 215.299 313.1 187.029C340.836 166.456 393.454 156.897 417.875 156.582C466.904 159.43 494.409 192.305 504.287 207.591C545.18 186.014 615.345 185.614 639.339 194.951C663.334 204.289 716.603 234.803 733.671 277.287C747.326 311.275 748.367 360.629 747.18 381.058C758.896 390.166 787.627 413.993 808.823 436.434C830.02 458.875 859.674 512.07 867.728 544.172C875.781 576.274 886.985 629.849 875.906 672.029C862.056 724.754 824.215 754.572 801.901 772.873C779.588 791.174 715.568 799.27 685.88 802.908C662.13 805.819 636.099 795.191 626.052 789.513L621.275 762.421L652.193 752.18L642.224 736.379L616.362 734.554L612.267 711.332L637.037 706.964L626.159 676.957L601.709 674.085L597.477 650.089L615.281 646.949L604.631 613.709L585.279 617.122Z" fill="#751323"/>
<path d="M521.471 574.976C521.948 548.713 514.084 545.151 510.092 546.653C504.096 554.894 483.753 571.092 450.351 569.958C453.234 574.238 457.816 583.327 454.718 594.728C463.354 601.453 481.475 629.917 482.802 667.994C484.217 708.609 461.768 758.434 450.367 778.269C445.403 790.851 428.624 818.817 401.23 830.033C373.836 841.248 361.346 821.103 358.524 809.628C356.614 798.791 354.423 771.881 360.945 750.937C367.468 729.993 390.805 715.077 401.658 710.237C393.825 715.608 377.602 750.8 395.686 762.371C418.177 776.762 423.29 754.983 436.169 724.903C451.694 688.644 439.685 658.836 421.838 643.625C410.73 630.419 363.812 640.448 337.505 690.421C311.198 740.394 308.671 771.328 307.121 785.17C301.562 812.489 325.868 893.63 391.981 877.158C455.438 861.347 456.731 835.09 480.417 785.741C502.598 739.528 500.184 743.945 506.608 712.483C513.032 681.021 520.085 610.871 521.471 574.976Z" fill="#F9E7E7"/>
<path d="M727.686 437.971C712.893 469.951 667.999 503.833 647.402 516.777L659.573 739.706C723.207 756.58 774.235 661.224 782.802 610.228C782.527 492.791 746.156 446.154 727.686 437.971Z" fill="#F9E7E7"/>
<path d="M629.223 259.788L596.122 257.643L595.845 283.233L630.631 285.878L633.131 318.161L601.714 316.518L601.574 342.881L636.541 351.082L637.676 375.624L605.53 378.898L610.444 406.764L640.632 401.441L646.223 473.884C659.11 460.97 685.696 433.402 688.939 426.445C692.182 419.489 687.167 393.768 684.255 381.777L649.944 236.979L627.497 227.369L629.223 259.788Z" fill="#F9E7E7"/>
<path d="M439.997 214.148C482.616 205.995 505.167 232.188 511.114 246.304C516.454 268.243 527.66 316.496 529.772 334.002C538.097 381.221 530.074 448.881 517.319 494.23C506.529 534.443 463.552 548.406 443.411 550.361C424.895 550.966 396.013 544.991 374.889 519.344C353.766 493.697 338.765 441.208 334.927 419.44C324.553 360.61 323.875 329.602 350.608 286.578C361.705 266.53 397.377 222.302 439.997 214.148Z" fill="#F9E7E7"/>
<path d="M694.547 693.631L681.752 693.493C678.34 674.141 682.809 627.061 693.242 582.122C699.037 554.145 705.406 528.896 715.836 511.094L721.026 513.372L725.579 516.559L731.179 521.159L735.231 526.032C716.696 547.657 699.016 646.551 694.547 693.631Z" fill="#E3181D"/>
<path d="M434.622 550.304C431.253 549.302 408.995 479.794 404.504 454.325C394.751 446.398 385.225 428.516 381.681 420.567C376.778 410.981 368.144 383.884 372.838 352.188C377.531 320.491 398.198 301.626 407.944 296.156C415.827 277.081 454.233 212.429 462.162 211.834C468.505 211.359 476.017 214.483 478.981 216.104C474.627 223.303 460.19 291.767 462.939 293.694C465.139 295.236 471.525 298.343 474.442 299.705C496.22 313.872 503.406 345.511 504.276 359.559C505.59 370.046 506.484 397.596 499.554 423.899C492.625 450.202 467.733 465.149 456.153 469.335C450.887 479.595 453.337 547.803 451.151 548.986C448.965 550.17 437.992 551.307 434.622 550.304Z" fill="#3237B5"/>
<ellipse cx="296.832" cy="284.876" rx="26.7245" ry="27.5105" transform="rotate(-10 296.832 284.876)" fill="#F0CF20"/>
<circle cx="342.601" cy="232.11" r="21.2224" transform="rotate(-10 342.601 232.11)" fill="#F0CF20"/>
<circle cx="286.671" cy="344.932" r="20.4364" transform="rotate(-10 286.671 344.932)" fill="#F0CF20"/>
<ellipse cx="438.918" cy="378.548" rx="57.556" ry="80.0173" transform="rotate(-1.89729 438.918 378.548)" fill="#751323"/>
<ellipse cx="439.2" cy="377.099" rx="33.7073" ry="40.3017" transform="rotate(1.16413 439.2 377.099)" fill="#F0CF20"/>
<circle cx="570.232" cy="459.349" r="25.1524" transform="rotate(-10 570.232 459.349)" fill="#F0CF20"/>
<circle cx="827.473" cy="578.407" r="26.7245" transform="rotate(-10 827.473 578.407)" fill="#F0CF20"/>
<circle cx="818.901" cy="670.109" r="32.2266" transform="rotate(-10 818.901 670.109)" fill="#F0CF20"/>
<circle cx="777.458" cy="729.295" r="25.1524" transform="rotate(-10 777.458 729.295)" fill="#F0CF20"/>
</g>
<path d="M585.279 617.122L564.71 532.155C563.599 556.029 559.845 619.531 553.717 682.547C547.589 745.563 531.814 804.268 524.693 825.743C505.696 894.54 461.479 933.464 430.651 953.267C400.461 972.659 366.638 978.885 355.519 975.294C326.12 973.029 282.576 941.842 265.109 842.782C258.285 804.078 272.547 755.005 277.665 731.223C285.228 697.165 320.362 622.011 370.597 599.106C420.831 576.201 448.626 587.476 456.244 595.976C464.879 602.701 482.503 626.305 483.918 666.92C485.333 707.535 462.884 757.36 451.483 777.195C446.518 789.777 429.74 817.744 402.346 828.959C374.952 840.174 362.462 820.029 359.64 808.554C357.73 797.717 355.538 770.807 362.061 749.863C368.584 728.919 391.921 714.003 402.774 709.163C394.941 714.534 378.718 749.726 396.802 761.297C419.293 775.688 424.406 753.909 437.285 723.829C452.81 687.57 440.8 657.762 422.954 642.551C411.846 629.345 364.928 639.374 338.621 689.347C312.314 739.32 309.787 770.255 308.237 784.096C302.678 811.415 323.068 888.458 389.181 871.985C454.933 855.603 457.847 834.016 481.533 784.667C503.714 738.454 501.3 742.871 507.724 711.409C512.795 686.573 521.201 609.797 522.587 573.902C523.064 547.639 515.2 544.078 511.208 545.58C483.957 572.094 442.313 571.296 422.006 569.29C401.699 567.283 359.609 563.052 326.029 531.94C284.053 493.049 262.25 441.822 255.923 428.571C249.596 415.32 238.082 372.654 235.262 347.611C232.443 322.568 232.267 301.194 244.107 271.026C256.223 240.157 274.986 215.299 313.1 187.029C340.836 166.456 393.454 156.897 417.875 156.582C466.904 159.43 494.409 192.305 504.287 207.591C545.18 186.014 615.345 185.614 639.339 194.951C663.334 204.289 716.603 234.803 733.671 277.287C747.326 311.275 748.367 360.629 747.18 381.058C758.896 390.166 787.627 413.993 808.823 436.434C830.02 458.875 859.674 512.07 867.728 544.172C875.781 576.274 886.985 629.849 875.906 672.029C862.056 724.754 824.215 754.572 801.901 772.873C779.588 791.174 715.568 799.27 685.88 802.908C662.13 805.819 636.099 795.191 626.052 789.513L621.275 762.421L652.193 752.18L642.224 736.379L616.362 734.554L612.267 711.332L637.037 706.964L626.159 676.957L601.709 674.085L597.477 650.089L615.281 646.949L604.631 613.709L585.279 617.122Z" fill="black"/>
<path d="M521.471 574.976C521.948 548.713 514.084 545.151 510.092 546.653C504.096 554.894 483.753 571.092 450.351 569.958C453.234 574.238 457.816 583.327 454.718 594.728C463.354 601.453 481.475 629.917 482.802 667.994C484.217 708.609 461.768 758.434 450.367 778.269C445.403 790.851 428.624 818.817 401.23 830.033C373.836 841.248 361.346 821.103 358.524 809.628C356.614 798.791 354.423 771.881 360.945 750.937C367.468 729.993 390.805 715.077 401.658 710.237C393.825 715.608 377.602 750.8 395.686 762.371C418.177 776.762 423.29 754.983 436.169 724.903C451.694 688.644 439.685 658.836 421.838 643.625C410.73 630.419 363.812 640.448 337.505 690.421C311.198 740.394 308.671 771.328 307.121 785.17C301.562 812.489 325.868 893.63 391.981 877.158C455.438 861.347 456.731 835.09 480.417 785.741C502.598 739.528 500.184 743.945 506.608 712.483C513.032 681.021 520.085 610.871 521.471 574.976Z" fill="#F9E7E7"/>
<path d="M727.686 437.971C712.893 469.951 667.999 503.833 647.402 516.777L659.573 739.706C723.207 756.58 774.235 661.224 782.802 610.228C782.527 492.791 746.156 446.154 727.686 437.971Z" fill="#F9E7E7"/>
<path d="M629.223 259.788L596.122 257.643L595.845 283.233L630.631 285.878L633.131 318.161L601.714 316.518L601.574 342.881L636.541 351.082L637.676 375.624L605.53 378.898L610.444 406.764L640.632 401.441L646.223 473.884C659.11 460.97 685.696 433.402 688.939 426.445C692.182 419.489 687.167 393.768 684.255 381.777L649.944 236.979L627.497 227.369L629.223 259.788Z" fill="#F9E7E7"/>
<path d="M439.997 214.148C482.616 205.995 505.167 232.188 511.114 246.304C516.454 268.243 527.66 316.496 529.772 334.002C538.097 381.221 530.074 448.881 517.319 494.23C506.529 534.443 463.552 548.406 443.411 550.361C424.895 550.966 396.013 544.991 374.889 519.344C353.766 493.697 338.765 441.208 334.927 419.44C324.553 360.61 323.875 329.602 350.608 286.578C361.705 266.53 397.377 222.302 439.997 214.148Z" fill="#F9E7E7"/>
<path d="M694.547 693.631L681.752 693.493C678.34 674.141 682.809 627.061 693.242 582.122C699.037 554.145 705.406 528.896 715.836 511.094L721.026 513.372L725.579 516.559L731.179 521.159L735.231 526.032C716.696 547.657 699.016 646.551 694.547 693.631Z" fill="#E3181D"/>
<path d="M434.622 550.304C431.253 549.302 408.995 479.794 404.504 454.325C394.751 446.398 385.225 428.516 381.681 420.567C376.778 410.981 368.144 383.884 372.838 352.188C377.531 320.491 398.198 301.626 407.944 296.156C415.827 277.081 454.233 212.429 462.162 211.834C468.505 211.359 476.017 214.483 478.981 216.104C474.627 223.303 460.19 291.767 462.939 293.694C465.139 295.236 471.525 298.343 474.442 299.705C496.22 313.872 503.406 345.511 504.276 359.559C505.59 370.046 506.484 397.596 499.554 423.899C492.625 450.202 467.733 465.149 456.153 469.335C450.887 479.595 453.337 547.803 451.151 548.986C448.965 550.17 437.992 551.307 434.622 550.304Z" fill="#3237B5"/>
<ellipse cx="296.832" cy="284.876" rx="26.7245" ry="27.5105" transform="rotate(-10 296.832 284.876)" fill="#F0CF20"/>
<circle cx="342.601" cy="232.11" r="21.2224" transform="rotate(-10 342.601 232.11)" fill="#F0CF20"/>
<circle cx="286.671" cy="344.932" r="20.4364" transform="rotate(-10 286.671 344.932)" fill="#F0CF20"/>
<ellipse cx="438.918" cy="378.548" rx="57.556" ry="80.0173" transform="rotate(-1.89729 438.918 378.548)" fill="black"/>
<ellipse cx="439.2" cy="377.099" rx="33.7073" ry="40.3017" transform="rotate(1.16413 439.2 377.099)" fill="#F0CF20"/>
<circle cx="570.232" cy="459.349" r="25.1524" transform="rotate(-10 570.232 459.349)" fill="#F0CF20"/>
<circle cx="827.473" cy="578.407" r="26.7245" transform="rotate(-10 827.473 578.407)" fill="#F0CF20"/>
<circle cx="818.901" cy="670.109" r="32.2266" transform="rotate(-10 818.901 670.109)" fill="#F0CF20"/>
<circle cx="777.458" cy="729.295" r="25.1524" transform="rotate(-10 777.458 729.295)" fill="#F0CF20"/>
</g>
<defs>
<filter id="filter0_f_1214_2865" x="153.672" y="76.582" width="806.875" height="979.678" filterUnits="userSpaceOnUse" color-interpolation-filters="sRGB">
<feFlood flood-opacity="0" result="BackgroundImageFix"/>
<feBlend mode="normal" in="SourceGraphic" in2="BackgroundImageFix" result="shape"/>
<feGaussianBlur stdDeviation="40" result="effect1_foregroundBlur_1214_2865"/>
</filter>
<clipPath id="clip0_1214_2865">
<rect width="1080" height="1080" rx="540" fill="white"/>
</clipPath>
</defs>
</svg>
