<svg width="90" height="90" viewBox="0 0 90 90" fill="none" xmlns="http://www.w3.org/2000/svg">
<g id="language-csharp">
<path id="Vector" d="M43.125 59.8875L44.6625 69.0375C43.6875 69.5625 42.1125 70.05 40.0125 70.5C37.875 70.9875 35.3625 71.25 32.475 71.25C24.1875 71.1 17.9625 68.625 13.8 63.9C9.6 59.1375 7.5 53.1 7.5 45.7875C7.6875 37.125 10.2 30.4875 15 25.8375C19.95 21.15 26.1 18.75 33.525 18.75C36.3375 18.75 38.775 19.0125 40.8 19.4625C42.825 19.9125 44.325 20.4 45.3 20.9625L43.125 30.3L39.15 29.025C37.65 28.65 35.925 28.4625 33.9375 28.4625C29.5875 28.425 25.9875 29.8125 23.175 32.5875C20.325 35.325 18.8625 39.525 18.75 45.1125C18.75 50.2125 20.1375 54.1875 22.8 57.1125C25.4625 60 29.2125 61.5 34.0125 61.5375L39 61.0875C40.6125 60.7875 41.9625 60.375 43.125 59.8875ZM52.0875 71.25L54.375 56.25H48.75L50.025 48.75H55.65L56.85 41.25H51.225L52.5 33.75H58.125L60.4125 18.75H67.9125L65.625 33.75H69.375L71.6625 18.75H79.1625L76.875 33.75H82.5L81.225 41.25H75.6L74.4 48.75H80.025L78.75 56.25H73.125L70.8375 71.25H63.3375L65.625 56.25H61.875L59.5875 71.25H52.0875ZM63.15 48.75H66.9L68.1 41.25H64.35L63.15 48.75Z" fill="#570C25"/>
</g>
</svg>
