<svg width="90" height="90" viewBox="0 0 90 90" fill="none" xmlns="http://www.w3.org/2000/svg">
<g id="logo-sass" clip-path="url(#clip0_921_805)">
<path id="Vector" d="M89.9614 57.4928C89.703 55.3975 88.6413 53.5799 86.7974 52.084C86.7744 52.0561 86.7492 52.0302 86.7218 52.0067L86.6286 51.9399L86.5987 51.9188L85.6196 51.2157L85.5862 51.191L85.4614 51.1032C85.4157 51.0765 85.3666 51.0558 85.3155 51.0416C82.2183 49.1977 77.0907 47.9057 69.2456 50.6743C67.3735 47.5243 67.1609 45 68.4142 41.1328C68.6374 40.4596 68.43 40.0149 67.762 39.7266C66.4191 39.1553 64.5804 39.4471 63.2761 39.7916C62.6679 39.9498 62.3023 40.2944 62.1862 40.8164C61.3601 44.6836 58.9589 48.2168 56.6368 51.627L56.4997 51.8274C55.0689 48.7934 55.3659 46.4432 56.3626 43.4989C56.5612 42.9118 56.4048 42.5215 55.8546 42.2297C54.3183 41.4369 52.0138 41.9819 51.0962 42.2526C49.9325 42.5918 48.6845 45.7366 47.2905 49.5018C46.939 50.4492 46.6366 51.2596 46.4556 51.6375C46.0249 52.5164 45.6136 53.5184 45.1777 54.5819C44.1933 56.9883 43.0841 59.6971 41.4986 61.3987C40.922 60.1243 41.829 58.1151 42.7097 56.1657C43.7521 53.8612 44.7364 51.6832 43.6027 50.2928C43.4234 50.073 43.2009 49.8922 42.9491 49.7616C42.6973 49.631 42.4214 49.5533 42.1384 49.5334C41.7692 49.5053 41.3986 49.5656 41.0573 49.7092C41.1751 48.7161 41.1804 47.9321 40.8903 46.9846C40.4755 45.6328 39.398 44.8752 37.9144 44.9157C34.5359 45.0141 31.6777 47.5313 29.8724 49.6266C28.67 51.0328 26.0052 52.1051 23.6655 53.0455C22.7409 53.4375 21.862 53.7891 21.129 54.1407C19.9601 53.1528 18.4747 52.1561 16.9103 51.1032C12.5157 48.1535 7.53586 44.8084 7.3636 40.2733C7.1175 33.5743 14.7464 28.8229 21.405 25.4321C26.4517 22.8657 30.8392 21.1641 34.8189 20.2342C40.4087 18.9282 45.1302 19.1918 48.8497 21.0147C50.8853 22.0114 51.838 24.1787 51.2333 26.4076C49.6513 32.1996 43.0964 36.1688 37.4907 37.9547C34.114 39.0305 31.24 39.4805 28.7017 39.3328C25.52 39.1483 22.922 37.5522 21.8111 36.8719C21.6331 36.7504 21.4449 36.6445 21.2486 36.5555L21.1976 36.5432C21.097 36.5182 20.9914 36.5213 20.8925 36.5523C20.7936 36.5833 20.7051 36.641 20.6368 36.719C20.4083 36.9914 20.4892 37.4221 20.5718 37.6401C21.6529 40.4649 23.8853 42.2491 27.2058 42.9434C28.2925 43.161 29.3987 43.2664 30.507 43.258C38.2782 43.258 48.1941 38.7774 51.8362 35.0877C54.32 32.5741 56.1288 29.9901 56.8777 25.534C57.6599 20.867 54.4958 17.6239 51.272 16.1297C43.4374 12.5139 34.5394 13.943 28.4538 15.7782C21.3347 17.9244 13.9695 21.8268 8.24953 26.4885C1.19719 32.2313 -1.35164 37.5627 0.669848 42.3528C2.74582 47.2623 7.80832 50.3332 12.7038 53.3039C14.2859 54.2619 15.7905 55.1743 17.1458 56.1164C16.738 56.3151 16.3214 56.5172 15.8978 56.7194C11.788 58.711 7.12629 60.9522 4.54055 64.6559C2.66321 67.3541 2.31164 70.0401 3.49641 72.6399C4.12922 74.0233 5.25422 74.9619 6.81692 75.4295C7.62982 75.6598 8.47169 75.7717 9.31653 75.7617C12.3593 75.7617 15.7079 74.5313 17.5308 73.394C20.7511 71.3725 22.8376 68.6584 23.7341 65.3274C24.5321 62.3637 24.3405 59.4194 23.1804 56.7914L27.1267 54.8016C25.223 61.1297 26.682 64.909 28.2851 66.9938C28.8757 67.7619 29.9409 68.2242 31.131 68.2453C32.321 68.2664 33.4161 67.8182 34.0349 67.0553C35.2056 65.6051 36.0704 63.9088 36.8667 62.2125C36.8245 63.32 36.8773 64.4414 37.2552 65.3924C37.5945 66.2485 38.1534 66.8162 38.8741 67.0342C39.6405 67.268 40.5388 67.0711 41.4036 66.4805C45.3007 63.8139 47.9655 57.4137 50.1066 52.2686C50.4107 51.5373 50.7025 50.8342 50.9855 50.1768C51.5152 52.0724 52.252 53.904 53.1827 55.6383C53.3902 56.0145 53.3726 56.1797 53.0913 56.4891C52.6677 56.9532 52.0771 57.5139 51.4513 58.108C49.5564 59.9063 47.1974 62.151 46.881 64.125C46.7579 64.916 47.3029 65.6367 48.1484 65.8002C50.6919 66.3065 53.7558 65.5664 56.3468 63.8227C58.7023 62.2407 59.5882 60.0346 58.9835 57.2854C58.3982 54.6381 59.7341 51.351 62.9544 47.5084C63.4818 49.711 64.1849 51.4916 65.1552 53.0508L65.1288 53.0719C62.7839 55.1198 59.5706 57.9235 60.0698 61.3248C60.1117 61.6483 60.2206 61.9595 60.3895 62.2386C60.5583 62.5176 60.7835 62.7584 61.0507 62.9455C61.3362 63.1383 61.6585 63.27 61.9972 63.3323C62.336 63.3946 62.6841 63.3862 63.0194 63.3076C66.0903 62.6625 68.4019 61.3635 70.0823 59.3403C71.7628 57.317 71.1493 55.0741 70.5833 53.3338C74.9778 52.142 78.8907 52.1719 82.554 53.4217C84.6107 54.1248 86.0855 55.2797 86.9362 56.8741C88.0068 58.8797 87.4284 60.7307 85.3032 62.086C84.6511 62.5026 84.3364 62.7575 84.3171 63.0791C84.3128 63.1538 84.3265 63.2284 84.3571 63.2966C84.3877 63.3648 84.4343 63.4247 84.4929 63.4711C84.739 63.6733 85.4984 64.0248 87.2157 62.9438C88.7978 61.9506 89.7259 60.5989 89.9632 58.9008C90.0109 58.4327 90.0103 57.9608 89.9614 57.4928ZM19.6964 61.8979L19.6788 62.1229C19.4046 64.6963 18.0968 66.9393 15.7853 68.8026C14.3333 69.9733 12.7566 70.6922 11.3468 70.8293C10.3624 70.9242 9.64699 70.7907 9.2216 70.4303C8.90344 70.1614 8.73293 69.7588 8.69426 69.1998C8.40598 64.7209 15.4302 60.2702 19.3835 58.8059C19.6657 59.8107 19.7715 60.8569 19.6964 61.8979ZM37.6876 49.2662C37.0372 52.9735 35.1405 59.9713 32.1593 62.6871C32.0169 62.8172 31.8974 62.8629 31.8429 62.8506C31.7884 62.8383 31.7462 62.7733 31.7023 62.6748C30.7073 60.3686 31.0747 56.4733 32.5812 53.4129C33.7396 51.0539 35.3937 49.4912 37.2429 49.0184C37.3196 48.9972 37.3988 48.986 37.4784 48.985C37.5407 48.9806 37.6026 48.9973 37.6542 49.0325C37.676 49.0669 37.6902 49.1055 37.696 49.1458C37.7017 49.1861 37.6989 49.2271 37.6876 49.2662ZM52.3636 62.7803C51.8029 63.3657 51.0347 63.2866 51.2157 63.0721L54.0704 60.0416C53.8402 61.084 53.1599 61.9471 52.3636 62.7803ZM64.206 60.1594C63.9345 60.2932 63.6408 60.376 63.3394 60.4037C63.2585 58.8094 64.8036 57.0147 66.3276 55.8176C66.7372 57.4805 65.8987 59.2383 64.206 60.1594Z" fill="#570C25"/>
</g>
<defs>
<clipPath id="clip0_921_805">
<rect width="90" height="90" fill="white"/>
</clipPath>
</defs>
</svg>
