<svg width="524" height="621" viewBox="0 0 524 621" fill="none" xmlns="http://www.w3.org/2000/svg">
<g filter="url(#filter0_f_921_872)">
<path d="M277.901 339.071L266.37 291.438C265.747 304.822 263.643 340.422 260.207 375.75C256.772 411.077 247.928 443.988 243.936 456.027C233.286 494.595 208.497 516.417 191.215 527.518C174.29 538.39 155.328 541.88 149.095 539.867C132.613 538.597 108.202 521.113 98.4102 465.579C94.5843 443.881 102.58 416.37 105.449 403.038C109.689 383.945 129.385 341.812 157.548 328.972C185.71 316.131 201.292 322.451 205.563 327.217C210.403 330.987 220.284 344.219 221.077 366.989C221.87 389.758 209.285 417.69 202.894 428.81C200.11 435.864 190.704 451.542 175.347 457.83C159.99 464.117 152.987 452.824 151.405 446.391C150.334 440.315 149.106 425.229 152.762 413.488C156.419 401.746 169.502 393.384 175.586 390.671C171.196 393.682 162.101 413.411 172.238 419.898C184.847 427.966 187.714 415.756 194.934 398.893C203.637 378.565 196.905 361.855 186.9 353.327C180.672 345.924 154.369 351.546 139.622 379.562C124.874 407.577 123.457 424.919 122.588 432.679C119.472 447.994 130.903 491.186 167.966 481.951C204.828 472.767 206.461 460.665 219.74 432.999C232.175 407.092 230.822 409.568 234.423 391.93C237.266 378.007 241.978 334.965 242.755 314.842C243.023 300.119 238.614 298.122 236.376 298.964C221.099 313.828 197.753 313.381 186.368 312.256C174.984 311.131 151.388 308.759 132.562 291.317C109.03 269.515 96.8072 240.796 93.2601 233.367C89.713 225.939 83.2582 202.02 81.6776 187.98C80.0969 173.941 79.9983 161.959 86.6362 145.046C93.4286 127.74 103.947 113.805 125.314 97.9559C140.863 86.4225 170.362 81.0639 184.052 80.8871C211.539 82.4838 226.958 100.914 232.496 109.483C255.421 97.387 294.756 97.1627 308.208 102.397C321.66 107.632 351.523 124.739 361.092 148.556C368.747 167.61 369.33 195.278 368.665 206.731C375.233 211.837 391.34 225.195 403.223 237.776C415.106 250.357 431.73 280.178 436.245 298.175C440.76 316.172 447.041 346.206 440.83 369.853C433.066 399.411 411.851 416.128 399.342 426.387C386.833 436.647 350.943 441.186 334.299 443.226C320.985 444.857 306.392 438.899 300.759 435.716L298.081 420.528L315.414 414.787L309.825 405.929L295.326 404.905L293.031 391.887L306.917 389.438L300.819 372.616L287.112 371.006L284.74 357.553L294.721 355.793L288.75 337.158L277.901 339.071Z" fill="#751323"/>
<path d="M242.129 315.444C242.397 300.721 237.988 298.724 235.75 299.566C232.388 304.186 220.984 313.266 202.258 312.63C203.875 315.03 206.444 320.126 204.707 326.517C209.548 330.287 219.707 346.244 220.451 367.591C221.244 390.36 208.659 418.292 202.268 429.412C199.484 436.466 190.078 452.144 174.721 458.432C159.364 464.719 152.361 453.425 150.78 446.993C149.708 440.917 148.48 425.831 152.137 414.09C155.793 402.348 168.876 393.986 174.961 391.273C170.57 394.284 161.475 414.013 171.613 420.499C184.221 428.567 187.088 416.358 194.308 399.495C203.011 379.167 196.279 362.457 186.274 353.929C180.046 346.526 153.744 352.148 138.996 380.164C124.248 408.179 122.831 425.521 121.962 433.281C118.846 448.596 132.472 494.085 169.536 484.851C205.111 475.987 205.835 461.267 219.114 433.601C231.549 407.694 230.196 410.17 233.797 392.532C237.399 374.894 241.352 335.567 242.129 315.444Z" fill="#F9E7E7"/>
<path d="M357.736 238.637C349.442 256.566 324.275 275.56 312.727 282.817L319.551 407.793C355.225 417.253 383.832 363.795 388.634 335.207C388.48 269.37 368.09 243.225 357.736 238.637Z" fill="#F9E7E7"/>
<path d="M302.537 138.746L283.98 137.543L283.824 151.889L303.326 153.372L304.727 171.471L287.115 170.549L287.036 185.329L306.639 189.926L307.276 203.685L289.254 205.52L292.009 221.143L308.933 218.158L312.067 258.771C319.292 251.531 334.196 236.076 336.014 232.176C337.832 228.276 335.021 213.857 333.388 207.135L314.153 125.959L301.569 120.571L302.537 138.746Z" fill="#F9E7E7"/>
<path d="M196.453 113.159C220.347 108.589 232.988 123.273 236.323 131.186C239.316 143.485 245.599 170.537 246.782 180.351C251.45 206.822 246.952 244.753 239.801 270.176C233.752 292.72 209.659 300.548 198.368 301.644C187.987 301.983 171.796 298.634 159.953 284.256C148.111 269.878 139.702 240.452 137.55 228.248C131.735 195.268 131.354 177.884 146.341 153.764C152.562 142.525 172.56 117.73 196.453 113.159Z" fill="#F9E7E7"/>
<path d="M339.158 381.963L331.986 381.886C330.073 371.037 332.578 344.643 338.427 319.45C341.676 303.766 345.247 289.611 351.093 279.631L354.003 280.908L356.556 282.695L359.695 285.273L361.966 288.005C351.576 300.128 341.664 355.57 339.158 381.963Z" fill="#E3181D"/>
<path d="M193.442 301.613C191.553 301.051 179.074 262.084 176.557 247.806C171.089 243.362 165.749 233.337 163.762 228.88C161.013 223.506 156.173 208.316 158.804 190.546C161.435 172.776 173.021 162.201 178.485 159.134C182.905 148.44 204.436 112.196 208.88 111.862C212.436 111.596 216.648 113.347 218.309 114.256C215.869 118.292 207.775 156.674 209.316 157.754C210.549 158.618 214.129 160.36 215.765 161.124C227.974 169.066 232.002 186.803 232.49 194.679C233.227 200.558 233.728 216.002 229.843 230.748C225.958 245.494 212.004 253.874 205.512 256.22C202.56 261.972 203.933 300.21 202.708 300.874C201.482 301.537 195.33 302.175 193.442 301.613Z" fill="#3237B5"/>
<ellipse cx="116.195" cy="152.811" rx="14.9821" ry="15.4227" transform="rotate(-10 116.195 152.811)" fill="#F0CF20"/>
<circle cx="141.852" cy="123.229" r="11.8975" transform="rotate(-10 141.852 123.229)" fill="#F0CF20"/>
<circle cx="110.498" cy="186.479" r="11.4569" transform="rotate(-10 110.498 186.479)" fill="#F0CF20"/>
<ellipse cx="195.849" cy="205.324" rx="32.2666" ry="44.8586" transform="rotate(-1.89729 195.849 205.324)" fill="#751323"/>
<ellipse cx="196.008" cy="204.512" rx="18.8967" ry="22.5936" transform="rotate(1.16413 196.008 204.512)" fill="#F0CF20"/>
<circle cx="269.465" cy="250.622" r="14.1008" transform="rotate(-10 269.465 250.622)" fill="#F0CF20"/>
<circle cx="413.678" cy="317.368" r="14.9821" transform="rotate(-10 413.678 317.368)" fill="#F0CF20"/>
<circle cx="408.872" cy="368.776" r="18.0666" transform="rotate(-10 408.872 368.776)" fill="#F0CF20"/>
<circle cx="385.639" cy="401.957" r="14.1008" transform="rotate(-10 385.639 401.957)" fill="#F0CF20"/>
</g>
<path d="M277.901 339.071L266.37 291.438C265.747 304.822 263.643 340.422 260.207 375.75C256.772 411.077 247.928 443.988 243.936 456.027C233.286 494.595 208.497 516.417 191.215 527.518C174.29 538.39 155.328 541.88 149.095 539.867C132.613 538.597 108.202 521.113 98.4102 465.579C94.5843 443.881 102.58 416.37 105.449 403.038C109.689 383.945 129.385 341.812 157.548 328.972C185.71 316.131 201.292 322.451 205.563 327.217C210.403 330.987 220.284 344.219 221.077 366.989C221.87 389.758 209.285 417.69 202.894 428.81C200.11 435.864 190.704 451.542 175.347 457.83C159.99 464.117 152.987 452.824 151.405 446.391C150.334 440.315 149.106 425.229 152.762 413.488C156.419 401.746 169.502 393.384 175.586 390.671C171.196 393.682 162.101 413.411 172.238 419.898C184.847 427.966 187.714 415.756 194.934 398.893C203.637 378.565 196.905 361.855 186.9 353.327C180.672 345.924 154.369 351.546 139.622 379.562C124.874 407.577 123.457 424.919 122.588 432.679C119.472 447.994 130.903 491.186 167.966 481.951C204.828 472.767 206.461 460.665 219.74 432.999C232.175 407.092 230.822 409.568 234.423 391.93C237.266 378.007 241.978 334.965 242.755 314.842C243.023 300.119 238.614 298.122 236.376 298.964C221.099 313.828 197.753 313.381 186.368 312.256C174.984 311.131 151.388 308.759 132.562 291.317C109.03 269.515 96.8072 240.796 93.2601 233.367C89.713 225.939 83.2582 202.02 81.6776 187.98C80.0969 173.941 79.9983 161.959 86.6362 145.046C93.4286 127.74 103.947 113.805 125.314 97.9559C140.863 86.4225 170.362 81.0639 184.052 80.8871C211.539 82.4838 226.958 100.914 232.496 109.483C255.421 97.387 294.756 97.1627 308.208 102.397C321.66 107.632 351.523 124.739 361.092 148.556C368.747 167.61 369.33 195.278 368.665 206.731C375.233 211.837 391.34 225.195 403.223 237.776C415.106 250.357 431.73 280.178 436.245 298.175C440.76 316.172 447.041 346.206 440.83 369.853C433.066 399.411 411.851 416.128 399.342 426.387C386.833 436.647 350.943 441.186 334.299 443.226C320.985 444.857 306.392 438.899 300.759 435.716L298.081 420.528L315.414 414.787L309.825 405.929L295.326 404.905L293.031 391.887L306.917 389.438L300.819 372.616L287.112 371.006L284.74 357.553L294.721 355.793L288.75 337.158L277.901 339.071Z" fill="black"/>
<path d="M242.129 315.444C242.397 300.721 237.988 298.724 235.75 299.566C232.388 304.186 220.984 313.266 202.258 312.63C203.875 315.03 206.444 320.126 204.707 326.517C209.548 330.287 219.707 346.244 220.451 367.591C221.244 390.36 208.659 418.292 202.268 429.412C199.484 436.466 190.078 452.144 174.721 458.432C159.364 464.719 152.361 453.425 150.78 446.993C149.708 440.917 148.48 425.831 152.137 414.09C155.793 402.348 168.876 393.986 174.961 391.273C170.57 394.284 161.475 414.013 171.613 420.499C184.221 428.567 187.088 416.358 194.308 399.495C203.011 379.167 196.279 362.457 186.274 353.929C180.046 346.526 153.744 352.148 138.996 380.164C124.248 408.179 122.831 425.521 121.962 433.281C118.846 448.596 132.472 494.085 169.536 484.851C205.111 475.987 205.835 461.267 219.114 433.601C231.549 407.694 230.196 410.17 233.797 392.532C237.399 374.894 241.352 335.567 242.129 315.444Z" fill="#F9E7E7"/>
<path d="M357.736 238.637C349.442 256.566 324.275 275.56 312.727 282.817L319.551 407.793C355.225 417.253 383.832 363.795 388.634 335.207C388.48 269.37 368.09 243.225 357.736 238.637Z" fill="#F9E7E7"/>
<path d="M302.537 138.746L283.98 137.543L283.824 151.889L303.326 153.372L304.727 171.471L287.115 170.549L287.036 185.329L306.639 189.926L307.276 203.685L289.254 205.52L292.009 221.143L308.933 218.158L312.067 258.771C319.292 251.531 334.196 236.076 336.014 232.176C337.832 228.276 335.021 213.857 333.388 207.135L314.153 125.959L301.569 120.571L302.537 138.746Z" fill="#F9E7E7"/>
<path d="M196.453 113.159C220.347 108.589 232.988 123.273 236.323 131.186C239.316 143.485 245.599 170.537 246.782 180.351C251.45 206.822 246.952 244.753 239.801 270.176C233.752 292.72 209.659 300.548 198.368 301.644C187.987 301.983 171.796 298.634 159.953 284.256C148.111 269.878 139.702 240.452 137.55 228.248C131.735 195.268 131.354 177.884 146.341 153.764C152.562 142.525 172.56 117.73 196.453 113.159Z" fill="#F9E7E7"/>
<path d="M339.158 381.963L331.986 381.886C330.073 371.037 332.578 344.643 338.427 319.45C341.676 303.766 345.247 289.611 351.093 279.631L354.003 280.908L356.556 282.695L359.695 285.273L361.966 288.005C351.576 300.128 341.664 355.57 339.158 381.963Z" fill="#E3181D"/>
<path d="M193.442 301.613C191.553 301.051 179.074 262.084 176.557 247.806C171.089 243.362 165.749 233.337 163.762 228.88C161.013 223.506 156.173 208.316 158.804 190.546C161.435 172.776 173.021 162.201 178.485 159.134C182.905 148.44 204.436 112.196 208.88 111.862C212.436 111.596 216.648 113.347 218.309 114.256C215.869 118.292 207.775 156.674 209.316 157.754C210.549 158.618 214.129 160.36 215.765 161.124C227.974 169.066 232.002 186.803 232.49 194.679C233.227 200.558 233.728 216.002 229.843 230.748C225.958 245.494 212.004 253.874 205.512 256.22C202.56 261.972 203.933 300.21 202.708 300.874C201.482 301.537 195.33 302.175 193.442 301.613Z" fill="#3237B5"/>
<ellipse cx="116.195" cy="152.811" rx="14.9821" ry="15.4227" transform="rotate(-10 116.195 152.811)" fill="#F0CF20"/>
<circle cx="141.852" cy="123.229" r="11.8975" transform="rotate(-10 141.852 123.229)" fill="#F0CF20"/>
<circle cx="110.498" cy="186.479" r="11.4569" transform="rotate(-10 110.498 186.479)" fill="#F0CF20"/>
<ellipse cx="195.849" cy="205.324" rx="32.2666" ry="44.8586" transform="rotate(-1.89729 195.849 205.324)" fill="black"/>
<ellipse cx="196.008" cy="204.512" rx="18.8967" ry="22.5936" transform="rotate(1.16413 196.008 204.512)" fill="#F0CF20"/>
<circle cx="269.465" cy="250.622" r="14.1008" transform="rotate(-10 269.465 250.622)" fill="#F0CF20"/>
<circle cx="413.678" cy="317.368" r="14.9821" transform="rotate(-10 413.678 317.368)" fill="#F0CF20"/>
<circle cx="408.872" cy="368.776" r="18.0666" transform="rotate(-10 408.872 368.776)" fill="#F0CF20"/>
<circle cx="385.639" cy="401.957" r="14.1008" transform="rotate(-10 385.639 401.957)" fill="#F0CF20"/>
<defs>
<filter id="filter0_f_921_872" x="0.7854" y="0.887085" width="522.647" height="619.521" filterUnits="userSpaceOnUse" color-interpolation-filters="sRGB">
<feFlood flood-opacity="0" result="BackgroundImageFix"/>
<feBlend mode="normal" in="SourceGraphic" in2="BackgroundImageFix" result="shape"/>
<feGaussianBlur stdDeviation="40" result="effect1_foregroundBlur_921_872"/>
</filter>
</defs>
</svg>
