<svg width="436" height="506" viewBox="0 0 436 506" fill="none" xmlns="http://www.w3.org/2000/svg">
<path d="M242.902 296.071L231.37 248.438C230.748 261.822 228.643 297.422 225.207 332.75C221.772 368.077 212.928 400.988 208.936 413.027C198.286 451.596 173.497 473.417 156.215 484.518C139.29 495.39 120.329 498.88 114.095 496.867C97.6137 495.597 73.2026 478.113 63.4104 422.579C59.5845 400.881 67.5799 373.371 70.4492 360.038C74.6892 340.945 94.3857 298.812 122.548 285.972C150.71 273.131 166.292 279.452 170.563 284.217C175.404 287.987 185.284 301.219 186.077 323.989C186.87 346.758 174.285 374.691 167.894 385.811C165.111 392.864 155.705 408.542 140.347 414.83C124.99 421.117 117.987 409.824 116.406 403.391C115.334 397.315 114.106 382.229 117.763 370.488C121.419 358.746 134.502 350.384 140.587 347.671C136.196 350.682 127.101 370.411 137.239 376.898C149.847 384.966 152.714 372.756 159.934 355.893C168.638 335.565 161.905 318.855 151.9 310.328C145.673 302.924 119.37 308.546 104.622 336.562C89.8742 364.577 88.4573 381.92 87.5885 389.679C84.4719 404.995 95.9029 448.186 132.967 438.951C169.828 429.767 171.461 417.665 184.74 389.999C197.175 364.092 195.822 366.568 199.423 348.93C202.266 335.007 206.978 291.965 207.755 271.842C208.023 257.119 203.614 255.122 201.376 255.964C186.099 270.828 162.753 270.381 151.369 269.256C139.984 268.131 116.388 265.759 97.5625 248.317C74.0305 226.515 61.8074 197.796 58.2603 190.368C54.7132 182.939 48.2585 159.02 46.6778 144.981C45.0971 130.941 44.9985 118.959 51.6365 102.046C58.4288 84.7404 68.9475 70.8046 90.3144 54.956C105.864 43.4226 135.362 38.064 149.052 37.8872C176.539 39.4839 191.958 57.9143 197.496 66.4833C220.421 54.387 259.757 54.1628 273.208 59.3975C286.66 64.6322 316.523 81.7389 326.092 105.556C333.747 124.61 334.33 152.279 333.665 163.731C340.233 168.837 356.34 182.195 368.223 194.776C380.106 207.357 396.731 237.178 401.245 255.175C405.76 273.172 412.041 303.206 405.83 326.853C398.066 356.411 376.852 373.128 364.342 383.388C351.833 393.647 315.943 398.186 299.3 400.226C285.985 401.857 271.392 395.899 265.759 392.716L263.081 377.528L280.414 371.787L274.825 362.929L260.327 361.906L258.031 348.887L271.918 346.438L265.819 329.616L252.112 328.006L249.74 314.553L259.721 312.793L253.75 294.158L242.902 296.071Z" fill="black"/>
<path d="M207.13 272.444C207.397 257.721 202.988 255.724 200.751 256.566C197.389 261.186 185.984 270.266 167.259 269.63C168.875 272.03 171.444 277.126 169.708 283.517C174.548 287.287 184.708 303.244 185.451 324.591C186.245 347.36 173.66 375.292 167.268 386.412C164.485 393.466 155.079 409.144 139.722 415.432C124.364 421.719 117.362 410.425 115.78 403.993C114.709 397.917 113.48 382.831 117.137 371.09C120.794 359.348 133.877 350.986 139.961 348.273C135.57 351.284 126.475 371.013 136.613 377.499C149.222 385.567 152.089 373.358 159.309 356.495C168.012 336.167 161.279 319.457 151.274 310.929C145.047 303.526 118.744 309.148 103.996 337.164C89.2485 365.179 87.8316 382.521 86.9628 390.281C83.8462 405.596 97.4723 451.085 134.536 441.851C170.111 432.987 170.836 418.267 184.115 390.601C196.549 364.694 195.196 367.17 198.798 349.532C202.399 331.894 206.353 292.567 207.13 272.444Z" fill="#F9E7E7"/>
<path d="M322.736 195.637C314.442 213.566 289.275 232.56 277.727 239.817L284.551 364.793C320.225 374.253 348.832 320.795 353.634 292.207C353.48 226.37 333.09 200.225 322.736 195.637Z" fill="#F9E7E7"/>
<path d="M267.537 95.7459L248.98 94.5436L248.824 108.889L268.326 110.372L269.727 128.471L252.115 127.549L252.036 142.329L271.639 146.926L272.276 160.685L254.254 162.52L257.009 178.143L273.933 175.158L277.067 215.771C284.292 208.531 299.196 193.076 301.014 189.176C302.832 185.276 300.021 170.857 298.388 164.135L279.153 82.959L266.569 77.5712L267.537 95.7459Z" fill="#F9E7E7"/>
<path d="M161.454 70.1596C185.347 65.5887 197.989 80.273 201.323 88.1866C204.316 100.486 210.599 127.537 211.783 137.351C216.45 163.822 211.952 201.754 204.801 227.177C198.753 249.721 174.659 257.549 163.368 258.645C152.987 258.983 136.796 255.634 124.954 241.256C113.112 226.878 104.702 197.452 102.55 185.248C96.7348 152.268 96.3546 134.884 111.341 110.764C117.563 99.5254 137.561 74.7306 161.454 70.1596Z" fill="#F9E7E7"/>
<path d="M304.158 338.964L296.986 338.886C295.073 328.037 297.578 301.643 303.427 276.45C306.676 260.766 310.247 246.611 316.093 236.631L319.003 237.908L321.556 239.695L324.695 242.273L326.966 245.005C316.576 257.129 306.664 312.57 304.158 338.964Z" fill="#E3181D"/>
<path d="M158.442 258.613C156.553 258.051 144.075 219.084 141.557 204.806C136.09 200.362 130.749 190.337 128.763 185.88C126.014 180.506 121.173 165.316 123.805 147.546C126.436 129.776 138.022 119.201 143.486 116.134C147.905 105.44 169.436 69.1956 173.881 68.8625C177.437 68.5961 181.649 70.3471 183.31 71.256C180.869 75.2917 172.775 113.674 174.317 114.754C175.55 115.618 179.13 117.36 180.766 118.124C192.974 126.066 197.003 143.803 197.491 151.679C198.227 157.558 198.729 173.003 194.844 187.748C190.959 202.494 177.004 210.874 170.512 213.22C167.56 218.972 168.933 257.21 167.708 257.874C166.483 258.537 160.331 259.175 158.442 258.613Z" fill="#3237B5"/>
<ellipse cx="81.1953" cy="109.811" rx="14.9821" ry="15.4227" transform="rotate(-10 81.1953 109.811)" fill="#F0CF20"/>
<circle cx="106.853" cy="80.2292" r="11.8975" transform="rotate(-10 106.853 80.2292)" fill="#F0CF20"/>
<circle cx="75.4979" cy="143.479" r="11.4569" transform="rotate(-10 75.4979 143.479)" fill="#F0CF20"/>
<ellipse cx="160.85" cy="162.324" rx="32.2666" ry="44.8586" transform="rotate(-1.89729 160.85 162.324)" fill="black"/>
<ellipse cx="161.008" cy="161.512" rx="18.8967" ry="22.5936" transform="rotate(1.16413 161.008 161.512)" fill="#F0CF20"/>
<circle cx="234.465" cy="207.622" r="14.1008" transform="rotate(-10 234.465 207.622)" fill="#F0CF20"/>
<circle cx="378.679" cy="274.368" r="14.9821" transform="rotate(-10 378.679 274.368)" fill="#F0CF20"/>
<circle cx="373.873" cy="325.776" r="18.0666" transform="rotate(-10 373.873 325.776)" fill="#F0CF20"/>
<circle cx="350.64" cy="358.957" r="14.1008" transform="rotate(-10 350.64 358.957)" fill="#F0CF20"/>
</svg>
