<svg width="90" height="90" viewBox="0 0 90 90" fill="none" xmlns="http://www.w3.org/2000/svg">
<g id="typescript logo">
<path id="Vector" fill-rule="evenodd" clip-rule="evenodd" d="M3.75 3.75V86.25H86.25V3.75H3.75ZM66.4702 43.125C67.2523 43.1275 68.1411 43.1699 68.8096 43.244C71.532 43.5453 73.6521 44.7466 75.4557 47.0094C76.3539 48.1365 76.6612 48.6298 76.5957 48.8407C76.5536 48.9768 75.9373 49.4283 73.9779 50.7588C72.0532 52.0657 71.433 52.4571 71.2891 52.4571C71.1431 52.4571 70.839 52.137 70.4005 51.5223C69.5561 50.3386 68.694 49.7984 67.3611 49.6182C65.9278 49.4241 64.6421 49.8862 64.0125 50.8222C63.4743 51.6219 63.393 52.909 63.8208 53.844C64.3164 54.9271 65.2135 55.5259 68.6514 57.0679C72.6166 58.8462 74.6259 60.0635 76.0894 61.5741C77.6653 63.2008 78.4637 65.0791 78.709 67.7359C78.8287 69.0308 78.6824 70.5657 78.3201 71.8135C77.4317 74.8724 75.034 77.1123 71.5197 78.1665C70.5483 78.4578 69.6443 78.6319 68.7501 78.6988C67.3852 78.8016 65.4313 78.745 64.2553 78.5698C61.28 78.1266 57.9214 76.3557 56.2467 74.3477C55.4246 73.3621 54.375 71.74 54.375 71.4546C54.375 71.3169 54.4417 71.2387 54.7061 71.0668C55.4899 70.5575 59.9821 67.9308 60.0693 67.9308C60.1219 67.9308 60.3566 68.2137 60.5905 68.5594C61.1204 69.342 62.4235 70.6872 63.086 71.136C63.6272 71.5025 64.3191 71.7969 65.1407 72.0093C65.6112 72.1293 65.8604 72.1507 66.887 72.1507C67.936 72.1503 68.1512 72.1323 68.6205 72.0033C69.8618 71.6616 70.8307 70.9546 71.2413 70.0909C71.4213 69.7177 71.4248 69.6711 71.4248 68.7659V67.8275L71.2042 67.3798C70.6698 66.2948 69.5184 65.5504 65.878 63.9375C64.2058 63.1966 62.1578 62.1519 61.3582 61.6322C59.5335 60.4461 58.2688 59.0901 57.4389 57.4303C56.6133 55.7797 56.4902 55.1653 56.4882 52.6833C56.4861 50.7404 56.483 50.7643 56.8762 49.5242C57.2331 48.3989 57.9635 47.1418 58.7698 46.2653C60.3792 44.5155 62.7303 43.391 65.2476 43.1673C65.5696 43.1361 66.001 43.1236 66.4702 43.125ZM44.8164 45.0004C49.6124 45.0028 52.3624 45.0194 52.4065 45.0472C52.4897 45.0988 52.5 45.5173 52.5 48.1882V51.2696L47.7143 51.287L42.9286 51.3044V64.9283C42.9286 72.4216 42.9135 78.5967 42.8927 78.6513C42.8589 78.743 42.4908 78.75 39.377 78.75H35.899L35.8631 78.609C35.8398 78.5317 35.8229 72.3563 35.8225 64.8861L35.8214 51.3037L31.0357 51.2866L26.25 51.2692V48.2243C26.25 45.8094 26.2666 45.1626 26.3307 45.0984C26.3966 45.0303 28.8389 45.0128 39.3627 45.0023C41.3917 45.0003 43.2176 44.9994 44.8164 45.0004Z" fill="#570C25"/>
</g>
</svg>
