<svg width="1323" height="544" viewBox="0 0 1323 544" fill="none" xmlns="http://www.w3.org/2000/svg">
<mask id="mask0_921_1475" style="mask-type:luminance" maskUnits="userSpaceOnUse" x="-15" y="0" width="1451" height="614">
<path d="M1436 0H-15V613.716H1436V0Z" fill="white"/>
</mask>
<g mask="url(#mask0_921_1475)">
<path d="M-56.6716 141C40.0617 192.07 335.033 452.288 528.5 433C778 408.125 827 303.5 961.5 272.5C1154.97 258.253 1297.59 268.889 1394.33 325V599.366H-56.6716V141Z" fill="#6C162B"/>
<path d="M-56.6716 290C45.5 230.5 292.5 346.5 365 388.5C536.5 468 592.5 469.5 801 435C1044.5 350.5 1297.59 165.82 1394.33 82.0916V599.367H-56.6716V290Z" fill="#B8522E"/>
<path d="M-56.6716 226.753C83.4998 330 378.628 516.295 668.828 486.486C959.028 456.677 1249.23 321.151 1394.33 239.395V599.366H-56.6716V226.753Z" fill="#E8A21F"/>
<path d="M-56.6716 180.724C40.0617 251.521 85.9998 521 380.5 540.5C573.966 561.98 768.033 505.035 961.5 471.5C1154.97 437.965 1297.59 327.219 1394.33 343V599.366H-56.6716V180.724Z" fill="#F0CF20"/>
</g>
</svg>
