<svg width="174" height="292" viewBox="0 0 174 292" fill="none" xmlns="http://www.w3.org/2000/svg">
<path d="M172.516 145.482L172.516 0.885544C155.111 11.3846 137.555 21.8835 114.338 26.7631C108.463 28.0002 102.228 28.8751 96.0244 29.6844C94.9114 29.8296 93.7996 29.9727 92.6909 30.1153C87.613 30.7688 82.6015 31.4136 77.8518 32.2151C72.0655 33.1916 66.6936 34.3966 62.0966 36.1207C57.4983 37.8452 53.7072 40.0774 51.0512 43.0888C45.7295 49.1225 44.8421 58.4171 44.655 68.807C44.6222 70.6292 44.6109 72.4836 44.5996 74.356C44.5465 83.0809 44.4912 92.1956 42.2428 100.262C39.5237 110.077 33.5625 118.306 26.0303 125.728C18.8448 132.809 10.2015 139.18 1.53494 145.5L172.516 145.482Z" fill="#6C162B" stroke="#6C162B"/>
<path d="M172.516 37.3805C159.506 45.2163 146.387 53.0524 129.055 56.7083L129.054 56.7085C124.64 57.6305 119.958 58.2827 115.302 58.8867C114.492 58.9918 113.683 59.0955 112.876 59.1988C109.04 59.6902 105.256 60.1749 101.671 60.7791C97.332 61.5104 93.3105 62.4128 89.8725 63.7022C86.4333 64.992 83.61 66.6574 81.6366 68.8949C77.6798 73.381 77.0057 80.3094 76.8666 88.1075C76.8419 89.4929 76.8341 90.9043 76.8262 92.3301C76.7901 98.8515 76.7523 105.676 75.0891 111.707L75.0889 111.708C73.0302 119.113 68.4754 125.31 62.7516 130.886C57.3792 136.121 50.9474 140.836 44.5374 145.5L172.516 145.482L172.516 37.3805Z" fill="#B8522E" stroke="#B8522E"/>
<path d="M172.516 73.8767C163.938 79.0497 155.214 84.2211 143.727 86.6175C140.774 87.2336 137.646 87.6698 134.543 88.0737C134.012 88.1429 133.481 88.2111 132.952 88.279C130.386 88.6089 127.86 88.9336 125.468 89.3384C122.582 89.8267 119.916 90.4277 117.641 91.2829C115.365 92.1385 113.512 93.237 112.221 94.7009C109.629 97.6393 109.179 102.192 109.088 107.399C109.072 108.31 109.067 109.241 109.062 110.182C109.039 114.538 109.015 119.128 107.892 123.189L107.891 123.189C106.514 128.152 103.363 132.307 99.4492 136.037C95.8953 139.424 91.6785 142.489 87.5375 145.5L172.516 145.482V73.8767Z" fill="#E8A21F" stroke="#E8A21F"/>
<path d="M140.694 134.636C139.404 139.228 135.617 142.46 131.531 145.482H172.516V110.37C168.33 112.879 164.045 115.355 158.447 116.562L158.444 116.563C156.952 116.873 155.375 117.091 153.82 117.291C153.546 117.326 153.273 117.361 153.001 117.396C151.723 117.558 150.471 117.717 149.285 117.916C147.847 118.157 146.532 118.452 145.416 118.87C144.299 119.288 143.414 119.817 142.806 120.507C141.579 121.898 141.342 124.085 141.294 126.7C141.285 127.159 141.283 127.629 141.28 128.108C141.268 130.275 141.254 132.593 140.695 134.633L140.695 134.633L140.694 134.636Z" fill="#F0CF20" stroke="#F0CF20"/>
<path d="M26.0302 166.262C18.8447 159.186 10.2013 152.819 1.53476 146.5L172.516 146.5L172.516 291.097C155.111 280.598 137.555 270.099 114.338 265.219C108.463 263.982 102.228 263.107 96.0244 262.298C94.9116 262.152 93.7999 262.009 92.6914 261.867C87.6133 261.213 82.6016 260.568 77.8518 259.767C72.0655 258.79 66.6936 257.585 62.0965 255.861C57.4983 254.137 53.7072 251.905 51.0512 248.893C45.7295 242.86 44.8421 233.565 44.655 223.175C44.6222 221.353 44.6109 219.498 44.5995 217.626C44.5465 208.901 44.4911 199.786 42.2428 191.72C39.5236 181.905 33.5624 173.68 26.0302 166.262Z" fill="#6C162B" stroke="#6C162B"/>
<path d="M62.7515 161.105C57.3791 155.875 50.9471 151.164 44.5372 146.5L172.516 146.5L172.516 254.602C159.506 246.766 146.387 238.93 129.055 235.274L129.054 235.274C124.64 234.352 119.958 233.7 115.302 233.095C114.492 232.99 113.683 232.887 112.876 232.783C109.04 232.292 105.256 231.807 101.671 231.203C97.332 230.472 93.3105 229.569 89.8725 228.28C86.4333 226.99 83.61 225.325 81.6366 223.087C77.6798 218.601 77.0057 211.673 76.8666 203.875C76.8419 202.489 76.8341 201.078 76.8262 199.652C76.7901 193.131 76.7523 186.306 75.0891 180.275L75.0889 180.274C73.0302 172.869 68.4753 166.677 62.7515 161.105Z" fill="#B8522E" stroke="#B8522E"/>
<path d="M87.581 146.532C87.5664 146.521 87.5518 146.511 87.5372 146.5L172.516 146.5V218.105C163.938 212.932 155.214 207.761 143.727 205.365C140.774 204.749 137.646 204.312 134.543 203.908C134.012 203.839 133.481 203.771 132.952 203.703C130.386 203.373 127.86 203.049 125.468 202.644C122.582 202.155 119.916 201.554 117.641 200.699C115.365 199.844 113.512 198.745 112.221 197.281C109.629 194.343 109.179 189.79 109.088 184.583C109.072 183.672 109.067 182.741 109.062 181.8C109.039 177.444 109.015 172.855 107.892 168.793L107.891 168.793C106.514 163.83 103.363 159.679 99.449 155.954C95.9076 152.583 91.7078 149.531 87.581 146.532Z" fill="#E8A21F" stroke="#E8A21F"/>
<path d="M172.515 181.612C168.33 179.103 164.045 176.627 158.447 175.42L158.444 175.42C156.952 175.109 155.375 174.891 153.82 174.691C153.546 174.656 153.273 174.621 153.001 174.586C151.723 174.424 150.471 174.265 149.285 174.066C147.847 173.825 146.532 173.53 145.416 173.113C144.299 172.694 143.414 172.165 142.806 171.475C141.579 170.084 141.342 167.897 141.294 165.282C141.285 164.823 141.283 164.353 141.28 163.875C141.268 161.707 141.254 159.389 140.695 157.349L140.695 157.349L140.694 157.346C139.404 152.754 135.617 149.522 131.531 146.5H172.5L172.515 181.612Z" fill="#F0CF20" stroke="#F0CF20"/>
</svg>
