<svg width="423" height="198" viewBox="0 0 423 198" fill="none" xmlns="http://www.w3.org/2000/svg">
<path d="M0 198C45.679 181.598 91.358 165.195 136.933 154.7C182.403 144.155 227.769 139.567 273.552 128.046C319.44 116.574 365.849 98.2678 390.774 75.7633C415.804 53.3077 419.454 26.6539 423 6.10352e-05L0 6.10352e-05L0 198Z" fill="#6C162B"/>
<path d="M0 148.5C34.3114 136.198 68.5185 123.896 102.621 116.037C136.828 108.129 170.827 104.663 205.243 96.071C239.554 87.4305 274.387 73.713 293.159 56.8225C311.827 39.9808 314.538 19.966 317.25 3.05176e-05L0 3.05176e-05L0 148.5Z" fill="#B8522E"/>
<path d="M0 99C22.8395 90.7988 45.679 82.5976 68.4142 77.3254C91.1494 72.1021 113.885 69.7589 136.828 64.0473C159.772 58.287 182.925 49.1095 195.439 37.8817C207.954 26.6539 209.727 13.327 211.5 3.05176e-05L0 3.05176e-05L0 99Z" fill="#E8A21F"/>
<path d="M0 49.5C11.4719 45.3994 22.8395 41.2988 34.2071 38.6627C45.5747 36.0266 56.9423 34.9038 68.4142 32.0237C79.8861 29.1435 91.4623 24.5547 97.7197 18.9408C103.977 13.3269 104.811 6.63906 105.75 1.52588e-05L0 1.52588e-05L0 49.5Z" fill="#F0CF20"/>
</svg>
