<svg width="90" height="90" viewBox="0 0 90 90" fill="none" xmlns="http://www.w3.org/2000/svg">
<g id="logo-react">
<path id="Vector" d="M72.1863 31.7671C71.2875 31.4601 70.3822 31.1742 69.4705 30.9093C69.6217 30.2941 69.7611 29.6753 69.8889 29.0531C71.9455 19.0511 70.6008 10.9933 66.0111 8.34078C61.6166 5.79547 54.4096 8.448 47.1393 14.7902C46.4244 15.416 45.7242 16.0605 45.0387 16.7238C44.5816 16.2832 44.1129 15.8519 43.6324 15.43C36.0123 8.64839 28.3746 5.79195 23.7902 8.45328C19.3957 11.0039 18.0896 18.5783 19.9406 28.0582C20.1258 28.9957 20.3338 29.9291 20.5646 30.8584C19.5141 31.1562 18.4725 31.4844 17.441 31.8427C8.51836 34.9628 2.8125 39.8548 2.8125 44.9279C2.8125 50.1697 8.93672 55.4255 18.2408 58.6125C18.9955 58.8691 19.7572 59.1076 20.526 59.3279C20.2764 60.3228 20.0555 61.3289 19.8633 62.346C18.1055 71.6625 19.4766 79.0576 23.8623 81.5923C28.3922 84.2097 35.9912 81.5203 43.3986 75.0339C43.9846 74.5207 44.5705 73.9787 45.1564 73.408C45.8971 74.124 46.6588 74.8189 47.4416 75.4927C54.6135 81.6767 61.6957 84.1746 66.0744 81.6328C70.6008 79.0066 72.0721 71.0613 70.1613 61.3951C70.0148 60.6568 69.8461 59.9033 69.6551 59.1345C70.1895 58.9763 70.7127 58.8128 71.2248 58.6441C80.8928 55.4326 87.191 50.24 87.191 44.9332C87.1875 39.8355 81.2988 34.9119 72.1863 31.7671ZM49.5105 17.5148C55.7385 12.0814 61.5604 9.93687 64.2146 11.4697C67.0395 13.1027 68.1381 19.6875 66.3627 28.3236C66.2455 28.8861 66.1189 29.4468 65.983 30.0058C62.2663 29.1604 58.4974 28.5638 54.7014 28.2199C52.5279 25.089 50.1453 22.1086 47.5699 19.299C48.2004 18.6873 48.8461 18.0925 49.507 17.5148H49.5105ZM27.726 49.2626C28.4889 50.7392 29.2863 52.1976 30.1184 53.6378C30.9656 55.1074 31.8486 56.5552 32.7674 57.9814C30.1554 57.6974 27.5598 57.2791 24.9908 56.7281C25.7361 54.3164 26.6537 51.8115 27.726 49.2626ZM27.726 40.7671C26.6713 38.2728 25.7783 35.8189 25.0453 33.4494C27.4535 32.9097 30.0199 32.4685 32.6953 32.1345C31.7988 33.5337 30.9363 34.9535 30.1078 36.3937C29.2793 37.8339 28.4836 39.2918 27.7207 40.7671H27.726ZM29.642 45.0158C30.7529 42.699 31.9494 40.4267 33.2314 38.199C34.5123 35.9724 35.8758 33.7968 37.3219 31.6722C39.832 31.4824 42.4055 31.3822 45.0053 31.3822C47.6051 31.3822 50.1943 31.4824 52.7027 31.674C54.1336 33.7939 55.4889 35.9619 56.7686 38.1779C58.0482 40.3939 59.2605 42.6556 60.4055 44.963C59.2758 47.288 58.0664 49.5697 56.7773 51.808C55.4988 54.0345 54.1512 56.2166 52.7344 58.3541C50.2295 58.5298 47.6367 58.6265 45 58.6265C42.3633 58.6265 39.8197 58.5439 37.3605 58.3839C35.9039 56.2523 34.5293 54.0673 33.2367 51.8291C31.9441 49.5908 30.7441 47.3197 29.6367 45.0158H29.642ZM59.8975 53.6132C60.7471 52.139 61.5627 50.6455 62.3443 49.1326C63.4158 51.562 64.3616 54.045 65.1779 56.5716C62.5788 57.1569 59.9508 57.6058 57.3047 57.9164C58.1977 56.4996 59.0619 55.0652 59.8975 53.6132ZM62.3092 40.7689C61.5311 39.2865 60.7219 37.8216 59.8816 36.3744C59.0613 34.947 58.2064 33.5373 57.317 32.1451C60.0082 32.4861 62.5904 32.9396 65.0109 33.4933C64.2327 35.9622 63.331 38.3905 62.3092 40.7689ZM45.0404 21.8812C46.7957 23.7992 48.4531 25.8044 50.0063 27.8894C46.684 27.7312 43.3594 27.7312 40.0324 27.8894C41.6725 25.7203 43.3512 23.7076 45.0404 21.8812ZM25.6043 11.5769C28.4273 9.93863 34.6693 12.28 41.2488 18.1283C41.6689 18.5027 42.0926 18.8947 42.5145 19.3007C39.9258 22.1099 37.5264 25.0878 35.332 28.2146C31.5444 28.5559 27.7829 29.143 24.0715 29.9724C23.857 29.1099 23.6637 28.2416 23.4914 27.3673C21.9006 19.241 22.9535 13.115 25.6043 11.5769ZM21.4893 55.8474C20.7861 55.647 20.0918 55.4296 19.4063 55.1953C15.293 53.789 11.8951 51.9539 9.5625 49.9552C7.47422 48.164 6.41602 46.3763 6.41602 44.9279C6.41602 41.85 10.9969 37.923 18.6363 35.2599C19.5961 34.9259 20.5641 34.6207 21.5402 34.3441C22.6748 37.9903 24.0489 41.5576 25.6535 45.0228C24.0298 48.5359 22.6387 52.1519 21.4893 55.8474ZM41.0238 72.3128C37.749 75.1816 34.4689 77.2154 31.5773 78.2402C28.9793 79.1595 26.9104 79.1859 25.6605 78.4634C22.9992 76.9253 21.8918 70.9857 23.4018 63.0193C23.5811 62.0818 23.7861 61.1443 24.017 60.2068C27.7656 61.0143 31.5648 61.5658 35.3883 61.8574C37.6041 65.0005 40.0233 67.9952 42.6305 70.8222C42.1066 71.3373 41.5705 71.833 41.0238 72.3128ZM45.1406 68.2312C43.432 66.3837 41.727 64.3394 40.0641 62.1421C41.6801 62.2054 43.3254 62.2371 45 62.2371C46.7191 62.2371 48.4207 62.2002 50.0977 62.1246C48.5501 64.243 46.8956 66.2812 45.1406 68.2312ZM67.0289 73.2568C66.5262 75.9709 65.5154 77.7814 64.2656 78.5056C61.6061 80.049 55.9195 78.0433 49.7883 72.7541C49.0852 72.1494 48.382 71.5007 47.6666 70.8205C50.223 67.9824 52.5855 64.9756 54.7383 61.8205C58.5829 61.4947 62.4006 60.9045 66.1641 60.0539C66.3363 60.75 66.4887 61.432 66.6211 62.1C67.4666 66.3714 67.5879 70.2351 67.0289 73.2568ZM70.0875 55.2146C69.627 55.3675 69.1523 55.5152 68.6707 55.6593C67.4906 51.9959 66.0629 48.417 64.3975 44.9472C66.0004 41.5237 67.3722 37.9967 68.5037 34.3898C69.3668 34.6412 70.2053 34.9048 71.0121 35.1843C78.8203 37.8773 83.584 41.864 83.584 44.9279C83.584 48.1974 78.4389 52.4408 70.0875 55.2146Z" fill="#570C25"/>
<path id="Vector_2" d="M44.9998 52.4795C46.4958 52.4843 47.9596 52.0452 49.2058 51.2176C50.4521 50.39 51.4247 49.2112 52.0006 47.8305C52.5764 46.4498 52.7296 44.9292 52.4408 43.4614C52.1519 41.9936 51.434 40.6444 50.3779 39.5849C49.3218 38.5253 47.975 37.803 46.5081 37.5094C45.0412 37.2157 43.5202 37.3639 42.1376 37.9353C40.755 38.5067 39.5731 39.4755 38.7414 40.719C37.9098 41.9625 37.4658 43.4249 37.4658 44.9209C37.4638 45.912 37.657 46.8938 38.0346 47.8102C38.4122 48.7266 38.9667 49.5596 39.6664 50.2615C40.366 50.9635 41.1972 51.5207 42.1124 51.9013C43.0275 52.2818 44.0087 52.4783 44.9998 52.4795Z" fill="#570C25"/>
</g>
</svg>
