<svg width="90" height="90" viewBox="0 0 90 90" fill="none" xmlns="http://www.w3.org/2000/svg">
<g id="logo-ionic">
<path id="Vector" d="M45 27.0527C41.4504 27.0527 37.9805 28.1053 35.029 30.0774C32.0776 32.0495 29.7773 34.8524 28.4189 38.1319C27.0605 41.4113 26.7051 45.0199 27.3976 48.5013C28.0901 51.9828 29.7994 55.1807 32.3094 57.6906C34.8193 60.2006 38.0172 61.9099 41.4987 62.6024C44.9801 63.2949 48.5887 62.9395 51.8681 61.5811C55.1476 60.2227 57.9505 57.9224 59.9226 54.971C61.8947 52.0196 62.9473 48.5496 62.9473 45C62.9412 40.2419 61.0484 35.6805 57.684 32.316C54.3195 28.9516 49.7581 27.0588 45 27.0527Z" fill="#570C25"/>
<path id="Vector_2" d="M70.7677 28.6472C75.2839 28.6472 78.945 24.986 78.945 20.4698C78.945 15.9536 75.2839 12.2925 70.7677 12.2925C66.2515 12.2925 62.5903 15.9536 62.5903 20.4698C62.5903 24.986 66.2515 28.6472 70.7677 28.6472Z" fill="#570C25"/>
<path id="Vector_3" d="M80.8348 28.6876L80.492 27.9352L79.9453 28.554C78.6059 30.0749 76.9116 31.2415 75.0129 31.9501L74.4855 32.1434L74.7 32.6585C76.3343 36.5676 77.1733 40.7631 77.168 45.0001C77.168 62.7399 62.7363 77.1681 45 77.1681C27.2637 77.1681 12.832 62.7399 12.832 45.0001C12.832 27.2602 27.2602 12.8321 45 12.8321C49.7707 12.8221 54.4825 13.8855 58.7865 15.9434L59.291 16.172L59.5107 15.6587C60.3121 13.7978 61.5594 12.163 63.1424 10.8985L63.7875 10.3835L63.0545 10.0196C57.4789 7.11986 51.2845 5.61212 45 5.62508C23.2893 5.62508 5.625 23.2893 5.625 45.0001C5.625 66.7108 23.2893 84.3751 45 84.3751C66.7107 84.3751 84.375 66.7108 84.375 45.0001C84.3842 39.371 83.1766 33.8064 80.8348 28.6876Z" fill="#570C25"/>
</g>
</svg>
