<svg width="90" height="90" viewBox="0 0 90 90" fill="none" xmlns="http://www.w3.org/2000/svg">
<g id="logo-nodejs">
<path id="Vector" d="M75.5438 22.8638L48.2222 6.47749C47.2408 5.91801 46.1306 5.62378 45.001 5.62378C43.8713 5.62378 42.7611 5.91801 41.7798 6.47749L14.4563 22.8621C13.4717 23.4655 12.6593 24.3126 12.0976 25.3217C11.536 26.3307 11.2441 27.4676 11.2501 28.6224V61.3476C11.2442 62.5031 11.5361 63.6407 12.0977 64.6506C12.6593 65.6604 13.4716 66.5086 14.4563 67.1132L21.6212 71.3918L21.6616 71.4146C25.2792 73.2656 26.6644 73.2656 28.2692 73.2656C33.9188 73.2656 37.4292 69.6093 37.4292 63.7224V31.9921C37.4325 31.596 37.2785 31.2147 37.001 30.932C36.7235 30.6492 36.3452 30.4881 35.9491 30.4839H32.0151C31.619 30.4881 31.2407 30.6492 30.9632 30.932C30.6858 31.2147 30.5318 31.596 30.5351 31.9921V63.7224C30.5494 64.1767 30.446 64.6269 30.2351 65.0295C30.0241 65.432 29.7126 65.7732 29.331 66.0199C28.2938 66.6527 26.7874 66.5191 25.0876 65.6419L18.2216 61.5093C18.1953 61.4914 18.1738 61.4673 18.1591 61.439C18.1444 61.4108 18.1369 61.3794 18.1372 61.3476V29.0847C18.1383 29.0476 18.1483 29.0114 18.1664 28.9789C18.1844 28.9465 18.21 28.9189 18.2409 28.8984L44.9315 12.5507C44.9515 12.5408 44.9734 12.5357 44.9957 12.5357C45.018 12.5357 45.0399 12.5408 45.0599 12.5507L71.7663 28.8984C71.7967 28.9206 71.8213 28.9497 71.8381 28.9833C71.855 29.017 71.8635 29.0541 71.863 29.0917V61.3476C71.8636 61.3809 71.8569 61.414 71.8432 61.4444C71.8295 61.4748 71.8093 61.5018 71.7839 61.5234L45.0546 77.458C45.009 77.4738 44.9595 77.4738 44.914 77.458L38.0884 73.4044C37.8857 73.272 37.6517 73.1956 37.4099 73.1829C37.1682 73.1702 36.9274 73.2218 36.712 73.3324L36.6522 73.3675C34.7679 74.4837 34.2616 74.7738 32.5143 75.4101C32.2296 75.5138 31.5599 75.7617 31.5019 76.4244C31.4438 77.0871 32.0802 77.5582 32.6462 77.8869L41.7692 83.489C42.7413 84.0713 43.8529 84.3793 44.986 84.3802H45.088C46.1927 84.3629 47.2736 84.0556 48.2222 83.489L75.5438 67.1185C76.528 66.512 77.3398 65.6627 77.9013 64.6522C78.4628 63.6416 78.755 62.5037 78.7501 61.3476V28.6224C78.7556 27.4679 78.4635 26.3315 77.9019 25.3228C77.3403 24.3141 76.5281 23.4672 75.5438 22.8638Z" fill="#570C25"/>
<path id="Vector_2" d="M54.1195 55.9071C47.5646 55.9071 46.1672 54.0755 45.7523 51.1188C45.7056 50.7668 45.534 50.4433 45.2688 50.2071C45.0036 49.971 44.6624 49.8379 44.3074 49.8321H40.8269C40.4347 49.8404 40.0617 50.0038 39.7895 50.2865C39.5174 50.5691 39.3684 50.948 39.375 51.3403C39.375 53.9032 40.275 62.2687 54.1265 62.2687C58.4121 62.2687 61.9769 61.2667 64.4326 59.37C66.8882 57.4733 68.2031 54.7136 68.2031 51.4247C68.2031 44.8241 63.8965 43.0171 55.415 41.8358C46.7929 40.637 46.7929 40.0271 46.7929 38.6911C46.7929 37.7296 46.7929 35.4778 53.0261 35.4778C57.4611 35.4778 59.8359 36.0386 60.5953 38.9935C60.6625 39.3211 60.8396 39.6159 61.0973 39.8291C61.3549 40.0423 61.6777 40.1611 62.0121 40.1659H65.5048C65.7107 40.1639 65.9137 40.118 66.1005 40.0313C66.2872 39.9446 66.4533 39.8191 66.5877 39.6632C66.8562 39.3497 66.9901 38.9429 66.9603 38.5312C66.5086 32.2821 61.94 29.1128 53.0314 29.1128C44.9349 29.1128 40.1027 32.7603 40.1027 38.8687C40.1027 45.5659 45.1107 47.4591 52.6341 48.2431C61.4232 49.1519 61.4232 50.4773 61.4232 51.648C61.4285 53.4726 60.6709 55.9071 54.1195 55.9071Z" fill="#570C25"/>
</g>
</svg>
