<svg width="90" height="90" viewBox="0 0 90 90" fill="none" xmlns="http://www.w3.org/2000/svg">
<g id="tailwind">
<path id="Vector" d="M45 22.5C34.9875 22.5 28.7625 27.4875 26.25 37.5C30 32.5125 34.3875 30.6375 39.375 31.875C42.225 32.5875 44.2875 34.65 46.5375 36.9375C50.2125 40.6875 54.375 45 63.75 45C73.7625 45 79.9875 40.0125 82.5 30C78.75 34.9875 74.3625 36.8625 69.375 35.625C66.525 34.9125 64.5 32.85 62.2125 30.5625C58.5375 26.8125 54.375 22.5 45 22.5ZM26.25 45C16.2375 45 10.0125 49.9875 7.5 60C11.25 55.0125 15.6375 53.1375 20.625 54.375C23.475 55.0875 25.5 57.15 27.7875 59.4375C31.4625 63.1875 35.625 67.5 45 67.5C55.0125 67.5 61.2375 62.5125 63.75 52.5C60 57.4875 55.6125 59.3625 50.625 58.125C47.775 57.4125 45.75 55.35 43.4625 53.0625C39.7875 49.3125 35.625 45 26.25 45Z" fill="#570C25"/>
</g>
</svg>
