<svg width="1323" height="444" viewBox="0 0 1323 444" fill="none" xmlns="http://www.w3.org/2000/svg">
<path d="M1188.49 34.8446C1147.42 18.4536 1023.12 96.2549 961.38 88.7216C903.499 84.2218 862.706 43.9731 820.084 21.3964C763.481 -8.58546 634.797 -5.8461 543.962 22.047C480.194 41.6156 418.277 73.8795 354.332 91.8799C235.509 124.952 112.968 108.169 0 43.3506L0 197.914H1323V64.7198C1323 14.0978 1265.73 65.6738 1188.49 34.8446Z" fill="#6C162B"/>
<path d="M203.963 131.04C307.046 131.04 414.783 97.3417 502.916 83.3916C593.608 69.0017 688.203 77.7925 779.038 91.6679C842.806 101.402 904.723 117.452 968.668 126.406C1087.49 142.858 1190.7 32.7692 1323 102.265V179.153H4.57764e-05V108.288C101.981 108.288 117.416 136.019 203.963 131.04Z" fill="#B8522E"/>
<path d="M1086.69 205.568C999.604 188.282 908.217 154.257 820.084 140.307C729.392 125.917 631.732 117.001 543.962 140.631C398.554 173.017 401.861 140.307 251.921 140.631C101.981 140.954 112.968 183.472 0 151.228L0 228.115H1323V208.033C1248.24 227.219 1163.92 220.904 1086.69 205.568Z" fill="#E8A21F"/>
<path d="M354.332 177.621C418.277 187.212 471.495 198.69 535.264 209.117C626.099 223.979 729.392 230.589 820.084 215.176C908.217 200.234 999.604 163.79 1086.69 145.275C1163.92 128.849 1248.24 122.085 1323 142.609V227.789H0V203.478C112.968 168.942 235.509 160 354.332 177.621Z" fill="#F0CF20"/>
<path d="M134.505 409.037C175.583 425.428 299.88 347.626 361.62 355.16C419.501 359.66 460.294 399.908 502.916 422.485C559.519 452.467 688.203 449.727 779.038 421.834C842.806 402.266 904.723 370.002 968.668 352.001C1087.49 318.929 1210.03 335.712 1323 400.531V245.968H4.57764e-05V379.162C4.57764e-05 429.784 57.2749 378.208 134.505 409.037Z" fill="#6C162B"/>
<path d="M1119.04 312.841C1015.95 312.841 908.217 346.54 820.084 360.49C729.392 374.88 634.797 366.089 543.962 352.213C480.194 342.479 418.277 326.429 354.332 317.475C235.509 301.023 132.3 411.112 0 341.616L0 264.729H1323V335.594C1221.02 335.594 1205.58 307.862 1119.04 312.841Z" fill="#B8522E"/>
<path d="M236.31 238.313C323.396 255.6 414.783 289.624 502.916 303.574C593.608 317.964 691.268 326.88 779.038 303.251C924.446 270.864 921.139 303.574 1071.08 303.251C1221.02 302.927 1210.03 260.409 1323 292.653V215.766H4.57764e-05V235.849C74.7606 216.662 159.08 222.978 236.31 238.313Z" fill="#E8A21F"/>
<path d="M968.668 266.26C904.723 256.669 851.505 245.191 787.736 234.765C696.901 219.903 593.608 213.293 502.916 228.706C414.783 243.647 323.396 280.091 236.31 298.606C159.08 315.032 74.7606 321.797 4.57764e-05 301.273V216.093H1323V240.403C1210.03 274.939 1087.49 283.882 968.668 266.26Z" fill="#F0CF20"/>
</svg>
